<svg width="390" height="336" viewBox="0 0 390 336" fill="none" xmlns="http://www.w3.org/2000/svg">
<g clip-path="url(#clip0_48_5905)">
<path fill-rule="evenodd" clip-rule="evenodd" d="M200.956 55.0992H201.061C203.228 55.0992 205 56.8774 205 59.0496C205 61.2227 203.228 63 201.061 63H200.956C198.79 63 197.018 61.2227 197.018 59.0496C197.018 56.8774 198.79 55.0992 200.956 55.0992ZM-34.0621 55.0992H-21.977C-22.1702 54.3266 -22.2727 53.4248 -22.2727 52.3682C-22.2727 43.4582 -15.0726 36.2362 -6.19069 36.2362C-2.59655 36.2362 0.721821 37.4192 3.40064 39.4176C3.39611 39.2684 3.39431 39.1173 3.39431 38.9663C3.39431 30.0562 10.5935 22.8334 19.4754 22.8334C24.5455 22.8334 29.0667 25.1876 32.0141 28.865C34.2085 27.7384 36.6968 27.1023 39.3312 27.1023C40.2156 27.1023 41.0811 27.1751 41.9256 27.3125C41.9247 27.2424 41.9229 27.1724 41.9229 27.1023C41.9229 18.1923 49.1239 10.9694 58.0049 10.9694C61.2952 10.9694 64.3541 11.9613 66.9023 13.6622C70.4229 5.61847 78.4322 0 87.7514 0C98.6926 0 107.831 7.74612 110.015 18.0694C112.152 17.0156 114.557 16.4232 117.099 16.4232C124.67 16.4232 131.017 21.6713 132.727 28.7394C134.86 27.6911 137.257 27.1023 139.791 27.1023C147.401 27.1023 153.777 32.405 155.446 39.5287C157.732 35.8531 161.797 33.407 166.432 33.407C173.579 33.407 179.372 39.2184 179.372 46.3875C179.372 49.7401 178.105 52.7959 176.025 55.0992H190.033C192.199 55.0992 193.971 56.8774 193.971 59.0496C193.971 61.2227 192.199 63 190.033 63H-34.0621C-36.2283 63 -38 61.2227 -38 59.0496C-38 56.8774 -36.2283 55.0992 -34.0621 55.0992Z" fill="#C9E4F4"/>
<path fill-rule="evenodd" clip-rule="evenodd" d="M108.577 68.4588C105.947 68.4588 103.794 70.6059 103.794 73.2294V73.2303C103.794 75.8539 105.947 78 108.577 78H108.706C111.336 78 113.489 75.8539 113.489 73.2303V73.2294C113.489 70.6059 111.336 68.4588 108.706 68.4588H108.577ZM-4.25231 68.4588H0.267329C1.64883 68.4588 2.77873 67.3319 2.77873 65.9549C2.77873 64.577 1.92586 63.45 0.267329 63.45H-12C-11.8174 54.7378 -4.67921 47.7305 4.09939 47.7305C9.1758 47.7305 13.7018 50.0741 16.6537 53.7349C18.8509 52.6125 21.3414 51.9792 23.98 51.9792C24.8646 51.9792 25.7311 52.0517 26.5777 52.1885C26.5768 52.1187 26.5749 52.0499 26.5749 51.9792C26.5749 43.1103 33.7849 35.9191 42.6771 35.9191C45.9714 35.9191 49.0342 36.9065 51.5846 38.5997C55.1106 30.5932 63.1299 25 72.4607 25C83.4155 25 92.5647 32.7112 94.7519 42.988C96.8918 41.9389 99.2988 41.3492 101.845 41.3492C109.425 41.3492 115.781 46.5736 117.493 53.609C119.627 52.5663 122.028 51.9792 124.565 51.9792C131.859 51.9792 138.02 56.8169 140 63.45H74.2864C72.9058 63.45 71.7759 64.577 71.7759 65.9549C71.7759 67.3319 72.9421 68.4588 74.2864 68.4588H94.5693C97.2006 68.4588 99.3523 70.6059 99.3523 73.2294V73.2303C99.3523 75.8539 97.2006 78 94.5693 78H-4.25231C-6.88362 78 -9.03536 75.8539 -9.03536 73.2303V73.2294C-9.03536 70.6059 -6.88362 68.4588 -4.25231 68.4588Z" fill="white"/>
<path fill-rule="evenodd" clip-rule="evenodd" d="M303.48 125.816C294.03 125.816 286.37 133.469 286.37 142.908C286.37 146.095 287.243 149.077 288.763 151.63H285.19C282.885 151.63 281 153.513 281 155.815C281 158.117 282.885 160 285.19 160H292.315H303.48H340.444H380.59H390.48H390.496H390.503H410.81C413.115 160 415 158.117 415 155.815C415 153.513 413.115 151.63 410.81 151.63H405.213C406.734 149.077 407.608 146.095 407.608 142.908C407.608 133.469 399.946 125.816 390.496 125.816C387.805 125.816 385.258 126.438 382.991 127.545C382.505 123.087 378.724 119.617 374.131 119.617C372.036 119.617 370.11 120.339 368.589 121.547C364.794 109.633 353.629 101 340.444 101C325.12 101 312.523 112.658 311.055 127.58C308.772 126.452 306.2 125.816 303.48 125.816Z" fill="#C9E4F4"/>
<path fill-rule="evenodd" clip-rule="evenodd" d="M296.058 164.889H300.838C302.298 164.889 303.493 163.694 303.493 162.235C303.493 161.069 302.917 160.071 301.79 159.718H300.794C299.165 159.718 297.833 158.386 297.833 156.759C297.833 155.132 299.165 153.8 300.794 153.8H303.318C302.244 151.994 301.627 149.886 301.627 147.633C301.627 140.959 307.041 135.548 313.718 135.548C315.64 135.548 317.456 135.997 319.069 136.794C320.107 126.244 329.007 118 339.834 118C349.151 118 357.04 124.104 359.722 132.528C360.797 131.675 362.157 131.164 363.637 131.164C366.883 131.164 369.555 133.617 369.898 136.77C371.499 135.987 373.299 135.548 375.201 135.548C381.879 135.548 387.291 140.959 387.291 147.633C387.291 149.886 386.674 151.994 385.6 153.8H389.555C391.182 153.8 392.515 155.132 392.515 156.759C392.515 158.386 391.182 159.718 389.555 159.718H378.264C377.212 160.071 376.449 161.069 376.449 162.235C376.449 163.694 377.683 164.889 379.104 164.889H386.46C389.242 164.889 391.518 167.164 391.518 169.944V169.945C391.518 172.726 389.242 175 386.46 175H296.058C293.276 175 291 172.726 291 169.945V169.944C291 167.164 293.276 164.889 296.058 164.889ZM402.806 164.889H402.942C405.724 164.889 408 167.164 408 169.944V169.945C408 172.726 405.724 175 402.942 175H402.806C400.025 175 397.749 172.726 397.749 169.945V169.944C397.749 167.164 400.025 164.889 402.806 164.889Z" fill="white"/>
<path d="M70.1055 146.918C65.4278 143.24 60.8875 138.725 59.6467 132.905C58.3286 126.727 61.0707 120.301 65.0505 115.393C70.93 108.14 79.6563 103.267 88.9121 102.061C93.2832 101.491 97.9449 101.651 101.759 99.4451C108.972 95.277 109.498 85.3802 111.381 77.267C114.506 63.8391 123.356 52.5053 132.759 42.4214C144.59 29.738 158.209 17.9423 174.718 12.6317C191.231 7.32504 211.16 9.7813 223.055 22.401C240.221 40.618 235.484 72.2271 252.654 90.4401C266.185 104.792 289.04 106.141 304.041 118.952C321.191 133.59 323.388 161.377 311.696 180.657C308.42 186.059 302.11 194.153 305.195 200.924C306.712 204.256 310.08 206.669 311.632 210.188C313.324 214.014 314.009 218.301 312.922 222.394C311.306 228.497 306.25 233.076 300.935 236.478C289.944 243.514 277.093 247.006 264.342 249.805C211.515 261.404 155.86 262.633 103.646 248.539C90.2179 244.915 75.8664 239.328 69.2436 227.099C66.8455 222.673 65.6643 217.645 65.4398 212.613C65.1018 205.041 66.9967 197.417 70.6792 190.809C74.4691 184.001 82.0528 179.754 85.4486 173.034C91.014 162.014 77.2199 152.512 70.1055 146.918Z" fill="#A18F5F" fill-opacity="0.5"/>
<path d="M318.199 167.57C316.97 172.201 315.115 176.66 312.633 180.738C311.046 183.35 308.749 186.587 307.142 190H70.0467C74.0149 183.698 81.104 179.512 84.3654 173.07C89.9844 161.981 76.0633 152.414 68.8895 146.782C64.1718 143.084 59.5926 138.537 58.3347 132.688C57.0109 126.462 59.7754 120 63.7915 115.061C64.1863 114.58 64.5883 114.103 64.998 113.647C70.8861 107.133 79.144 102.774 87.8637 101.644C92.2738 101.075 96.977 101.228 100.825 99.0121C108.103 94.8137 108.629 84.8583 110.537 76.6938C113.681 63.181 122.614 51.7715 132.101 41.6319C144.038 28.8642 157.782 16.994 174.434 11.6538C191.099 6.30556 211.205 8.77734 223.202 21.4809C240.521 39.8131 235.746 71.622 253.065 89.9502C266.717 104.396 289.779 105.75 304.909 118.642C318.573 130.28 322.83 150.167 318.199 167.57Z" fill="#C3ECFB"/>
<path d="M103.278 103.46V95.2291C103.278 94.7234 102.859 94.3049 102.354 94.3049C101.848 94.3049 101.429 94.7234 101.429 95.2291V103.46H97.8369V178.866H125.513V103.46H103.278Z" fill="#E1F5F4"/>
<path d="M223.834 52.3467V42.5285H219.369V34.3497C219.369 33.7567 218.898 33.2859 218.305 33.2859C217.712 33.2859 217.242 33.7567 217.242 34.3497V42.5285H197.222V52.3467H183.271V189.678H236.25V52.3467H223.834Z" fill="#E1F5F4"/>
<path d="M174.046 189.679H136.727V51.51L174.046 37.6809V189.679Z" fill="#E1F5F4"/>
<path d="M265.512 117.497V93.0825H244.76V117.497V126.129V155.514H289.7V117.497H265.512Z" fill="#E1F5F4"/>
<path d="M263.699 150.702V132.862H248.806V150.702H238.778V105.709H218.759L205.086 92.0546V66.8379H187.037V105.709V108.604V189.608H231.96H238.778H285.497V150.702H263.699Z" fill="#B8DCF2"/>
<path d="M128.67 166.482H117.753V125.57H106.243V166.482H86.0664V189.746H128.67H132.192H165.571V76.2531H128.67V166.482Z" fill="#B8DCF2"/>
<path d="M211.871 57.8024V40.6076C211.871 39.9624 211.348 39.4566 210.72 39.4566C210.075 39.4566 209.569 39.9798 209.569 40.6076V57.8024H180.952V189.746H217.853V57.8024H211.871Z" fill="#B8DCF2"/>
<path d="M165.606 58.9539C165.606 58.3087 165.082 57.8029 164.455 57.8029C163.809 57.8029 163.304 58.3261 163.304 58.9539V76.1487H165.623V58.9539H165.606Z" fill="#B8DCF2"/>
<path d="M288.585 189.835V185.754H284.399C281.417 181.464 276.465 178.656 270.832 178.656C266.681 178.656 262.88 180.208 259.967 182.737C259.13 182.441 258.258 182.266 257.317 182.266C254.579 182.266 252.19 183.661 250.76 185.754H238.343C235.814 182.615 231.943 180.61 227.601 180.61C223.258 180.61 219.387 182.615 216.858 185.754H174.83C173.418 183.644 171.011 182.266 168.291 182.266C167 182.266 165.78 182.598 164.698 183.138C161.036 179.685 156.101 177.558 150.677 177.558C145.498 177.558 140.79 179.493 137.197 182.65C136.43 182.406 135.628 182.249 134.773 182.249C132.035 182.249 129.646 183.644 128.216 185.737H120.648C118.119 182.598 114.247 180.592 109.905 180.592C105.563 180.592 101.691 182.598 99.1628 185.737H91.9082V189.817H288.585V189.835Z" fill="#56A35F"/>
<path d="M155.245 128.101L125.285 167.373L123.175 175.936C123.175 175.936 121.431 180.871 127.883 180.871H145.113H162.343C168.812 180.871 167.051 175.936 167.051 175.936L155.245 128.101Z" fill="#6CC777"/>
<path d="M147.799 97.9809C146.979 94.5978 145.096 94.3013 145.096 94.3013C145.096 94.3013 143.212 94.5978 142.393 97.9809L125.268 167.353L155.228 128.081L147.799 97.9809Z" fill="#90D96E"/>
<path d="M139.306 181.655V189.677H148.287V183.416L139.306 181.655Z" fill="#A18F5F"/>
<path d="M150.903 180.869H139.306V181.654L148.287 183.416V189.676H150.903V180.869Z" fill="#877850"/>
<path d="M132.646 144.95L110.883 173.48L109.348 179.706C109.348 179.706 108.075 183.298 112.766 183.298H125.27H137.773C142.465 183.298 141.192 179.706 141.192 179.706L132.646 144.95Z" fill="#6CC777"/>
<path d="M127.24 123.081C126.647 120.622 125.287 120.396 125.287 120.396C125.287 120.396 123.909 120.622 123.333 123.081L110.899 173.48L132.663 144.95L127.24 123.081Z" fill="#90D96E"/>
<path d="M121.085 183.854V189.679H127.59V185.127L121.085 183.854Z" fill="#A18F5F"/>
<path d="M129.491 183.279H121.085V183.854L127.59 185.127V189.679H129.491V183.279Z" fill="#877850"/>
<path d="M263.732 172.416V189.838H272.818V174.195L263.732 172.416Z" fill="#A18F5F"/>
<path d="M275.451 171.631H263.732V172.416L272.818 174.194V189.837H275.451V171.631Z" fill="#877850"/>
<path d="M258.205 135.097C258.205 131.103 261.432 127.877 265.425 127.877H287.398C287.52 127.877 287.66 127.895 287.782 127.895C287.59 124.093 284.434 121.058 280.58 121.058H258.606C254.613 121.058 251.387 124.285 251.387 128.278V164.412C251.387 168.266 254.421 171.405 258.223 171.614C258.223 171.492 258.205 171.37 258.205 171.23V135.097Z" fill="#63BD6E"/>
<path d="M280.597 171.631C284.59 171.631 287.817 168.405 287.817 164.411V128.278C287.817 128.156 287.799 128.016 287.799 127.894C287.677 127.894 287.555 127.877 287.415 127.877H265.442C261.449 127.877 258.223 131.103 258.223 135.096V171.23C258.223 171.352 258.24 171.491 258.24 171.613C258.362 171.613 258.484 171.631 258.624 171.631H280.597Z" fill="#56A35F"/>
<path d="M216.283 180.397V189.831H225.648V182.246L216.283 180.397Z" fill="#A18F5F"/>
<path d="M228.368 179.577H216.283V180.397L225.648 182.245V189.831H228.368V179.577Z" fill="#877850"/>
<path d="M228.56 86.7683H230.757C233.425 86.7683 235.954 87.3961 238.186 88.5122C235.466 83.0713 229.833 79.3219 223.328 79.3219H221.131C211.958 79.3219 204.512 86.7683 204.512 95.9412V163.779C204.512 169.568 207.476 174.661 211.958 177.625V103.388C211.958 94.2148 219.387 86.7683 228.56 86.7683Z" fill="#A4E678"/>
<path d="M223.327 180.397C232.5 180.397 239.947 172.95 239.947 163.777V95.9573C239.947 93.2892 239.319 90.7605 238.203 88.5283C235.97 87.4122 233.442 86.7844 230.774 86.7844H228.576C219.403 86.7844 211.957 94.2309 211.957 103.404V177.659C214.59 179.403 217.747 180.414 221.13 180.414H223.327V180.397Z" fill="#98D470"/>
<path d="M188.45 163.101V189.835H196.176V164.618L188.45 163.101Z" fill="#A18F5F"/>
<path d="M198.425 162.438H188.45V163.101L196.176 164.618V189.835H198.425V162.438Z" fill="#877850"/>
<path d="M178.981 140.256C178.981 128.955 187.055 119.538 197.762 117.445C196.315 117.166 194.815 117.009 193.298 117.009C180.463 117.009 170.052 127.42 170.052 140.256C170.052 153.091 180.463 163.502 193.298 163.502C194.833 163.502 196.315 163.345 197.762 163.066C187.055 160.99 178.981 151.573 178.981 140.256Z" fill="#63BD6E"/>
<path d="M216.527 140.255C216.527 128.955 208.453 119.538 197.746 117.445C187.056 119.538 178.964 128.955 178.964 140.255C178.964 151.556 187.038 160.99 197.746 163.065C208.453 160.99 216.527 151.573 216.527 140.255Z" fill="#56A35F"/>
<path d="M195.944 208.879C195.944 205.782 193.432 203.269 190.334 203.269H187.987C184.889 203.269 182.377 205.782 182.377 208.879V223.842C182.377 226.94 184.889 229.451 187.987 229.451H190.334C193.432 229.451 195.944 226.94 195.944 223.842V208.879Z" fill="#333333"/>
<path d="M273.06 208.879C273.06 205.782 270.548 203.269 267.45 203.269H265.102C262.005 203.269 259.492 205.782 259.492 208.879V223.842C259.492 226.94 262.005 229.451 265.102 229.451H267.45C270.548 229.451 273.06 226.94 273.06 223.842V208.879Z" fill="#333333"/>
<path d="M189.634 180.854C189.465 180.816 189.277 180.667 189.277 180.496V179.343C189.277 178.232 188.72 177.216 187.728 176.716C186.448 176.071 184.978 176.048 183.68 176.655L181.338 177.771C180.199 178.302 179.519 179.445 179.519 180.702V181.581C179.519 183.199 180.684 184.567 182.287 184.786L192.096 186.123L193.269 181.649L189.634 180.854Z" fill="url(#paint0_linear_48_5905)"/>
<path d="M266.178 180.854C266.346 180.816 266.395 180.667 266.395 180.496V179.343C266.395 178.232 267.092 177.216 268.084 176.716C269.364 176.071 270.905 176.048 272.202 176.655L274.558 177.771C275.697 178.302 276.39 179.445 276.39 180.702V181.581C276.39 183.199 275.246 184.567 273.643 184.786L263.846 186.123L262.607 181.649L266.178 180.854Z" fill="#FDC602"/>
<path d="M273.427 190.749C272.005 185.948 264.657 181.495 264.657 181.495C264.657 181.495 258.494 162.573 251.857 162.573C246.528 162.573 233.731 162.573 228.894 162.573C228.894 162.573 228.186 162.573 226.999 162.573C222.157 162.573 209.337 162.573 204.007 162.573C197.37 162.573 191.207 181.495 191.207 181.495C191.207 181.495 183.859 185.941 182.437 190.741C181.397 194.251 183.651 207.72 184.939 214.685C185.393 217.141 187.71 218.983 190.416 218.983H226.999H228.894H265.448C268.155 218.983 270.472 217.144 270.925 214.688C272.213 207.724 274.467 194.258 273.427 190.749Z" fill="#FFDF48"/>
<path d="M272.505 210.937C272.092 210.464 271.461 210.17 270.794 210.17H185.074C184.41 210.17 183.783 210.46 183.369 210.929C182.955 211.397 182.8 212.019 182.947 212.603L184.35 218.167C184.575 219.063 185.458 219.69 186.476 219.69H269.321C270.331 219.69 271.208 219.079 271.443 218.192L272.915 212.617C273.07 212.03 272.919 211.41 272.505 210.937Z" fill="#EBC613"/>
<path d="M204.781 202.259C204.781 202.259 202.648 195.86 199.962 195.307C197.275 194.753 185.898 192.384 185.661 194.359C185.424 196.334 183.133 203.129 189.928 203.76C196.722 204.393 205.876 204.913 204.781 202.259Z" fill="#FFF48F"/>
<path d="M251.086 202.259C251.086 202.259 253.219 195.86 255.905 195.307C258.592 194.753 269.969 192.384 270.206 194.359C270.442 196.334 272.734 203.129 265.939 203.76C259.145 204.393 249.991 204.913 251.086 202.259Z" fill="#FFF48F"/>
<path d="M249.551 196.739C249.33 196.399 248.953 196.13 248.548 196.13H207.316C206.896 196.13 206.507 196.413 206.29 196.773C206.074 197.133 206.062 197.612 206.259 197.983L208.579 202.447C209.44 204.07 211.126 205.174 212.964 205.174H243.259C245.218 205.174 246.994 203.948 247.793 202.158L249.64 197.946C249.805 197.576 249.772 197.079 249.551 196.739Z" fill="url(#paint1_linear_48_5905)"/>
<path d="M260.779 183.069C260.512 183.477 260.056 183.753 259.566 183.753H196.298C195.802 183.753 195.34 183.47 195.075 183.05C194.809 182.631 194.776 182.09 194.989 181.64C196.426 178.613 199.121 173.002 200.63 169.866C200.699 169.724 200.775 169.581 200.86 169.451C201.59 168.291 202.873 167.568 204.265 167.568H252.108C253.514 167.568 254.801 168.302 255.529 169.471C255.631 169.637 255.723 169.812 255.801 169.992L260.892 181.681C261.09 182.129 261.047 182.66 260.779 183.069Z" fill="#7D97F4"/>
<path d="M255.529 169.47C252.177 170.131 242.329 171.781 227.474 171.781C212.496 171.781 203.707 170.097 200.86 169.445C201.59 168.286 202.873 167.567 204.264 167.567H252.108C253.514 167.567 254.801 168.301 255.529 169.47Z" fill="#BDD0FB"/>
<path d="M203.762 193.555C203.703 193.555 203.644 193.534 203.599 193.491L195.398 185.731C195.303 185.641 195.299 185.49 195.389 185.395C195.479 185.3 195.629 185.296 195.724 185.385L203.925 193.146C204.019 193.237 204.024 193.386 203.934 193.481C203.888 193.53 203.824 193.555 203.762 193.555Z" fill="url(#paint2_linear_48_5905)"/>
<path d="M260.739 185.41C260.68 185.41 260.621 185.431 260.576 185.474L252.375 193.234C252.28 193.324 252.276 193.474 252.366 193.57C252.456 193.665 252.606 193.668 252.701 193.579L260.902 185.818C260.996 185.728 261 185.579 260.91 185.484C260.864 185.434 260.801 185.41 260.739 185.41Z" fill="url(#paint3_linear_48_5905)"/>
<path fill-rule="evenodd" clip-rule="evenodd" d="M146.035 242.89L146.214 245.363L70.8391 236.261L73.0054 233.843L146.035 242.89Z" fill="#E5E9F2"/>
<path fill-rule="evenodd" clip-rule="evenodd" d="M143.048 199.011L143.228 201.485L67.8528 192.383L70.0191 189.964L143.048 199.011Z" fill="#E5E9F2"/>
<g clip-path="url(#clip1_48_5905)">
<path fill-rule="evenodd" clip-rule="evenodd" d="M98.8477 216.493C98.8477 213.981 100.207 211.655 102.463 210.549C104.92 209.345 107.961 208.003 109.321 208.003C110.659 208.003 113.735 209.303 116.269 210.493C118.689 211.628 120.161 214.093 120.161 216.766V216.766C120.161 220.972 116.573 224.284 112.38 223.947L105.194 223.37C101.61 223.082 98.8477 220.089 98.8477 216.493V216.493Z" stroke="#FFB500" stroke-width="4.03485"/>
<path fill-rule="evenodd" clip-rule="evenodd" d="M100.933 194.412C99.0367 194.504 97.5469 196.068 97.5469 197.967V211.689C97.5469 213.537 98.9623 215.078 100.804 215.235L101.076 215.258C100.665 214.817 100.439 214.336 100.439 213.833C100.439 211.712 104.454 209.993 109.408 209.993C114.362 209.993 118.377 211.712 118.377 213.833C118.377 214.875 117.408 215.82 115.834 216.512L117.575 216.66C119.652 216.836 121.435 215.198 121.435 213.114V201.397C121.435 200.241 120.874 199.157 119.93 198.49L113.306 193.81L100.933 194.412Z" fill="url(#paint4_linear_48_5905)"/>
<path d="M109.94 201.581C113.143 200.272 115.391 197.205 115.391 193.629C115.391 188.863 111.398 185 106.472 185C101.546 185 97.5522 188.863 97.5522 193.629C97.5522 193.629 97.0242 202.807 106.472 208.913C106.472 208.913 105.364 203.687 109.94 201.581Z" fill="#333333"/>
<path d="M101.32 193.737H99.7644V191.041H100.268V193.289H101.32V193.737ZM104.142 192.381C104.142 192.797 104.026 193.132 103.794 193.385C103.565 193.639 103.257 193.765 102.87 193.765C102.483 193.765 102.174 193.639 101.942 193.385C101.71 193.132 101.594 192.797 101.594 192.381C101.594 191.963 101.709 191.627 101.938 191.373C102.17 191.12 102.479 190.993 102.866 190.993C103.258 190.993 103.569 191.12 103.798 191.373C104.027 191.624 104.142 191.96 104.142 192.381ZM102.134 192.381C102.134 192.664 102.201 192.888 102.334 193.053C102.467 193.219 102.646 193.301 102.87 193.301C103.097 193.301 103.275 193.22 103.406 193.057C103.537 192.892 103.602 192.667 103.602 192.381C103.602 192.096 103.537 191.871 103.406 191.705C103.275 191.54 103.095 191.457 102.866 191.457C102.639 191.457 102.461 191.54 102.33 191.705C102.199 191.871 102.134 192.096 102.134 192.381ZM106.561 193.609C106.395 193.716 106.163 193.769 105.865 193.769C105.465 193.769 105.134 193.644 104.873 193.393C104.614 193.14 104.485 192.805 104.485 192.389C104.485 191.981 104.613 191.649 104.869 191.393C105.127 191.135 105.459 191.005 105.865 191.005C106.161 191.005 106.391 191.055 106.557 191.153V191.645C106.354 191.528 106.13 191.469 105.885 191.469C105.639 191.469 105.434 191.553 105.269 191.721C105.106 191.887 105.025 192.109 105.025 192.389C105.025 192.669 105.106 192.892 105.269 193.057C105.434 193.223 105.649 193.305 105.913 193.305C106.166 193.305 106.382 193.239 106.561 193.105V193.609ZM109.178 193.737H108.542L107.574 192.401L108.506 191.041H109.11L108.174 192.393L109.178 193.737ZM107.534 193.737H107.03V191.041H107.534V193.737ZM111.15 193.737H109.542V191.041H111.134V191.453H110.05V192.185H111.014V192.593H110.05V193.325H111.15V193.737ZM112.871 193.737H112.367V192.753L111.447 191.041H112.035L112.215 191.433C112.319 191.66 112.404 191.851 112.471 192.005C112.538 192.157 112.578 192.252 112.591 192.289L112.615 192.349C112.639 192.251 112.776 191.945 113.027 191.433L113.211 191.041H113.799L112.871 192.737V193.737Z" fill="#FFD300"/>
<path d="M100.873 195.928H100.327V197.737H100.084V195.928H99.5384V195.715H100.873V195.928ZM101.685 195.925H101.406V196.732H101.712C101.85 196.732 101.955 196.695 102.027 196.621C102.101 196.545 102.138 196.448 102.138 196.33C102.138 196.06 101.987 195.925 101.685 195.925ZM101.697 196.939H101.406V197.737H101.163V195.715H101.67C101.904 195.715 102.081 195.77 102.201 195.88C102.323 195.99 102.384 196.142 102.384 196.336C102.38 196.476 102.343 196.595 102.273 196.693C102.203 196.791 102.104 196.86 101.976 196.9L102.507 197.737H102.216L101.721 196.939H101.697ZM103.583 197.737H103.34V196.987L102.653 195.715H102.935L103.088 196.012C103.192 196.212 103.275 196.375 103.337 196.501C103.399 196.627 103.435 196.703 103.445 196.729L103.46 196.765C103.478 196.715 103.605 196.464 103.841 196.012L103.994 195.715H104.276L103.583 196.984V197.737ZM105.483 197.737H105.24L105.387 195.715H105.696L105.963 196.453L106.287 197.395C106.403 197.067 106.517 196.753 106.629 196.453L106.908 195.715H107.217L107.394 197.737H107.151L107.082 196.939L107.01 196.042C106.904 196.338 106.795 196.637 106.683 196.939L106.401 197.692H106.17L105.903 196.939L105.597 196.06C105.597 196.138 105.578 196.431 105.54 196.939L105.483 197.737ZM108.962 197.737H107.834V195.715H108.947V195.928H108.077V196.621H108.845V196.834H108.077V197.524H108.962V197.737ZM109.597 197.125H109.366V195.715H109.597V197.125ZM109.657 197.584C109.657 197.634 109.64 197.676 109.606 197.71C109.572 197.744 109.529 197.761 109.477 197.761C109.425 197.761 109.382 197.744 109.348 197.71C109.316 197.676 109.3 197.634 109.3 197.584C109.3 197.536 109.317 197.495 109.351 197.461C109.385 197.425 109.427 197.407 109.477 197.407C109.527 197.407 109.569 197.425 109.603 197.461C109.639 197.495 109.657 197.536 109.657 197.584Z" fill="white"/>
<path fill-rule="evenodd" clip-rule="evenodd" d="M112.318 203.717C112.376 203.772 112.421 203.833 112.451 203.902C112.482 203.973 112.496 204.049 112.492 204.129L112.471 204.669L112.132 204.655L112.134 204.624C112.11 204.632 112.093 204.638 112.083 204.642C112.006 204.667 111.926 204.679 111.843 204.676C111.734 204.673 111.632 204.645 111.537 204.593C111.442 204.54 111.367 204.47 111.314 204.382C111.259 204.293 111.234 204.195 111.238 204.088C111.241 204.008 111.26 203.933 111.297 203.864C111.333 203.796 111.381 203.738 111.441 203.689C111.501 203.64 111.569 203.603 111.647 203.578C111.724 203.553 111.804 203.541 111.886 203.544C111.967 203.546 112.046 203.563 112.122 203.593C112.198 203.623 112.263 203.664 112.318 203.717ZM111.855 204.377C111.932 204.38 112 204.356 112.059 204.305C112.118 204.254 112.149 204.191 112.151 204.118C112.153 204.07 112.142 204.025 112.117 203.983C112.092 203.942 112.058 203.908 112.015 203.883C111.972 203.858 111.925 203.845 111.875 203.843C111.826 203.841 111.778 203.852 111.733 203.874C111.688 203.896 111.652 203.928 111.624 203.967C111.596 204.007 111.581 204.051 111.579 204.1C111.576 204.173 111.603 204.237 111.658 204.292C111.712 204.346 111.778 204.374 111.855 204.377Z" fill="#333333"/>
<path d="M113.465 203.219C113.438 203.203 113.409 203.194 113.376 203.193C113.343 203.192 113.313 203.198 113.286 203.213C113.259 203.227 113.237 203.247 113.219 203.274C113.202 203.299 113.193 203.328 113.192 203.36C113.191 203.391 113.198 203.42 113.213 203.448C113.228 203.475 113.249 203.497 113.275 203.514C113.301 203.53 113.331 203.538 113.363 203.539C113.396 203.541 113.427 203.534 113.454 203.519C113.482 203.504 113.504 203.484 113.521 203.459C113.537 203.434 113.546 203.405 113.547 203.372C113.548 203.34 113.542 203.311 113.527 203.284C113.511 203.257 113.491 203.235 113.465 203.219Z" fill="#333333"/>
<path d="M113.156 204.691L113.498 204.702L113.536 203.642L113.195 203.632L113.156 204.691Z" fill="#333333"/>
<path d="M113.039 203.626C112.723 203.63 112.559 203.783 112.549 204.084L112.527 204.67L112.87 204.682L112.891 204.096C112.895 203.982 112.941 203.925 113.028 203.924L113.048 203.925C113.076 203.927 113.099 203.935 113.116 203.947L113.128 203.635C113.105 203.631 113.082 203.628 113.058 203.626L113.039 203.626Z" fill="#333333"/>
<path d="M116.779 203.752C116.463 203.756 116.3 203.909 116.289 204.21L116.268 204.796L116.61 204.808L116.632 204.222C116.636 204.108 116.681 204.051 116.769 204.051L116.788 204.051C116.816 204.054 116.839 204.061 116.857 204.073L116.868 203.761C116.845 203.757 116.822 203.754 116.799 203.752L116.779 203.752Z" fill="#333333"/>
<path d="M119.03 203.828C118.714 203.832 118.551 203.985 118.54 204.286L118.519 204.872L118.861 204.884L118.882 204.298C118.887 204.184 118.932 204.127 119.019 204.126L119.039 204.127C119.067 204.129 119.09 204.137 119.108 204.149L119.119 203.837C119.096 203.833 119.073 203.83 119.05 203.828L119.03 203.828Z" fill="#333333"/>
<path d="M118.431 203.386C118.404 203.37 118.375 203.362 118.342 203.36C118.309 203.359 118.279 203.366 118.252 203.38C118.225 203.394 118.202 203.415 118.184 203.441C118.168 203.467 118.159 203.495 118.158 203.527C118.157 203.558 118.164 203.588 118.179 203.616C118.194 203.643 118.214 203.664 118.241 203.681C118.267 203.697 118.296 203.706 118.329 203.707C118.362 203.708 118.392 203.701 118.42 203.686C118.448 203.671 118.47 203.651 118.487 203.626C118.503 203.601 118.512 203.572 118.513 203.539C118.514 203.507 118.508 203.478 118.493 203.451C118.477 203.424 118.457 203.402 118.431 203.386Z" fill="#333333"/>
<path d="M118.025 203.794L117.624 203.78L117.255 204.169L117.25 204.169L117.28 203.359L116.937 203.348L116.884 204.814L117.227 204.826L117.245 204.307L117.629 204.839L118.057 204.854L117.612 204.234L118.025 203.794Z" fill="#333333"/>
<path d="M118.122 204.858L118.464 204.87L118.502 203.81L118.16 203.799L118.122 204.858Z" fill="#333333"/>
<path fill-rule="evenodd" clip-rule="evenodd" d="M116.058 203.843C116.116 203.898 116.16 203.959 116.19 204.028C116.221 204.099 116.235 204.175 116.232 204.256L116.211 204.795L115.872 204.781L115.873 204.75C115.85 204.758 115.833 204.765 115.822 204.768C115.745 204.793 115.666 204.805 115.583 204.802C115.474 204.799 115.371 204.771 115.276 204.719C115.181 204.666 115.107 204.596 115.053 204.508C114.998 204.419 114.973 204.321 114.977 204.215C114.98 204.134 115 204.059 115.036 203.99C115.072 203.923 115.12 203.864 115.18 203.815C115.24 203.766 115.309 203.729 115.386 203.704C115.463 203.679 115.543 203.667 115.625 203.67C115.706 203.672 115.785 203.689 115.861 203.719C115.937 203.749 116.003 203.79 116.058 203.843ZM115.594 204.503C115.672 204.506 115.74 204.482 115.798 204.431C115.857 204.38 115.888 204.318 115.891 204.244C115.892 204.196 115.881 204.151 115.856 204.11C115.831 204.068 115.797 204.034 115.754 204.009C115.711 203.984 115.664 203.971 115.614 203.969C115.565 203.967 115.517 203.978 115.472 204C115.427 204.022 115.391 204.054 115.363 204.093C115.335 204.133 115.32 204.177 115.318 204.226C115.316 204.299 115.342 204.363 115.397 204.418C115.451 204.472 115.517 204.501 115.594 204.503Z" fill="#333333"/>
<path d="M111.183 204.377C111.144 204.314 111.12 204.246 111.111 204.174L111.11 204.173C111.08 204.207 111.049 204.234 111.015 204.254C110.952 204.293 110.885 204.311 110.812 204.308C110.74 204.306 110.674 204.283 110.614 204.241C110.555 204.198 110.508 204.143 110.474 204.074C110.44 204.006 110.424 203.935 110.427 203.862C110.429 203.789 110.45 203.719 110.488 203.653C110.527 203.587 110.577 203.535 110.64 203.496C110.705 203.458 110.772 203.44 110.844 203.442C110.915 203.444 110.982 203.467 111.043 203.51C111.071 203.529 111.1 203.556 111.129 203.592L111.383 203.356C111.338 203.304 111.286 203.26 111.227 203.222C111.115 203.15 110.992 203.112 110.856 203.107C110.721 203.102 110.595 203.132 110.477 203.197C110.359 203.262 110.264 203.352 110.193 203.467C110.122 203.582 110.084 203.709 110.078 203.85C110.073 203.99 110.102 204.12 110.165 204.239C110.228 204.358 110.316 204.454 110.429 204.526C110.542 204.599 110.666 204.637 110.8 204.641C110.936 204.646 111.062 204.616 111.179 204.552C111.212 204.533 111.244 204.512 111.274 204.489C111.239 204.456 111.209 204.418 111.183 204.377Z" fill="#333333"/>
<path fill-rule="evenodd" clip-rule="evenodd" d="M114.638 204.205C114.291 204.351 114.359 204.743 114.359 204.743C113.671 204.265 113.736 203.581 113.736 203.581C113.75 203.226 114.058 202.947 114.426 202.959C114.793 202.971 115.08 203.269 115.067 203.625C115.057 203.892 114.88 204.115 114.638 204.205ZM114.396 204.04C114.397 204.04 114.398 204.04 114.399 204.04C114.642 204.041 114.844 203.855 114.852 203.618C114.861 203.377 114.667 203.175 114.418 203.167C114.168 203.158 113.959 203.347 113.95 203.589C113.948 203.644 113.957 203.697 113.974 203.746C114.033 203.912 114.193 204.034 114.385 204.04C114.388 204.04 114.392 204.04 114.396 204.04Z" fill="white"/>
<path d="M114.439 203.274C114.384 203.272 114.329 203.289 114.285 203.328C114.28 203.332 114.279 203.339 114.284 203.344C114.288 203.349 114.296 203.349 114.301 203.345C114.34 203.311 114.389 203.295 114.438 203.297C114.487 203.3 114.534 203.32 114.57 203.358C114.574 203.363 114.582 203.363 114.587 203.359C114.592 203.354 114.592 203.347 114.587 203.342C114.548 203.3 114.494 203.277 114.439 203.274Z" fill="#333333"/>
<path d="M114.434 203.378C114.407 203.376 114.38 203.385 114.359 203.405C114.354 203.41 114.354 203.418 114.358 203.423C114.362 203.428 114.37 203.428 114.375 203.423C114.391 203.408 114.412 203.401 114.433 203.402C114.453 203.403 114.473 203.412 114.488 203.429C114.492 203.434 114.5 203.434 114.505 203.43C114.51 203.425 114.51 203.418 114.506 203.413C114.487 203.391 114.46 203.379 114.434 203.378Z" fill="#333333"/>
<path d="M114.437 203.324C114.396 203.321 114.354 203.335 114.322 203.366C114.317 203.37 114.317 203.378 114.321 203.383C114.325 203.388 114.333 203.388 114.338 203.384C114.366 203.358 114.401 203.346 114.435 203.348C114.47 203.35 114.504 203.365 114.529 203.393C114.533 203.398 114.541 203.399 114.546 203.394C114.551 203.39 114.551 203.382 114.547 203.377C114.517 203.344 114.477 203.326 114.437 203.324Z" fill="#333333"/>
<path fill-rule="evenodd" clip-rule="evenodd" d="M114.541 203.508C114.556 203.519 114.568 203.534 114.576 203.552C114.583 203.571 114.587 203.594 114.586 203.62C114.585 203.642 114.58 203.661 114.571 203.678C114.562 203.695 114.549 203.71 114.534 203.721C114.518 203.733 114.499 203.742 114.478 203.748C114.457 203.754 114.435 203.756 114.412 203.756L114.373 203.754L114.367 203.913L114.255 203.91L114.271 203.469L114.407 203.473C114.438 203.474 114.464 203.477 114.485 203.483C114.507 203.488 114.525 203.496 114.541 203.508ZM114.408 203.662C114.429 203.663 114.445 203.659 114.457 203.651C114.468 203.643 114.474 203.631 114.475 203.616C114.476 203.6 114.47 203.588 114.46 203.58C114.449 203.571 114.433 203.567 114.412 203.566L114.38 203.565L114.376 203.661L114.408 203.662Z" fill="#333333"/>
<rect width="9.32004" height="1.80025" rx="0.900126" transform="matrix(0.997729 0.0673586 -0.0722388 0.997387 110.141 205.773)" fill="#E5E9F2" stroke="white" stroke-width="1.04117"/>
<path d="M113.815 207.938C113.811 208.074 113.761 208.172 113.664 208.234C113.57 208.297 113.442 208.314 113.28 208.284C113.092 208.25 112.94 208.191 112.825 208.105L112.831 207.865C112.966 207.973 113.113 208.041 113.27 208.069C113.365 208.086 113.437 208.08 113.487 208.052C113.537 208.023 113.563 207.977 113.565 207.912C113.567 207.837 113.541 207.774 113.487 207.722C113.435 207.671 113.346 207.608 113.22 207.533C113.105 207.466 113.012 207.392 112.942 207.311C112.874 207.229 112.842 207.13 112.845 207.014C112.849 206.883 112.9 206.787 112.998 206.728C113.099 206.666 113.222 206.649 113.367 206.675C113.529 206.704 113.658 206.75 113.756 206.814L113.749 207.048C113.657 206.973 113.528 206.92 113.364 206.891C113.282 206.876 113.216 206.884 113.166 206.915C113.118 206.944 113.093 206.988 113.091 207.049C113.09 207.086 113.096 207.121 113.11 207.153C113.124 207.182 113.151 207.214 113.191 207.249C113.233 207.283 113.263 207.308 113.282 207.321C113.302 207.333 113.344 207.36 113.409 207.401C113.539 207.479 113.64 207.558 113.712 207.64C113.783 207.722 113.818 207.822 113.815 207.938ZM114.763 208.532L114.464 208.479L114.028 206.809L114.286 206.856L114.423 207.408C114.471 207.6 114.511 207.768 114.542 207.912C114.575 208.054 114.596 208.149 114.605 208.196L114.619 208.265C114.653 208.137 114.735 207.877 114.865 207.484L115.027 206.989L115.285 207.036L115.422 207.584L115.63 208.45C115.662 208.332 115.748 208.072 115.889 207.668L116.06 207.175L116.309 207.22L115.774 208.714L115.476 208.661L115.342 208.116L115.149 207.287C115.114 207.415 115.037 207.666 114.918 208.039L114.763 208.532ZM116.822 208.903L116.579 208.859L116.622 207.276L116.865 207.32L116.822 208.903ZM116.873 206.706C116.903 206.743 116.917 206.784 116.916 206.83C116.914 206.876 116.898 206.912 116.866 206.937C116.835 206.961 116.797 206.969 116.752 206.961C116.706 206.952 116.669 206.931 116.639 206.896C116.611 206.86 116.598 206.819 116.599 206.773C116.6 206.727 116.616 206.691 116.645 206.665C116.677 206.64 116.715 206.631 116.76 206.639C116.805 206.647 116.843 206.67 116.873 206.706ZM117.508 209.644L117.268 209.601L117.328 207.403L117.567 207.446L117.561 207.687C117.674 207.529 117.838 207.47 118.051 207.508C118.258 207.545 118.418 207.652 118.53 207.827C118.645 208 118.699 208.201 118.693 208.43C118.686 208.674 118.618 208.862 118.489 208.996C118.362 209.128 118.199 209.176 118 209.14C117.795 209.103 117.639 208.986 117.531 208.789L117.508 209.644ZM117.546 208.239C117.54 208.441 117.582 208.598 117.672 208.711C117.762 208.823 117.863 208.889 117.976 208.91C118.107 208.933 118.216 208.901 118.303 208.812C118.39 208.721 118.436 208.578 118.441 208.385C118.446 208.212 118.408 208.065 118.329 207.944C118.25 207.823 118.148 207.752 118.023 207.729C117.898 207.707 117.788 207.734 117.693 207.811C117.601 207.886 117.552 208.029 117.546 208.239ZM120.168 209.423C120.046 209.466 119.897 209.472 119.723 209.441C119.487 209.398 119.299 209.291 119.157 209.119C119.018 208.946 118.951 208.738 118.958 208.497C118.965 208.245 119.035 208.058 119.168 207.935C119.301 207.813 119.469 207.77 119.672 207.806C119.867 207.841 120.02 207.932 120.131 208.08C120.242 208.228 120.295 208.418 120.288 208.651C120.287 208.718 120.28 208.778 120.268 208.833L119.204 208.641C119.218 208.801 119.274 208.931 119.37 209.032C119.466 209.133 119.594 209.198 119.754 209.226C119.928 209.258 120.068 209.246 120.175 209.192L120.168 209.423ZM119.666 208.022C119.549 208.001 119.449 208.025 119.364 208.096C119.28 208.167 119.229 208.28 119.21 208.435L120.046 208.586L120.048 208.523C120.051 208.392 120.019 208.282 119.952 208.192C119.884 208.101 119.789 208.044 119.666 208.022ZM122.575 208.987L121.264 209.345L121.271 209.089L122.32 208.819L121.296 208.183L121.303 207.93L122.581 208.75L122.575 208.987ZM124.196 209.279L122.885 209.636L122.892 209.38L123.941 209.111L122.917 208.475L122.924 208.222L124.202 209.042L124.196 209.279Z" fill="#333333"/>
<ellipse rx="0.665716" ry="0.642948" transform="matrix(0.997729 0.0673589 -0.0722386 0.997387 110.782 206.748)" fill="#FDD300"/>
<path fill-rule="evenodd" clip-rule="evenodd" d="M100.138 221.622C101.687 220.71 103.462 220.25 105.259 220.296L115.155 220.549C117.583 220.611 119.517 223.541 117.69 225.14C116.889 225.841 112.829 227.069 112.829 227.069L98.2275 222.748L100.138 221.622Z" fill="#333333"/>
<path fill-rule="evenodd" clip-rule="evenodd" d="M113.961 223.343C114.172 223.246 114.286 223.144 114.286 223.038C114.286 222.428 110.539 221.934 105.916 221.934C101.294 221.934 97.5469 222.428 97.5469 223.038C97.5469 223.095 97.5807 223.152 97.6458 223.208C97.2454 223.633 97 224.206 97 224.836C97 226.147 98.063 227.21 99.3743 227.21H112.114C113.425 227.21 114.488 226.147 114.488 224.836C114.488 224.27 114.29 223.751 113.961 223.343Z" fill="#535151"/>
<ellipse cx="105.534" cy="224.769" rx="0.614911" ry="0.593678" fill="white"/>
</g>
<path fill-rule="evenodd" clip-rule="evenodd" d="M155.662 189.153H157.225V151.936H155.662V189.153Z" fill="#E5E9F2"/>
<path fill-rule="evenodd" clip-rule="evenodd" d="M149.953 154.448C148.875 154.448 148 153.572 148 152.496V138.952C148 137.875 148.875 137 149.953 137H163.497C164.573 137 165.448 137.875 165.448 138.952V152.496C165.448 153.572 164.573 154.448 163.497 154.448H149.953Z" fill="#3A3A3A"/>
<path fill-rule="evenodd" clip-rule="evenodd" d="M149.953 138.208C149.542 138.208 149.208 138.541 149.208 138.952V152.496C149.208 152.906 149.542 153.24 149.953 153.24H163.496C163.906 153.24 164.24 152.906 164.24 152.496V138.952C164.24 138.541 163.906 138.208 163.496 138.208H149.953ZM163.496 153.585H149.953C149.351 153.585 148.862 153.097 148.862 152.496V138.952C148.862 138.352 149.351 137.863 149.953 137.863H163.496C164.097 137.863 164.585 138.352 164.585 138.952V152.496C164.585 153.097 164.097 153.585 163.496 153.585Z" fill="white"/>
<path fill-rule="evenodd" clip-rule="evenodd" d="M158.73 148.399C156.321 149.576 156.906 152.508 156.906 152.508C151.928 149.084 152.207 143.942 152.207 143.942C152.206 141.518 153.948 139.467 156.282 139.145C158.616 138.824 160.821 140.33 161.44 142.669C162.059 145.009 160.9 147.458 158.73 148.399ZM156.906 147.217H157.003V147.212C158.75 147.157 160.128 145.664 160.092 143.865C160.056 142.066 158.619 140.633 156.871 140.653C155.124 140.672 153.718 142.137 153.72 143.937C153.72 144.339 153.79 144.737 153.929 145.113C154.41 146.376 155.589 147.209 156.906 147.217Z" fill="#FFD400"/>
<path d="M156.928 142.57C156.681 142.558 156.44 142.651 156.263 142.825C156.223 142.869 156.223 142.936 156.263 142.979C156.304 143.018 156.368 143.018 156.41 142.979C156.541 142.846 156.719 142.771 156.905 142.771C157.091 142.771 157.269 142.846 157.4 142.979C157.441 143.018 157.506 143.018 157.547 142.979C157.586 142.936 157.586 142.869 157.547 142.825C157.382 142.662 157.16 142.57 156.928 142.57Z" fill="white"/>
<path d="M157.266 141.814C156.892 141.806 156.531 141.953 156.265 142.223C156.245 142.243 156.233 142.271 156.233 142.3C156.233 142.329 156.245 142.357 156.265 142.377C156.306 142.416 156.369 142.416 156.409 142.377C156.865 141.913 157.601 141.913 158.057 142.377C158.081 142.413 158.125 142.431 158.167 142.421C158.209 142.411 158.241 142.375 158.247 142.331C158.253 142.287 158.232 142.244 158.194 142.223C157.946 141.971 157.615 141.825 157.266 141.814Z" fill="white"/>
<path fill-rule="evenodd" clip-rule="evenodd" d="M157.923 143.348C158.025 143.434 158.105 143.549 158.157 143.683C158.218 143.845 158.248 144.02 158.248 144.197C158.249 144.349 158.222 144.5 158.167 144.638C158.114 144.768 158.038 144.882 157.942 144.973C157.841 145.07 157.724 145.144 157.599 145.191C157.466 145.24 157.327 145.264 157.188 145.263H156.94V146.475H156.233V143.124H157.093C157.253 143.122 157.413 143.139 157.57 143.174C157.697 143.204 157.817 143.263 157.923 143.348ZM157.131 144.554C157.238 144.563 157.344 144.529 157.432 144.459C157.501 144.394 157.538 144.294 157.532 144.191C157.538 144.09 157.5 143.991 157.432 143.929C157.344 143.858 157.238 143.825 157.131 143.834H156.931V144.554H157.131Z" fill="white"/>
<rect x="299.939" y="265.098" width="5.08481" height="12.3799" transform="rotate(-30.8232 299.939 265.098)" fill="#95D8F3"/>
<rect x="280.648" y="265.424" width="5.58601" height="21.9835" transform="rotate(-30.8232 280.648 265.424)" fill="#95D8F3"/>
<rect x="290.35" y="270.783" width="13.1469" height="12.4098" transform="rotate(-30.8232 290.35 270.783)" fill="#95D8F3"/>
<rect x="291.168" y="277.957" width="6.20014" height="5.83017" transform="rotate(-30.8232 291.168 277.957)" fill="#7CB8E1"/>
<rect x="282.215" y="279.464" width="5.87441" height="9.12325" transform="rotate(-30.8232 282.215 279.464)" fill="#7CB8E1"/>
<path d="M271.762 224.776C273.532 224.933 274.796 226.997 274.586 229.385C274.376 231.773 272.771 233.581 271.001 233.424C269.232 233.266 267.967 231.203 268.176 228.814C268.386 226.426 269.992 224.618 271.762 224.776Z" fill="#FEB28B"/>
<path d="M277.177 239.285C277.177 239.285 284.575 242.924 289.87 256.369C291.519 260.552 293.161 271.67 291.135 272.879C289.109 274.088 280.879 279.12 276.31 278.655C272.016 278.218 266.48 277.102 264.09 273.096C261.7 269.09 256.035 261.758 252.839 258.836C249.452 255.742 246.26 253.412 244.639 252.067C243.352 251.003 246.517 246.912 254.008 251.374C257.087 253.208 260.623 254.411 265.022 251.423C269.422 248.434 277.177 239.285 277.177 239.285Z" fill="#FEB28B"/>
<rect x="273.723" y="276.974" width="19.1063" height="12.4322" transform="rotate(-30.8232 273.723 276.974)" fill="#FEB28B"/>
<path d="M249.072 249.433L259.456 262.791C259.456 262.791 258.991 255.662 255.976 252.547C253.327 249.811 249.072 249.433 249.072 249.433Z" fill="#FEB28B"/>
<path d="M267.325 271.876C267.925 272.882 271.423 275.677 273.082 274.687L288.031 265.768C289.689 264.779 290.55 263.154 289.95 262.147L277.626 241.493C277.025 240.486 275.186 240.472 273.528 241.461L258.579 250.38C256.92 251.37 256.06 252.996 256.661 254.003L267.325 271.876Z" fill="#F58D6F"/>
<path d="M287.72 263.791C289.38 262.799 289.922 260.648 288.931 258.985L268.613 224.933C267.621 223.269 265.469 222.723 263.806 223.713L248.858 232.632C247.198 233.625 246.656 235.775 247.647 237.439L267.966 271.494C268.96 273.155 271.109 273.7 272.771 272.711L287.72 263.791Z" fill="#333333"/>
<rect x="248.756" y="236.781" width="21.8344" height="38.0629" transform="rotate(-30.8232 248.756 236.781)" fill="white"/>
<path d="M254.931 231.072C254.987 231.166 255.077 231.233 255.183 231.26C255.288 231.287 255.4 231.271 255.494 231.216L259.408 228.88C259.502 228.824 259.57 228.733 259.597 228.627C259.624 228.521 259.607 228.409 259.551 228.315C259.495 228.222 259.404 228.154 259.298 228.128C259.192 228.101 259.081 228.118 258.987 228.174L255.074 230.509C254.88 230.625 254.817 230.876 254.933 231.071L254.931 231.072Z" fill="#4C4B4B"/>
<path d="M276.588 267.371C276.49 267.207 276.461 267.011 276.508 266.826C276.554 266.64 276.673 266.481 276.837 266.383L280.218 264.365C280.56 264.162 281.003 264.274 281.207 264.616C281.41 264.958 281.298 265.4 280.957 265.604L277.576 267.621C277.234 267.825 276.792 267.713 276.588 267.371L276.588 267.371Z" fill="#4C4B4B"/>
<rect x="248.754" y="236.781" width="21.8344" height="38.0629" transform="rotate(-30.8232 248.754 236.781)" fill="white"/>
<rect opacity="0.5" x="265.082" y="258.329" width="15.8751" height="4.88729" rx="2.44365" transform="rotate(-30.8232 265.082 258.329)" fill="black"/>
<path d="M266.871 256.565L276.312 250.932C277.47 250.241 278.969 250.621 279.661 251.78C280.352 252.939 279.974 254.438 278.816 255.129L269.376 260.762C268.218 261.452 266.719 261.073 266.027 259.914C265.336 258.755 265.714 257.255 266.871 256.565Z" fill="#231F20"/>
<path opacity="0.39" d="M274.141 242.531C273.058 240.716 269.126 241.062 265.366 243.306C261.605 245.55 259.431 248.843 260.516 250.661C261.601 252.479 265.528 252.127 269.289 249.882C273.051 247.638 275.225 244.346 274.141 242.531Z" fill="#7CB8E1"/>
<path d="M269.619 244.813C269.225 244.153 267.798 244.28 266.43 245.097C265.062 245.913 264.272 247.109 264.666 247.769C265.059 248.428 266.487 248.301 267.855 247.485C269.222 246.669 270.013 245.474 269.619 244.813Z" fill="#4192D4"/>
<ellipse cx="262.347" cy="238.256" rx="2.884" ry="2.88752" transform="rotate(-30.8232 262.347 238.256)" fill="white"/>
<path d="M291.932 254.385C292.21 255.107 292.19 255.909 291.876 256.616C291.562 257.323 290.981 257.875 290.259 258.152L284.91 260.209C284.188 260.487 283.385 260.467 282.678 260.152C281.97 259.837 281.417 259.253 281.14 258.53C280.862 257.809 280.882 257.008 281.194 256.302C281.507 255.596 282.087 255.044 282.807 254.767L288.161 252.708C289.663 252.131 291.349 252.88 291.93 254.382L291.932 254.385Z" fill="#FEB28B"/>
<path d="M284.91 260.209L290.259 258.152C290.981 257.875 291.562 257.323 291.876 256.616C292.19 255.91 292.21 255.107 291.932 254.385L281.144 258.536C281.724 260.038 283.409 260.787 284.91 260.209Z" fill="#F58D6F"/>
<path opacity="0.3" d="M285.351 259.197L284.636 259.473C284.109 259.676 283.523 259.661 283.006 259.432C282.49 259.202 282.086 258.777 281.883 258.249C281.68 257.722 281.695 257.136 281.924 256.621C282.153 256.105 282.578 255.702 283.104 255.5L283.82 255.225C284.917 254.803 285.405 255.225 285.966 256.68C286.527 258.136 286.448 258.776 285.351 259.197Z" fill="white"/>
<path d="M289.126 246.909C289.576 247.661 289.708 248.561 289.494 249.41C289.281 250.259 288.739 250.988 287.988 251.437L281.456 255.334C280.705 255.782 279.806 255.913 278.957 255.698C278.108 255.482 277.38 254.938 276.931 254.186C276.483 253.434 276.351 252.535 276.565 251.686C276.779 250.838 277.321 250.11 278.072 249.662L284.603 245.765C286.167 244.832 288.191 245.345 289.126 246.909Z" fill="#FEB28B"/>
<path d="M281.458 255.338L287.99 251.441C288.742 250.992 289.284 250.262 289.497 249.412C289.71 248.562 289.577 247.662 289.127 246.91L276.932 254.186C277.379 254.94 278.108 255.485 278.957 255.701C279.807 255.917 280.706 255.786 281.458 255.338Z" fill="#F58D6F"/>
<path opacity="0.3" d="M282.103 253.914L281.009 254.567C280.46 254.895 279.803 254.991 279.183 254.833C278.563 254.676 278.031 254.278 277.704 253.728C277.022 252.585 277.395 251.106 278.537 250.424L279.631 249.771C280.774 249.089 281.397 249.468 282.302 250.985C283.207 252.501 283.246 253.232 282.103 253.914Z" fill="white"/>
<path d="M284.907 238.683C285.53 239.378 285.852 240.292 285.801 241.223C285.751 242.155 285.333 243.028 284.638 243.65L278.197 249.42C276.752 250.714 274.532 250.589 273.237 249.142C272.615 248.447 272.294 247.533 272.344 246.602C272.395 245.67 272.813 244.798 273.508 244.176L279.948 238.405C280.642 237.783 281.555 237.463 282.485 237.514C283.416 237.566 284.288 237.986 284.91 238.681L284.907 238.683Z" fill="#FEB28B"/>
<path d="M278.198 249.42L284.638 243.65C285.333 243.028 285.751 242.155 285.801 241.224C285.852 240.292 285.53 239.378 284.907 238.683L273.237 249.142C274.532 250.589 276.752 250.714 278.198 249.42Z" fill="#F58D6F"/>
<path opacity="0.3" d="M278.729 247.667L277.571 248.705C277.065 249.161 276.398 249.397 275.717 249.359C275.037 249.322 274.399 249.015 273.945 248.506C273.49 247.998 273.255 247.331 273.292 246.651C273.329 245.97 273.635 245.333 274.142 244.879L275.301 243.841C276.356 242.896 277.087 243.165 278.342 244.566C279.597 245.966 279.782 246.719 278.729 247.667Z" fill="white"/>
<path d="M275.351 281.887C275.351 281.887 280.044 282.767 286.947 278.649C293.85 274.53 293.158 269.048 293.158 269.048L329.465 319.879C329.465 319.879 324.244 323.845 315.748 328.183C308.334 331.968 296.418 325.446 296.418 325.446L275.351 281.887Z" fill="#333333"/>
<path d="M300.449 258.995C300.129 259.427 299.902 259.921 299.782 260.445C298.21 260.02 296.538 260.599 295.567 261.906C295.21 262.388 294.969 262.946 294.861 263.537C293.399 263.296 291.926 263.892 291.043 265.082C290.776 265.444 290.287 266.232 290.16 266.638L278.311 258.83C276.542 257.521 271.656 253.702 269.63 256.443C267.605 259.183 272.879 262.476 274.649 263.786L295.219 279.018L291.206 280.324C291.176 280.327 291.146 280.33 291.117 280.335C290.068 280.492 287.338 280.377 284.132 281.284C281.548 282.014 277.69 285.694 281.355 286.36C284.646 286.956 288.185 286.679 290.564 286.966C293.642 287.336 297.74 287.771 300.415 287.924C302.372 288.036 304.219 288.14 305.691 288.306C306.089 288.35 306.829 288.473 307.661 288.62C310.184 289.067 312.741 288.047 314.263 285.986L319.565 278.813C321.366 276.377 320.955 273.278 319.455 270.642C318.188 268.414 317.473 267.209 314.633 264.564C311.793 261.919 306.013 258.181 306.013 258.181C304.25 256.87 301.761 257.232 300.447 258.992L300.449 258.995Z" fill="#FEB28B"/>
<path d="M309.116 285.68L319.137 272.123L327.95 278.649L317.929 292.206L309.116 285.68Z" fill="#FEB28B"/>
<path opacity="0.3" d="M274.008 256.909L273.054 256.203C272.589 255.857 272.006 255.71 271.434 255.795C270.861 255.88 270.346 256.19 270.003 256.656C269.661 257.12 269.516 257.701 269.602 258.272C269.688 258.843 269.997 259.357 270.461 259.7L271.416 260.407C272.385 261.121 272.978 260.84 273.926 259.562C274.875 258.284 274.972 257.621 274.008 256.909Z" fill="white"/>
<path opacity="0.3" d="M285.84 286.79C285.84 286.79 285.167 285.232 283.727 285.18C282.577 285.133 280.972 285.144 280.5 285.199C280.027 285.253 280.445 286.403 280.445 286.403L285.84 286.79Z" fill="white"/>
<path d="M323.172 272.272C323.172 272.272 322.878 279.557 319.586 284.875C317.59 288.1 313.755 292.097 313.755 292.097L334.826 317.393C334.826 317.393 339.365 315.685 345.872 309.879C352.38 304.074 354.179 292.781 354.179 292.781L323.172 272.272Z" fill="#333333"/>
<path fill-rule="evenodd" clip-rule="evenodd" d="M267.476 241.782C265.829 244.171 267.914 246.419 267.914 246.419C261.44 246.202 259.003 241.524 259.003 241.524C257.602 239.176 258.444 236.092 260.883 234.636C263.323 233.181 266.437 233.904 267.838 236.252C268.889 238.014 268.678 240.19 267.476 241.782ZM265.21 241.729C265.217 241.724 265.225 241.719 265.233 241.714C266.815 240.705 267.347 238.664 266.415 237.102C265.465 235.51 263.354 235.019 261.699 236.006C260.045 236.993 259.474 239.085 260.424 240.677C260.642 241.042 260.921 241.349 261.242 241.593C262.319 242.416 263.865 242.534 265.14 241.773C265.164 241.759 265.187 241.744 265.21 241.729Z" fill="#FCD205"/>
<path d="M262.186 236.616C261.833 236.819 261.56 237.159 261.447 237.585C261.434 237.632 261.463 237.681 261.51 237.695C261.557 237.707 261.606 237.68 261.619 237.632C261.719 237.253 261.962 236.952 262.275 236.771C262.59 236.59 262.973 236.529 263.353 236.633C263.401 236.647 263.449 236.618 263.462 236.571C263.474 236.524 263.446 236.474 263.398 236.461C262.971 236.344 262.539 236.413 262.186 236.616Z" fill="#515257"/>
<path d="M262.665 237.444C262.491 237.544 262.354 237.71 262.297 237.918C262.284 237.966 262.312 238.015 262.36 238.027C262.408 238.04 262.457 238.011 262.47 237.963C262.515 237.803 262.62 237.675 262.753 237.598C262.888 237.52 263.051 237.494 263.212 237.536C263.26 237.548 263.309 237.519 263.323 237.472C263.336 237.424 263.308 237.376 263.259 237.363C263.052 237.309 262.839 237.343 262.665 237.444Z" fill="#515257"/>
<path d="M262.407 237.07C262.144 237.221 261.937 237.472 261.851 237.785C261.837 237.832 261.865 237.88 261.912 237.893C261.959 237.904 262.008 237.877 262.02 237.829C262.095 237.563 262.27 237.351 262.495 237.221C262.719 237.092 262.99 237.047 263.258 237.117C263.305 237.128 263.354 237.1 263.367 237.053C263.38 237.006 263.353 236.958 263.305 236.947C262.991 236.865 262.67 236.919 262.407 237.07Z" fill="#515257"/>
<path fill-rule="evenodd" clip-rule="evenodd" d="M264.053 237.773C264.196 237.781 264.33 237.828 264.456 237.914C264.583 237.999 264.696 238.128 264.798 238.298C264.882 238.438 264.929 238.58 264.94 238.724C264.95 238.867 264.931 239.008 264.879 239.145C264.827 239.284 264.747 239.415 264.638 239.536C264.527 239.66 264.398 239.765 264.252 239.852L263.999 240.004L264.609 241.027L263.887 241.458L262.194 238.621L263.072 238.097C263.268 237.98 263.444 237.896 263.6 237.843C263.758 237.788 263.909 237.765 264.053 237.773ZM263.846 239.278C263.979 239.199 264.065 239.111 264.105 239.015C264.144 238.921 264.134 238.824 264.075 238.724C264.016 238.627 263.937 238.573 263.835 238.563C263.733 238.554 263.615 238.589 263.482 238.668L263.275 238.792L263.639 239.402L263.846 239.278Z" fill="#515257"/>
<path d="M229.666 215.287C232.946 202.615 245.842 195.096 258.489 198.482" stroke="#0A7BC0" stroke-width="3.64583" stroke-linecap="round"/>
<path d="M237.454 219.04C239.501 209.488 248.715 204.128 258.054 207.057" stroke="#0A7BC0" stroke-width="3.64583" stroke-linecap="round"/>
<path d="M244.046 220.786C245.376 215.229 250.904 212.009 256.401 213.588" stroke="#0A7BC0" stroke-width="3.64583" stroke-linecap="round"/>
</g>
<defs>
<linearGradient id="paint0_linear_48_5905" x1="197.338" y1="108.606" x2="190.582" y2="153.324" gradientUnits="userSpaceOnUse">
<stop stop-color="#FDC602"/>
<stop offset="1" stop-color="#FDC602"/>
</linearGradient>
<linearGradient id="paint1_linear_48_5905" x1="228.159" y1="205.835" x2="229.587" y2="258.675" gradientUnits="userSpaceOnUse">
<stop stop-color="#FDC602"/>
<stop offset="1" stop-color="#E9605A"/>
</linearGradient>
<linearGradient id="paint2_linear_48_5905" x1="195.324" y1="189.439" x2="203.999" y2="189.439" gradientUnits="userSpaceOnUse">
<stop stop-color="#FFD300"/>
<stop offset="0.432292" stop-color="#FCDA92"/>
<stop offset="0.994792" stop-color="#FDE513"/>
</linearGradient>
<linearGradient id="paint3_linear_48_5905" x1="252.301" y1="189.526" x2="260.975" y2="189.526" gradientUnits="userSpaceOnUse">
<stop stop-color="#FFD300"/>
<stop offset="0.432292" stop-color="#FCDA92"/>
<stop offset="0.994792" stop-color="#FDE513"/>
</linearGradient>
<linearGradient id="paint4_linear_48_5905" x1="103.519" y1="205.241" x2="103.519" y2="216.673" gradientUnits="userSpaceOnUse">
<stop stop-color="#FFD300"/>
<stop offset="1" stop-color="#FFB500"/>
</linearGradient>
<clipPath id="clip0_48_5905">
<rect width="390" height="336" fill="white"/>
</clipPath>
<clipPath id="clip1_48_5905">
<rect width="24.4831" height="42.3975" fill="white" transform="translate(97 185)"/>
</clipPath>
</defs>
</svg>
