<svg width="124" height="38" viewBox="0 0 124 38" fill="none" xmlns="http://www.w3.org/2000/svg">
<path d="M7.96261 37.5069C7.64249 37.5069 7.32964 37.5036 7.01194 37.4969C6.35311 37.4885 5.6967 37.4349 5.04595 37.3362C4.43966 37.2391 3.85277 37.0584 3.30388 36.799C2.75983 36.5429 2.26429 36.2057 1.83504 35.8024C1.39932 35.4033 1.03716 34.9406 0.7615 34.4335C0.483415 33.9214 0.291019 33.3741 0.190779 32.8077C0.0824554 32.2002 0.0242516 31.586 0.0153593 30.9693C0.00889225 30.7626 0 30.074 0 30.074V7.42373C0 7.42373 0.00970064 6.74512 0.0161677 6.54513C0.0242516 5.93095 0.081647 5.31677 0.189971 4.71012C0.290211 4.1428 0.482607 3.59304 0.7615 3.08011C1.03554 2.57303 1.39608 2.10947 1.82857 1.7095C2.26106 1.30534 2.75821 0.967294 3.30388 0.707062C3.85115 0.448503 4.43723 0.2686 5.0411 0.172372C5.69427 0.0736348 6.35392 0.0192455 7.01437 0.0117146L7.96341 0H116.033L116.993 0.0125514C117.648 0.0192455 118.301 0.0727981 118.947 0.171536C119.558 0.2686 120.15 0.44934 120.704 0.708735C121.796 1.23338 122.683 2.06345 123.243 3.08178C123.518 3.59137 123.707 4.1361 123.807 4.69924C123.916 5.31007 123.977 5.92928 123.99 6.54931C123.992 6.82712 123.992 7.12501 123.992 7.42205C124 7.79023 124 8.13999 124 8.49311V29.0146C124 29.3711 124 29.7192 123.992 30.0689C123.992 30.3886 123.992 30.6798 123.988 30.981C123.976 31.5902 123.915 32.1977 123.808 32.7985C123.711 33.3674 123.519 33.9205 123.241 34.436C122.964 34.938 122.602 35.3974 122.173 35.7949C121.743 36.2007 121.246 36.5396 120.702 36.7973C120.149 37.0584 119.557 37.2408 118.948 37.3362C118.297 37.4358 117.64 37.4893 116.982 37.4969C116.674 37.5036 116.351 37.5069 116.037 37.5069L114.898 37.5086L7.9618 37.5069H7.96261Z" fill="url(#paint0_linear_1_25209)"/>
<path d="M22.8866 19.0492C22.9076 17.3857 23.7596 15.8486 25.1436 14.9775C24.2665 13.6947 22.8502 12.9107 21.3215 12.8622C19.7128 12.689 18.1543 13.847 17.3346 13.847C16.4987 13.847 15.2368 12.8789 13.8787 12.9073C12.0906 12.9668 10.4641 13.9826 9.59427 15.5825C7.74225 18.8659 9.12378 23.6907 10.8982 26.3457C11.7858 27.6452 12.8238 29.097 14.1802 29.0451C15.5092 28.989 16.0056 28.1782 17.6094 28.1782C19.1979 28.1782 19.6627 29.0451 21.0483 29.0125C22.4735 28.989 23.3716 27.7071 24.2285 26.3951C24.8671 25.4688 25.357 24.4454 25.6828 23.3627C23.99 22.6297 22.889 20.931 22.8866 19.0492ZM20.2706 11.1167C21.0483 10.1611 21.4307 8.93274 21.3377 7.69434C20.151 7.82152 19.054 8.40223 18.2658 9.321C17.4882 10.2272 17.0937 11.4129 17.1705 12.6178C18.3741 12.6295 19.5164 12.0764 20.2706 11.1167Z" fill="white"/>
<path d="M39.679 25.7559H35.1455L34.0574 29.0468H32.1367L36.4309 16.8703H38.426L42.7201 29.0468H40.7671L39.679 25.7559ZM35.616 24.2372H39.2093L37.4373 18.8953H37.388L35.6152 24.2372H35.616ZM51.9939 24.6087C51.9939 27.3675 50.551 29.1397 48.3748 29.1397C47.2495 29.2 46.1897 28.5967 45.6465 27.5867H45.6052V31.9839H43.8252V20.1688H45.5478V21.6457H45.5802C46.1485 20.6416 47.2091 20.0391 48.3416 20.0759C50.5429 20.0759 51.9931 21.8574 51.9931 24.6087H51.9939ZM50.1637 24.6087C50.1637 22.8113 49.2567 21.6298 47.872 21.6298C46.5123 21.6298 45.598 22.8364 45.598 24.6087C45.598 26.3977 46.5123 27.5959 47.872 27.5959C49.2567 27.5959 50.1637 26.4219 50.1637 24.6087ZM61.5369 24.6087C61.5369 27.3675 60.0948 29.1397 57.9186 29.1397C56.7933 29.2 55.7335 28.5967 55.1903 27.5867H55.1491V31.9839H53.3682V20.1688H55.0908V21.6457H55.1232C55.6915 20.6416 56.7521 20.0391 57.8846 20.0759C60.0859 20.0759 61.5361 21.8574 61.5361 24.6087H61.5369ZM59.7075 24.6087C59.7075 22.8113 58.8005 21.6298 57.4158 21.6298C56.0561 21.6298 55.1418 22.8364 55.1418 24.6087C55.1418 26.3977 56.0561 27.5959 57.4158 27.5959C58.8005 27.5959 59.7075 26.4219 59.7075 24.6087ZM67.8448 25.6546C67.9765 26.8621 69.122 27.6545 70.6879 27.6545C72.1882 27.6545 73.2674 26.8621 73.2674 25.7726C73.2674 24.8271 72.6167 24.2623 71.0751 23.874L69.5335 23.4941C67.35 22.9536 66.3363 21.9085 66.3363 20.2115C66.3363 18.1104 68.1245 16.667 70.6636 16.667C73.1769 16.667 74.8996 18.1104 74.9578 20.2115H73.1607C73.0532 18.9957 72.0718 18.2619 70.6385 18.2619C69.2045 18.2619 68.2231 19.0049 68.2231 20.0852C68.2231 20.9453 68.8504 21.4524 70.3831 21.8398L71.6927 22.1695C74.134 22.7603 75.1477 23.7635 75.1477 25.545C75.1477 27.8235 73.3749 29.2502 70.5561 29.2502C67.9183 29.2502 66.1375 27.857 66.0227 25.6538H67.8448V25.6546ZM78.9884 18.0686V20.1688H80.6375V21.6122H78.9884V26.5073C78.9884 27.2671 79.319 27.621 80.0441 27.621C80.2397 27.6177 80.4346 27.6043 80.6294 27.5792V29.0134C80.3036 29.0761 79.9722 29.1037 79.6407 29.0971C77.8849 29.0971 77.2002 28.4226 77.2002 26.7006V21.6122H75.9391V20.1688H77.2002V18.0686H78.9884ZM81.593 24.6087C81.593 21.8156 83.1993 20.0601 85.7053 20.0601C88.2193 20.0601 89.8183 21.8156 89.8183 24.6087C89.8183 27.4093 88.2274 29.1573 85.7053 29.1573C83.1831 29.1573 81.593 27.4093 81.593 24.6087ZM88.0051 24.6087C88.0051 22.6925 87.1474 21.5612 85.7053 21.5612C84.2631 21.5612 83.4062 22.7009 83.4062 24.6087C83.4062 26.5324 84.2631 27.6545 85.7053 27.6545C87.1474 27.6545 88.0051 26.5324 88.0051 24.6087ZM91.2864 20.1688H92.984V21.68H93.0244C93.2612 20.7077 94.1319 20.0383 95.11 20.0759C95.3153 20.0759 95.5199 20.0985 95.7204 20.1446V21.849C95.4617 21.7679 95.1909 21.7302 94.92 21.7386C94.397 21.7168 93.891 21.931 93.5345 22.3235C93.178 22.7159 93.0066 23.2481 93.0656 23.7811V29.0468H91.2864V20.1688ZM103.926 26.4395C103.687 28.0511 102.154 29.1573 100.193 29.1573C97.671 29.1573 96.1043 27.4269 96.1043 24.6505C96.1043 21.8658 97.6791 20.0601 100.118 20.0601C102.517 20.0601 104.026 21.747 104.026 24.4388V25.063H97.9014V25.1735C97.8448 25.8345 98.0671 26.4889 98.5133 26.97C98.9596 27.4511 99.5861 27.7122 100.234 27.6879C101.098 27.7716 101.912 27.2629 102.237 26.4395H103.926ZM97.9103 23.7895H102.246C102.278 23.1954 102.067 22.6155 101.664 22.1871C101.259 21.7603 100.7 21.5235 100.12 21.5369C99.5335 21.5327 98.9709 21.7687 98.5562 22.1921C98.1415 22.6155 97.9095 23.1904 97.9103 23.7903V23.7895Z" fill="white"/>
<path d="M35.306 7.88605C36.0626 7.82748 36.8031 8.13541 37.3237 8.72281C37.8451 9.31189 38.0917 10.1185 37.9963 10.9227C37.9963 12.8748 37.0101 13.9969 35.3068 13.9969H33.2422V7.88605H35.306ZM34.1298 13.1325H35.2074C35.7474 13.1677 36.2744 12.9401 36.6398 12.5133C37.0052 12.0866 37.1718 11.5075 37.0925 10.9352C37.1653 10.3645 36.9971 9.78968 36.6318 9.36712C36.268 8.94372 35.745 8.71779 35.2074 8.74959H34.1298V13.1325ZM39.0003 11.6891C38.926 10.8624 39.2962 10.0625 39.9566 9.62484C40.6163 9.18638 41.4522 9.18638 42.1118 9.62484C42.7714 10.0625 43.1425 10.8624 43.0689 11.6891C43.1441 12.5167 42.7739 13.3183 42.1126 13.7568C41.4522 14.1961 40.6163 14.1961 39.955 13.7568C39.2946 13.3183 38.9243 12.5175 39.0003 11.6891ZM42.1934 11.6891C42.1934 10.6892 41.7731 10.1051 41.0358 10.1051C40.2954 10.1051 39.8798 10.6892 39.8798 11.6891C39.8798 12.6966 40.2954 13.2765 41.0358 13.2765C41.7731 13.2765 42.1926 12.6924 42.1926 11.6891H42.1934ZM48.477 13.9969H47.5943L46.7026 10.6005H46.6355L45.7471 13.9969H44.8724L43.6833 9.38469H44.5467L45.3195 12.9041H45.3833L46.2701 9.38469H47.0874L47.9742 12.9041H48.0413L48.8101 9.38469H49.6621L48.477 13.9969ZM50.6621 9.38469H51.4818V10.1177H51.5457C51.7664 9.57798 52.2837 9.2483 52.8326 9.29599C53.2578 9.26252 53.675 9.43657 53.9644 9.7696C54.2554 10.1043 54.388 10.5603 54.3257 11.0114V13.9969H53.4745V11.2398C53.4745 10.4984 53.173 10.1302 52.5432 10.1302C52.2554 10.116 51.9749 10.2365 51.7777 10.4616C51.5796 10.6859 51.4826 10.9921 51.5133 11.2984V13.9969H50.6621V9.38469ZM55.6822 7.58482H56.5342V13.9969H55.6822V7.58482ZM57.7177 11.6891C57.6433 10.8624 58.0144 10.0625 58.6748 9.62484C59.3345 9.18638 60.1703 9.18638 60.83 9.62484C61.4904 10.0625 61.8607 10.8624 61.7871 11.6891C61.8623 12.5167 61.4921 13.3183 60.8308 13.7568C60.1703 14.1961 59.3345 14.1961 58.6732 13.7568C58.0128 13.3183 57.6425 12.5167 57.7177 11.6891ZM60.9108 11.6891C60.9108 10.6892 60.4905 10.1051 59.7532 10.1051C59.0135 10.1051 58.5972 10.6892 58.5972 11.6891C58.5972 12.6966 59.0135 13.2765 59.7532 13.2765C60.4905 13.2765 60.9108 12.6924 60.9108 11.6891ZM62.6836 12.6932C62.6836 11.8623 63.2616 11.3837 64.2883 11.3159L65.4564 11.244V10.8457C65.4564 10.3587 65.1549 10.0842 64.5736 10.0842C64.0983 10.0842 63.7685 10.27 63.6739 10.5963H62.8493C62.9366 9.80391 63.6335 9.29599 64.6124 9.29599C65.694 9.29599 66.3044 9.87168 66.3044 10.8457V13.9969H65.4847V13.3493H65.4176C65.1387 13.822 64.644 14.099 64.1217 14.0731C63.7547 14.1141 63.3901 13.9869 63.1161 13.7241C62.8413 13.4614 62.6844 13.0865 62.6836 12.6924V12.6932ZM65.4564 12.2983V11.9134L64.4031 11.9853C63.8089 12.0272 63.5397 12.2439 63.5397 12.6506C63.5397 13.0656 63.876 13.3066 64.34 13.3066C64.6132 13.3367 64.8873 13.2463 65.0975 13.0556C65.3084 12.8656 65.4378 12.5928 65.4564 12.2983ZM67.4232 11.6891C67.4232 10.2315 68.1241 9.30855 69.2138 9.30855C69.7643 9.28177 70.28 9.59639 70.5371 10.1177H70.6001V7.58482H71.4522V13.9969H70.6357V13.2689H70.5686C70.2921 13.7852 69.7699 14.0948 69.2138 14.0722C68.1168 14.0731 67.4232 13.1501 67.4232 11.6891ZM68.3027 11.6891C68.3027 12.6673 68.7336 13.2555 69.4555 13.2555C70.1725 13.2555 70.6163 12.6589 70.6163 11.6933C70.6163 10.7319 70.1685 10.1261 69.4555 10.1261C68.7384 10.1261 68.3027 10.7185 68.3027 11.6891ZM74.9743 11.6891C74.9008 10.8624 75.271 10.0625 75.9314 9.62484C76.5911 9.18638 77.427 9.18638 78.0866 9.62484C78.7463 10.0625 79.1173 10.8624 79.0437 11.6891C79.1189 12.5167 78.7487 13.3183 78.0874 13.7568C77.427 14.1961 76.5911 14.1961 75.9298 13.7568C75.2694 13.3183 74.8991 12.5167 74.9743 11.6891ZM78.1674 11.6891C78.1674 10.6892 77.7471 10.1051 77.0106 10.1051C76.2702 10.1051 75.8547 10.6892 75.8547 11.6891C75.8547 12.6966 76.2702 13.2765 77.0106 13.2765C77.7479 13.2765 78.1674 12.6924 78.1674 11.6891ZM80.186 9.38469H81.0057V10.1177H81.0687C81.2902 9.57798 81.8076 9.2483 82.3565 9.29599C82.7817 9.26252 83.198 9.43657 83.4882 9.7696C83.7793 10.1043 83.9118 10.5603 83.8496 11.0114V13.9969H82.9984V11.2398C82.9984 10.4984 82.6968 10.1302 82.0671 10.1302C81.7793 10.116 81.4988 10.2365 81.3008 10.4616C81.1027 10.6859 81.0065 10.9921 81.0372 11.2984V13.9969H80.186V9.38469ZM88.6603 8.23666V9.40645H89.5956V10.1729H88.6595V12.5443C88.6595 13.0271 88.8454 13.2388 89.2698 13.2388C89.3782 13.2388 89.4865 13.2313 89.5948 13.2179V13.976C89.4412 14.0053 89.2868 14.0212 89.1316 14.0228C88.1842 14.0228 87.8075 13.6664 87.8075 12.7769V10.1729H87.1236V9.40645H87.8083V8.23666H88.6603ZM90.7581 7.58482H91.602V10.1261H91.6699C91.9011 9.58217 92.4274 9.25165 92.9852 9.30018C93.408 9.27507 93.8186 9.4533 94.1064 9.7855C94.3934 10.1185 94.5268 10.5704 94.4702 11.0197V13.9969H93.6181V11.244C93.6181 10.5076 93.2972 10.1344 92.6966 10.1344C92.3999 10.1085 92.1081 10.2231 91.8987 10.449C91.6885 10.675 91.5834 10.9871 91.6101 11.3034V13.9986H90.7581V7.58398V7.58482ZM99.4353 12.7518C99.1968 13.622 98.4086 14.1835 97.5655 14.0856C96.9907 14.1023 96.4378 13.8471 96.0538 13.3886C95.6698 12.9309 95.4944 12.315 95.5728 11.7059C95.496 11.095 95.6714 10.4775 96.053 10.0156C96.4346 9.55372 96.9851 9.29097 97.5623 9.29599C98.7627 9.29599 99.4862 10.1729 99.4862 11.6213V11.9393H96.4402V11.9895C96.4135 12.3326 96.5227 12.6706 96.7417 12.9217C96.96 13.1727 97.2672 13.3149 97.5889 13.3108C98.0061 13.3643 98.4111 13.1434 98.6156 12.7518H99.4353ZM96.4402 11.2657H98.6196C98.6406 10.9528 98.5388 10.644 98.3359 10.4164C98.1338 10.1888 97.8509 10.0633 97.5574 10.0708C97.2599 10.0666 96.9738 10.1913 96.7628 10.4164C96.5526 10.6415 96.4362 10.9478 96.4402 11.2657Z" fill="white"/>
<defs>
<linearGradient id="paint0_linear_1_25209" x1="62" y1="0" x2="62" y2="37.5086" gradientUnits="userSpaceOnUse">
<stop/>
<stop offset="1"/>
</linearGradient>
</defs>
</svg>
