<svg width="116" height="25" viewBox="0 0 116 25" fill="none" xmlns="http://www.w3.org/2000/svg">
<path fill-rule="evenodd" clip-rule="evenodd" d="M28.9125 11.3242C29.6695 12.0032 30.2564 12.7813 30.6715 13.6556C31.0941 14.5594 31.3055 15.5328 31.3055 16.5794L31.292 23.5632L27.0065 23.5223V23.1204C26.7183 23.2451 26.506 23.3309 26.3715 23.3747C25.4157 23.7394 24.4156 23.9242 23.3695 23.9242C21.9899 23.9242 20.6883 23.6071 19.4624 22.9737C18.2357 22.3299 17.2625 21.4537 16.542 20.3461C15.811 19.2194 15.4459 17.9632 15.4459 16.5794C15.4459 15.5328 15.6582 14.5594 16.0819 13.6556C16.5046 12.7623 17.0867 11.9851 17.8255 11.3242C18.5565 10.6623 19.4038 10.1585 20.3684 9.808C21.3319 9.44324 22.3329 9.25943 23.3695 9.25943C24.3964 9.25943 25.3974 9.43848 26.3715 9.79562C27.3447 10.1537 28.192 10.6623 28.9125 11.3242ZM23.3695 20.049C24.3522 20.049 25.1995 19.7118 25.9114 19.0309C26.6319 18.3442 26.9931 17.5261 26.9931 16.5794C26.9931 15.9537 26.8269 15.3775 26.4926 14.849C26.1592 14.3232 25.7135 13.9032 25.1534 13.5899C24.6039 13.2871 24.0093 13.1337 23.3695 13.1337C22.7479 13.1337 22.1571 13.2871 21.599 13.5899C21.0389 13.9032 20.5931 14.3232 20.2598 14.849C19.9264 15.3775 19.7593 15.9537 19.7593 16.5794C19.7593 17.5261 20.1195 18.3442 20.841 19.0309C21.5528 19.7118 22.3963 20.049 23.3695 20.049Z" fill="black"/>
<path d="M43.1376 4.35459C42.7956 4.15745 42.4161 4.05935 42.0011 4.05935C41.5871 4.05935 41.2124 4.15745 40.88 4.35459C40.5448 4.55078 40.271 4.82316 40.0548 5.17269C39.856 5.51269 39.757 5.88697 39.757 6.2984C39.757 6.69935 39.8598 7.08031 40.0692 7.43745C40.2662 7.77745 40.5361 8.05078 40.88 8.25554C41.2124 8.45269 41.5871 8.55078 42.0011 8.55078C42.4161 8.55078 42.7956 8.44697 43.1376 8.24126C43.4796 8.03554 43.7505 7.76792 43.9494 7.43745C44.1473 7.10697 44.2462 6.72792 44.2462 6.2984C44.2462 5.88697 44.1473 5.51269 43.9494 5.17269C43.7409 4.82316 43.4709 4.55078 43.1376 4.35459" fill="black"/>
<path d="M39.9198 23.5482H44.2331V9.80822L39.9198 9.82251V23.5482Z" fill="black"/>
<path d="M37.9586 9.80839C33.9747 10.0055 31.9823 12.0551 31.9823 15.9608V23.5551H36.3091V15.9608C36.3091 14.4865 36.8586 13.7265 37.9586 13.6817H38.2016C38.5619 13.7008 38.8549 13.7855 39.0797 13.937V9.88839C38.7915 9.84458 38.4994 9.81791 38.2016 9.80839H37.9586Z" fill="black"/>
<path d="M85.1732 9.80839C81.1893 10.0055 79.1969 12.0551 79.1969 15.9608V23.5551H83.5237V15.9608C83.5237 14.4865 84.0732 13.7265 85.1732 13.6817H85.4162C85.7765 13.7008 86.0695 13.7855 86.2943 13.937V9.88839C86.0061 9.84458 85.714 9.81791 85.4162 9.80839H85.1732Z" fill="black"/>
<path d="M113.594 9.80839C109.61 10.0055 107.618 12.0551 107.618 15.9608V23.5551H111.945V15.9608C111.945 14.4865 112.494 13.7265 113.594 13.6817H113.837C114.199 13.7008 114.491 13.7855 114.715 13.937V9.88839C114.428 9.84458 114.135 9.81791 113.837 9.80839H113.594Z" fill="black"/>
<path d="M105.833 4.35459C105.491 4.15745 105.112 4.05935 104.698 4.05935C104.283 4.05935 103.908 4.15745 103.576 4.35459C103.242 4.55078 102.967 4.82316 102.751 5.17269C102.552 5.51269 102.453 5.88697 102.453 6.2984C102.453 6.69935 102.556 7.08031 102.764 7.43745C102.961 7.77745 103.232 8.05078 103.576 8.25554C103.908 8.45269 104.283 8.55078 104.698 8.55078C105.112 8.55078 105.491 8.44697 105.833 8.24126C106.175 8.03554 106.446 7.76792 106.644 7.43745C106.842 7.10697 106.942 6.72792 106.942 6.2984C106.942 5.88697 106.842 5.51269 106.644 5.17269C106.437 4.82316 106.166 4.55078 105.833 4.35459" fill="black"/>
<path d="M100.898 9.8084H95.829L91.3532 15.0093H91.2985V4.50078L86.9717 4.51411V23.5217H91.2985V16.7932L96.3833 23.5217H101.778L95.8962 15.6951L100.898 9.8084Z" fill="black"/>
<path d="M102.615 23.5482H106.93V9.80822L102.615 9.82251V23.5482Z" fill="black"/>
<path fill-rule="evenodd" clip-rule="evenodd" d="M76.1276 11.3242C76.8846 12.0032 77.4706 12.7813 77.8856 13.6556C78.3093 14.5594 78.5206 15.5328 78.5206 16.5794L78.5072 23.5632L74.2217 23.5223V23.1204C73.9315 23.2451 73.7202 23.3309 73.5857 23.3747C72.6298 23.7394 71.6298 23.9242 70.5836 23.9242C69.2041 23.9242 67.9015 23.6071 66.6756 22.9737C65.4489 22.3299 64.4767 21.4537 63.7552 20.3461C63.0261 19.2194 62.6601 17.9632 62.6601 16.5794C62.6601 15.5328 62.8714 14.5594 63.297 13.6556C63.7187 12.7623 64.3009 11.9851 65.0396 11.3242C65.7697 10.6623 66.618 10.1585 67.5816 9.808C68.547 9.44324 69.5471 9.25943 70.5836 9.25943C71.6115 9.25943 72.6116 9.43848 73.5857 9.79562C74.5588 10.1537 75.4062 10.6623 76.1276 11.3242ZM70.5836 20.049C71.5664 20.049 72.4137 19.7118 73.1255 19.0309C73.847 18.3442 74.2072 17.5261 74.2072 16.5794C74.2072 15.9537 74.0401 15.3775 73.7058 14.849C73.3734 14.3232 72.9276 13.9032 72.3685 13.5899C71.8181 13.2871 71.2244 13.1337 70.5836 13.1337C69.9611 13.1337 69.3703 13.2871 68.8141 13.5899C68.2531 13.9032 67.8073 14.3232 67.474 14.849C67.1396 15.3775 66.9744 15.9537 66.9744 16.5794C66.9744 17.5261 67.3337 18.3442 68.0561 19.0309C68.7661 19.7118 69.6095 20.049 70.5836 20.049Z" fill="black"/>
<path d="M14.89 20.346C14.3722 19.5479 14.0427 18.6841 13.8909 17.7565L13.8794 17.7441C13.5191 18.1917 13.131 18.5536 12.716 18.8298C11.9417 19.3584 11.0992 19.6212 10.1885 19.6212C9.27779 19.6212 8.43529 19.3584 7.66004 18.8298C6.88478 18.3032 6.26707 17.606 5.80788 16.7393C5.34772 15.8632 5.11812 14.9527 5.11812 14.0051C5.11812 13.0584 5.34292 12.146 5.79347 11.2708C6.25363 10.4041 6.87133 9.70696 7.64563 9.17934C8.44009 8.65268 9.28644 8.38887 10.1885 8.38887C11.0896 8.38887 11.9369 8.65268 12.7295 9.17934C13.0907 9.41173 13.4653 9.75554 13.8525 10.2127L16.9496 7.03458C16.354 6.39173 15.6777 5.83744 14.9207 5.37268C13.4788 4.48792 11.9004 4.04601 10.1885 4.04601C8.48428 4.04601 6.90688 4.48792 5.45628 5.37268C3.99607 6.27554 2.84135 7.48125 1.99501 8.99173C1.14674 10.5108 0.723091 12.1822 0.723091 14.0051C0.723091 15.8184 1.14674 17.486 1.99501 19.006C2.84135 20.5155 3.99607 21.7165 5.45628 22.6108C6.90688 23.4955 8.48428 23.9374 10.1885 23.9374C11.9004 23.9374 13.4788 23.4955 14.9207 22.6108C15.3319 22.3574 15.72 22.0736 16.0889 21.7641C15.6326 21.3432 15.232 20.8717 14.89 20.346" fill="black"/>
<path d="M55.1112 23.6931C55.1112 23.6931 54.0679 18.6426 58.3822 16.6083C61.4026 15.3435 63.5218 12.3788 63.5218 8.92353C63.5218 4.31877 59.756 0.585437 55.1112 0.585437C50.4664 0.585437 46.7016 4.31877 46.7016 8.92353C46.7016 8.92353 46.2039 17.7921 55.1112 23.6931" fill="#FFD300"/>
<path d="M55.2899 14.574C55.2303 14.5759 55.1708 14.5788 55.1112 14.5788C52.6836 14.5788 50.6115 13.074 49.7882 10.955C49.5432 10.3245 49.4077 9.63975 49.4077 8.92356C49.4077 5.80165 51.9612 3.26927 55.1112 3.26927C58.2612 3.26927 60.8146 5.80165 60.8146 8.92356C60.8146 11.9874 58.3573 14.4797 55.2899 14.574" fill="white"/>
<path d="M55.4433 4.64935C54.7526 4.63887 54.058 4.8922 53.5229 5.40554C53.4634 5.46268 53.4624 5.55696 53.52 5.61696C53.5777 5.67506 53.6728 5.67696 53.7333 5.61982C54.2088 5.16268 54.8246 4.93887 55.4385 4.94744C56.0552 4.95697 56.6672 5.19792 57.1312 5.67125C57.1888 5.73125 57.2839 5.7322 57.3435 5.67506C57.403 5.61792 57.405 5.52268 57.3464 5.46363C56.8257 4.93125 56.1359 4.66077 55.4433 4.64935" fill="#515257"/>
<path d="M55.4259 6.03046C55.0906 6.02474 54.7525 6.14665 54.4931 6.39712C54.4335 6.45427 54.4316 6.54855 54.4893 6.6076C54.5479 6.66665 54.643 6.66855 54.7025 6.61046C54.9033 6.41808 55.1627 6.32474 55.4211 6.3276C55.6805 6.33236 55.936 6.43427 56.131 6.63331C56.1887 6.69141 56.2847 6.69236 56.3443 6.63617C56.4039 6.57808 56.4048 6.48474 56.3462 6.42474C56.0955 6.16855 55.7612 6.03522 55.4259 6.03046" fill="#515257"/>
<path d="M55.4363 5.34041C54.9233 5.33184 54.4055 5.51851 54.0087 5.90136C53.9492 5.95851 53.9473 6.05279 54.0049 6.11279C54.0625 6.17089 54.1576 6.17279 54.2172 6.1147C54.5563 5.78993 54.9944 5.63184 55.4324 5.63755C55.8695 5.64517 56.3018 5.8166 56.6313 6.15279C56.689 6.21089 56.7841 6.21279 56.8436 6.1547C56.9032 6.09755 56.9051 6.00327 56.8465 5.94517C56.4613 5.55089 55.9493 5.34803 55.4363 5.34041" fill="#515257"/>
<path fill-rule="evenodd" clip-rule="evenodd" d="M56.8307 7.6268C57.0305 7.76585 57.1852 7.95442 57.2937 8.19347C57.4023 8.43252 57.4561 8.72394 57.4561 9.06775C57.4561 9.34871 57.4023 9.60204 57.2937 9.8249C57.1852 10.0478 57.0353 10.2382 56.8422 10.3963C56.6472 10.5573 56.4186 10.6801 56.1563 10.763C55.8883 10.8487 55.6106 10.8916 55.3244 10.8916H54.8277V12.9525H53.4107V7.23918H55.1332C55.5175 7.23918 55.845 7.26966 56.1159 7.32871C56.3917 7.38775 56.6299 7.4868 56.8307 7.6268ZM55.2341 9.68013C55.4944 9.68013 55.6952 9.62585 55.8354 9.51918C55.9738 9.41442 56.0429 9.26109 56.0429 9.06013C56.0429 8.86394 55.9738 8.71347 55.8354 8.60871C55.6952 8.5049 55.4944 8.45156 55.2341 8.45156H54.8277V9.68013H55.2341Z" fill="#515257"/>
</svg>
