<svg width="212" height="157" viewBox="0 0 212 157" fill="none" xmlns="http://www.w3.org/2000/svg">
<g opacity="0.1">
<path d="M169.273 111.397C169.273 111.397 154.221 109.442 165.447 133.804C165.447 133.804 175.677 129.42 176.084 119.532C176.256 115.549 173.421 112.067 169.486 111.427L169.273 111.397Z" fill="#333333"/>
<path d="M169.494 111.36C169.494 111.36 172.902 124.944 165.458 133.806" stroke="#535461" stroke-width="0.586712"/>
<path d="M165.255 135.062C165.255 135.062 170.675 121.705 180.795 116.75C185.057 114.699 188.538 111.32 190.714 107.121C191.731 105.121 192.563 103.033 193.199 100.881" stroke="#535461" stroke-width="1.17342"/>
<path d="M199.558 97.7227C198.503 99.0488 193.043 100.99 193.043 100.99C193.043 100.99 193.7 95.2242 194.755 93.9077C195.411 92.9713 196.532 92.476 197.666 92.6219C198.8 92.7677 199.76 93.5306 200.157 94.6026C200.555 95.6746 200.325 96.8785 199.56 97.7285L199.558 97.7227Z" fill="#333333"/>
<path d="M197.684 108.226C196.077 108.766 190.442 107.423 190.442 107.423C190.442 107.423 194.123 102.949 195.73 102.408C196.79 101.974 198.004 102.165 198.88 102.905C199.756 103.644 200.147 104.81 199.896 105.928C199.644 107.046 198.792 107.932 197.684 108.226Z" fill="#333333"/>
<path d="M187.525 120.643C185.867 120.299 181.679 116.294 181.679 116.294C181.679 116.294 187.114 114.289 188.774 114.633C190.334 115.068 191.289 116.637 190.959 118.222C190.63 119.806 189.128 120.864 187.525 120.641V120.643Z" fill="#333333"/>
<path d="M177.724 128.308C176.03 128.248 171.226 125.01 171.226 125.01C171.226 125.01 176.246 122.111 177.939 122.173C179.55 122.337 180.757 123.722 180.701 125.34C180.644 126.958 179.342 128.255 177.724 128.306V128.308Z" fill="#333333"/>
<path d="M185.196 103.661C185.413 105.343 189.082 109.825 189.082 109.825C189.082 109.825 191.498 104.559 191.283 102.877C191.211 101.733 190.508 100.724 189.46 100.259C188.412 99.7943 187.192 99.9514 186.296 100.667C185.4 101.382 184.976 102.536 185.196 103.661Z" fill="#333333"/>
<path d="M173.845 112.779C174.554 114.316 179.397 117.497 179.397 117.497C179.397 117.497 180.127 111.749 179.418 110.211C179.006 109.142 178.034 108.39 176.896 108.261C175.757 108.132 174.641 108.646 174 109.596C173.359 110.546 173.299 111.773 173.845 112.781V112.779Z" fill="#333333"/>
<path d="M164.029 123.146C164.467 124.783 168.705 128.735 168.705 128.735C168.705 128.735 170.396 123.194 169.956 121.556C169.733 120.431 168.902 119.523 167.8 119.202C166.699 118.881 165.51 119.2 164.717 120.029C163.924 120.858 163.659 122.06 164.029 123.146Z" fill="#333333"/>
<path opacity="0.25" d="M199.558 97.7227C198.503 99.0488 193.043 100.99 193.043 100.99C193.043 100.99 193.7 95.2242 194.755 93.9077C195.411 92.9713 196.532 92.476 197.666 92.6219C198.8 92.7677 199.76 93.5306 200.157 94.6026C200.555 95.6746 200.325 96.8785 199.56 97.7285L199.558 97.7227Z" fill="black"/>
<path opacity="0.25" d="M197.684 108.226C196.077 108.766 190.442 107.423 190.442 107.423C190.442 107.423 194.123 102.949 195.73 102.408C196.79 101.974 198.004 102.165 198.88 102.905C199.756 103.644 200.147 104.81 199.896 105.928C199.644 107.046 198.792 107.932 197.684 108.226Z" fill="black"/>
<path opacity="0.25" d="M187.525 120.643C185.867 120.299 181.679 116.294 181.679 116.294C181.679 116.294 187.114 114.289 188.774 114.633C190.334 115.068 191.289 116.637 190.959 118.222C190.63 119.806 189.128 120.864 187.525 120.641V120.643Z" fill="black"/>
<path opacity="0.25" d="M177.724 128.308C176.03 128.248 171.226 125.01 171.226 125.01C171.226 125.01 176.246 122.111 177.939 122.173C179.55 122.337 180.757 123.722 180.701 125.34C180.644 126.958 179.342 128.255 177.724 128.306V128.308Z" fill="black"/>
<path opacity="0.25" d="M185.196 103.661C185.413 105.343 189.082 109.825 189.082 109.825C189.082 109.825 191.498 104.559 191.283 102.877C191.211 101.733 190.508 100.724 189.46 100.259C188.412 99.7943 187.192 99.9514 186.296 100.667C185.4 101.382 184.976 102.536 185.196 103.661Z" fill="black"/>
<path opacity="0.25" d="M173.845 112.779C174.554 114.316 179.397 117.497 179.397 117.497C179.397 117.497 180.127 111.749 179.418 110.211C179.006 109.142 178.034 108.39 176.896 108.261C175.757 108.132 174.641 108.646 174 109.596C173.359 110.546 173.299 111.773 173.845 112.781V112.779Z" fill="black"/>
<path opacity="0.25" d="M164.029 123.146C164.467 124.783 168.705 128.735 168.705 128.735C168.705 128.735 170.396 123.194 169.956 121.556C169.733 120.431 168.902 119.523 167.8 119.202C166.699 118.881 165.51 119.2 164.717 120.029C163.924 120.858 163.659 122.06 164.029 123.146Z" fill="black"/>
<path d="M172.473 141.138C172.473 141.138 177.892 127.781 188.013 122.826C192.273 120.773 195.751 117.394 197.926 113.195C198.943 111.196 199.775 109.107 200.411 106.955" stroke="#535461" stroke-width="1.17342"/>
<path d="M206.767 103.796C205.712 105.122 200.252 107.063 200.252 107.063C200.252 107.063 200.909 101.298 201.964 99.9813C203.052 98.7727 204.892 98.6193 206.164 99.6312C207.437 100.643 207.702 102.47 206.769 103.802L206.767 103.796Z" fill="#333333"/>
<path d="M204.897 114.299C203.29 114.839 197.655 113.496 197.655 113.496C197.655 113.496 201.336 109.021 202.942 108.481C204.509 108.066 206.13 108.938 206.646 110.474C207.162 112.011 206.397 113.684 204.897 114.299Z" fill="#333333"/>
<path d="M194.738 126.724C193.079 126.38 188.892 122.375 188.892 122.375C188.892 122.375 194.327 120.37 195.987 120.715C197.546 121.149 198.502 122.718 198.172 124.303C197.843 125.887 196.341 126.945 194.738 126.722V126.724Z" fill="#333333"/>
<path d="M184.934 134.379C183.241 134.319 178.437 131.081 178.437 131.081C178.437 131.081 183.457 128.186 185.15 128.246C186.761 128.41 187.968 129.795 187.912 131.413C187.855 133.031 186.553 134.328 184.934 134.379Z" fill="#333333"/>
<path d="M192.407 109.742C192.624 111.424 196.293 115.906 196.293 115.906C196.293 115.906 198.709 110.64 198.494 108.958C198.422 107.814 197.719 106.805 196.671 106.34C195.623 105.875 194.403 106.032 193.507 106.748C192.611 107.463 192.187 108.617 192.407 109.742Z" fill="#333333"/>
<path d="M181.059 118.845C181.768 120.382 186.611 123.563 186.611 123.563C186.611 123.563 187.341 117.815 186.632 116.277C185.86 114.851 184.113 114.27 182.641 114.949C181.168 115.628 180.476 117.333 181.059 118.847V118.845Z" fill="#333333"/>
<path d="M171.241 129.222C171.679 130.86 175.917 134.811 175.917 134.811C175.917 134.811 177.608 129.27 177.168 127.633C176.646 126.1 175.025 125.235 173.461 125.654C171.897 126.074 170.926 127.634 171.241 129.222Z" fill="#333333"/>
</g>
<path opacity="0.1" d="M2.71973 83.4951C6.05613 97.7556 13.1191 110.083 24.2815 116.058C47.4787 128.475 99.7946 122.071 138.84 114.712C158.568 111.008 176.476 100.772 189.68 85.6534L2.71973 83.4951Z" fill="#333333"/>
<path opacity="0.1" d="M207.468 16.3709H186.045C185.022 16.3709 184.193 15.5418 184.193 14.5191C184.193 13.4964 185.022 12.6674 186.045 12.6674H189.749C188.726 12.6674 187.897 11.8383 187.897 10.8156C187.897 9.79293 188.726 8.96388 189.749 8.96388H187.104C186.081 8.96388 185.252 8.13482 185.252 7.11213C185.252 6.08944 186.081 5.26039 187.104 5.26039H198.286C195.804 4.10725 192.904 3.2866 189.564 2.8561C159.075 -1.06072 148.19 1.52999 144.35 4.20142C139.612 7.48786 134.327 9.90561 128.678 11.0703C109.865 14.9467 74.6848 19.6169 42.7987 9.5712C26.9507 4.57427 15.1714 13.0152 8.1123 27.1142H211.187C210.922 23.0168 210.128 19.2345 208.672 15.9211C208.338 16.2106 207.91 16.3702 207.468 16.3709Z" fill="#333333"/>
<path opacity="0.1" fill-rule="evenodd" clip-rule="evenodd" d="M1.73374 78.6113C0.358914 70.3908 0.0790866 62.0244 0.901559 53.7305L202.895 65.5597C199.458 72.7625 195.062 79.4668 189.826 85.4898L1.73374 78.6113ZM73.4425 73.3309C73.4425 72.3082 72.6134 71.4792 71.5908 71.4792H75.2942C76.3169 71.4792 77.146 70.6501 77.146 69.6274C77.146 68.6047 76.3169 67.7757 75.2942 67.7757H72.6497C73.6724 67.7757 74.5015 66.9466 74.5015 65.9239C74.5015 64.9012 73.6724 64.0722 72.6497 64.0722H51.2264C50.2037 64.0722 49.3746 64.9012 49.3746 65.9239C49.3746 66.9466 50.2037 67.7757 51.2264 67.7757H53.8709C52.8482 67.7757 52.0191 68.6047 52.0191 69.6274C52.0191 70.6501 52.8482 71.4792 53.8709 71.4792H50.1674C49.1447 71.4792 48.3157 72.3082 48.3157 73.3309C48.3157 74.3536 49.1447 75.1827 50.1674 75.1827H71.5908C72.6134 75.1827 73.4425 74.3536 73.4425 73.3309Z" fill="#333333"/>
<path opacity="0.1" fill-rule="evenodd" clip-rule="evenodd" d="M5.84449 32.2401L211.197 27.2432C211.445 31.2273 211.199 35.5054 210.584 39.9277C209.947 44.5048 208.949 49.0244 207.599 53.4443H0.932129C1.70089 45.9201 3.34795 38.6611 5.84449 32.2401ZM40.7701 45.4637C40.7701 44.441 39.9411 43.6119 38.9184 43.6119H42.6219C43.6446 43.6119 44.4736 42.7829 44.4736 41.7602C44.4736 40.7375 43.6446 39.9084 42.6219 39.9084H39.9773C41 39.9084 41.8291 39.0794 41.8291 38.0567C41.8291 37.034 41 36.205 39.9773 36.205H18.554C17.5313 36.205 16.7022 37.034 16.7022 38.0567C16.7022 39.0794 17.5313 39.9084 18.554 39.9084H21.1985C20.1758 39.9084 19.3468 40.7375 19.3468 41.7602C19.3468 42.7829 20.1758 43.6119 21.1985 43.6119H17.495C16.4723 43.6119 15.6433 44.441 15.6433 45.4637C15.6433 46.4864 16.4723 47.3154 17.495 47.3154H38.9184C39.9411 47.3154 40.7701 46.4864 40.7701 45.4637Z" fill="#333333"/>
<path fill-rule="evenodd" clip-rule="evenodd" d="M180.846 156.783C180.846 156.783 172.282 109.812 155.952 102.189C142.114 95.7262 127.151 91.3692 122.896 90.1873C122.26 89.1638 121.526 88.2053 120.703 87.3256C114.887 81.2543 111.393 81.3677 110.828 81.4426C110.56 80.2387 110.367 79.0191 110.251 77.791L110.236 77.6245C110.224 77.4928 110.212 77.3642 110.201 77.2299L110.251 77.2049C110.217 76.8416 110.186 76.4669 110.159 76.0806C112.533 74.8135 114.719 73.2216 116.653 71.3508C116.664 71.3858 116.674 71.4208 116.684 71.456C116.697 71.5038 116.711 71.5519 116.726 71.6006C120.917 68.0579 125.022 64.4191 129.04 60.6843C130.193 59.6061 131.404 58.4356 131.796 56.9154C131.921 56.3923 131.97 55.8536 131.94 55.3164C131.97 54.6385 131.889 53.952 131.807 53.2639C131.749 52.7815 131.692 52.2983 131.673 51.8166C131.673 51.6245 131.694 51.4457 131.719 51.2631C131.943 49.6718 132.901 48.3174 133.846 46.9828C134.036 46.7136 134.226 46.4452 134.41 46.1759C137.137 42.1204 138.56 37.3287 138.49 32.442C138.52 30.1005 138.196 27.7679 137.529 25.5232C136.677 22.675 134.905 19.6826 131.955 19.0599C131.231 18.9075 130.489 18.9121 129.746 18.9167C129.318 18.9193 128.889 18.922 128.463 18.8946C124.665 18.6524 121.619 16.1682 118.617 13.72L118.617 13.7199C117.808 13.0602 117.003 12.4031 116.186 11.7932C111.493 8.30344 105.942 6.14907 100.123 5.55857C98.3068 5.36638 96.431 5.35293 94.7033 5.9295C92.6425 6.61541 91.0115 8.06188 89.3752 9.51316C87.9304 10.7945 86.4814 12.0796 84.7286 12.8483C83.1786 13.5317 81.4933 13.7695 79.8033 14.008C78.48 14.1948 77.1539 14.3819 75.8879 14.7837C71.5963 16.1482 67.9543 20.5493 67.8582 25.0716V25.5732V25.6577C67.8327 26.8739 68.0521 28.102 68.2728 29.3375L68.2728 29.3376C68.4668 30.4235 68.6618 31.5151 68.6923 32.6092C68.6923 32.8206 68.6955 33.0327 68.7019 33.2454C68.6808 35.7708 68.3791 38.3038 67.4585 40.6773C67.4154 40.7884 67.3712 40.901 67.3266 41.0148L67.3266 41.0148C66.8573 42.2111 66.3336 43.5463 66.4283 44.7133C66.3707 45.4955 66.5225 46.2297 67.0664 46.8274L67.9947 46.0087C67.6834 47.6936 67.527 49.4036 67.5277 51.1171C67.5277 59.7541 71.456 67.4878 77.6522 72.6923C77.6881 73.2675 77.7227 73.8838 77.756 74.5411C77.9021 77.3894 78.0174 80.9622 77.9847 84.8559L68.921 93.1873L45.62 103.758C45.62 103.758 24.31 108.259 28.8995 138.196L31.0905 156.785H50.5458L50.5016 156.883H79.3781L79.3954 156.785H148.099L148.086 156.883H150.776V156.785L180.846 156.783ZM110.999 81.9193C111.588 83.1376 112.052 84.4126 112.383 85.7246C111.703 84.462 111.2 83.1117 110.889 81.7117L110.918 81.7636L110.999 81.9193ZM77.9578 86.872C77.9706 86.4992 77.977 86.1295 77.977 85.7631V85.7535C77.9304 86.1463 77.9086 86.5417 77.9117 86.9373L77.9578 86.872Z" fill="url(#paint0_linear_1_19952)"/>
<path d="M118.6 90.4774L114.756 127.186L94.1919 133.72C94.1919 133.72 67.4775 128.723 74.3963 114.309C79.3183 104.056 79.1819 85.7323 78.6937 76.0075C78.5015 72.0599 78.2401 69.5288 78.2401 69.5288C78.2401 69.5288 113.219 38.9707 110.336 66.4537C109.778 71.7755 109.746 75.9364 110.055 79.1882C111.352 92.726 118.6 90.4774 118.6 90.4774Z" fill="#FDC2CC"/>
<path opacity="0.03" d="M118.6 90.4774L114.756 127.186L94.1919 133.72C94.1919 133.72 67.4775 128.723 74.3963 114.309C79.3183 104.056 79.1819 85.7323 78.6937 76.0075C78.5015 72.0599 78.2401 69.5288 78.2401 69.5288C78.2401 69.5288 113.219 38.9707 110.336 66.4537C109.778 71.7755 109.746 75.9364 110.055 79.1882C111.352 92.726 118.6 90.4774 118.6 90.4774Z" fill="#FBBEBE"/>
<path opacity="0.1" d="M110.336 65.8766C109.779 71.1983 109.746 75.3592 110.055 78.6111C99.9477 84.1292 87.4876 82.8655 78.6938 75.4303C78.5016 71.4828 78.2402 68.9516 78.2402 68.9516C78.2402 68.9516 113.219 38.3935 110.336 65.8766Z" fill="black"/>
<circle cx="96.6907" cy="53.0022" r="27.8675" fill="#FDC2CC"/>
<circle opacity="0.03" cx="96.6907" cy="53.0022" r="27.8675" fill="#FBBEBE"/>
<path d="M178.179 156.782H33.6528L31.5387 138.524C27.1183 109.119 47.6826 104.699 47.6826 104.699L70.1687 94.3206L79.1056 85.9604C76.2227 96.9152 98.0362 119.69 98.0362 119.69C98.1764 119.559 98.3092 119.421 98.434 119.276C99.0221 118.635 100.427 117.028 103.717 113.042C104.894 111.614 106.314 109.882 108.024 107.78C116.25 97.6705 112.03 85.7259 110.769 83.2563L110.69 83.1025C110.642 83.0141 110.605 82.943 110.577 82.8931C110.569 82.8749 110.559 82.8575 110.548 82.8412C110.54 82.8289 110.533 82.816 110.527 82.8027L121.097 91.0669C121.097 91.0669 121.503 91.1745 122.25 91.3859C126.363 92.5391 140.812 96.8268 154.154 103.175C169.915 110.657 178.179 156.782 178.179 156.782Z" fill="#333333"/>
<path d="M128.978 112.771C127.249 111.042 115.525 108.928 115.525 108.928C115.909 113.54 101.687 120.651 101.687 120.651L102.744 156.783H95.9256L94.7725 124.303L98.0397 119.69L98.4375 119.277C100.331 117.315 102.096 115.232 103.721 113.042C104.897 111.614 106.317 109.883 108.028 107.78C116.253 97.6711 112.033 85.7265 110.772 83.2568L110.693 83.1031C110.647 83.0128 110.611 82.9436 110.58 82.8936C110.572 82.8754 110.562 82.8581 110.551 82.8417C110.543 82.8294 110.536 82.8166 110.53 82.8033C110.53 82.8033 113.989 82.0345 120.14 88.569C120.935 89.4368 121.643 90.3805 122.254 91.3865C127.251 99.4046 130.502 114.295 128.978 112.771Z" fill="#333333"/>
<path opacity="0.1" d="M128.978 112.771C127.249 111.042 115.525 108.928 115.525 108.928C115.909 113.54 101.687 120.651 101.687 120.651L102.744 156.783H95.9256L94.7725 124.303L98.0397 119.69L98.4375 119.277C100.331 117.315 102.096 115.232 103.721 113.042C104.897 111.614 106.317 109.883 108.028 107.78C116.253 97.6711 112.033 85.7265 110.772 83.2568L110.693 83.1031C110.647 83.0128 110.611 82.9436 110.58 82.8936C110.572 82.8754 110.562 82.8581 110.551 82.8417C110.543 82.8294 110.536 82.8166 110.53 82.8033C110.53 82.8033 113.989 82.0345 120.14 88.569C120.935 89.4368 121.643 90.3805 122.254 91.3865C127.251 99.4046 130.502 114.295 128.978 112.771Z" fill="black"/>
<path opacity="0.1" d="M50.7578 127.569C50.7578 127.569 59.7907 146.02 60.2712 156.878L50.7578 127.569Z" fill="black"/>
<path opacity="0.1" d="M149.158 138.142L146.563 156.88H149.158V138.142Z" fill="black"/>
<path opacity="0.1" d="M52.7754 156.879L67.0935 124.302C67.0935 124.302 71.1295 116.615 72.0904 108.927C73.0514 101.24 78.2405 89.1318 78.2405 89.1318C78.2405 89.1318 91.1172 72.7957 97.0751 75.102C103.033 77.4083 91.8859 86.0568 91.8859 86.0568C91.8859 86.0568 108.222 92.399 97.0751 111.234C85.9281 130.068 85.7359 126.609 85.7359 126.609L80.2585 156.879H52.7754Z" fill="black"/>
<path d="M52.3906 156.879L66.7087 124.303C66.7087 124.303 70.7447 116.615 71.7057 108.927C72.3168 104.04 74.6366 97.3653 76.2452 93.1506C77.2952 90.3952 78.8402 87.8549 80.8039 85.6552C84.9667 80.9966 92.5275 73.4839 96.6903 75.0983C102.648 77.4045 91.5012 86.0531 91.5012 86.0531C91.5012 86.0531 107.837 92.3953 96.6903 111.23C85.5433 130.064 85.3511 126.605 85.3511 126.605L79.8737 156.875L52.3906 156.879Z" fill="#FBBEBE"/>
<circle opacity="0.15" cx="105.244" cy="37.3383" r="0.576568" fill="white"/>
<circle opacity="0.15" cx="102.552" cy="38.4916" r="0.576568" fill="white"/>
<path opacity="0.1" d="M76.8931 17.8831C79.6741 16.9836 82.7606 17.1778 85.4282 15.9823C89.0356 14.3641 91.3092 10.4473 95.0531 9.17883C96.7213 8.6138 98.5317 8.63494 100.283 8.8156C105.913 9.40155 111.274 11.52 115.785 14.9407C119.496 17.7639 122.978 21.6135 127.631 21.9152C128.755 21.9883 129.899 21.8403 131 22.0767C133.852 22.6878 135.561 25.6264 136.381 28.4189C138.303 35.1161 137.203 42.3184 133.372 48.1376C132.319 49.7135 131.035 51.2568 130.775 53.1345C130.522 54.9757 131.306 56.8841 130.848 58.6868C130.464 60.1801 129.311 61.3294 128.188 62.3884C124.313 66.0541 120.352 69.6256 116.305 73.103C114.203 66.4225 117.287 59.2288 116.807 52.2427C116.615 49.5213 115.654 46.5501 113.253 45.2662C111.007 44.067 108.135 44.6897 105.862 43.5365C103.325 42.2585 102.283 39.2315 100.365 37.1366C97.098 33.5619 91.4265 33.1007 86.8581 34.715C82.2898 36.3294 78.5555 39.6505 74.9424 42.8889L68.3753 48.7795C67.0933 47.3342 68.0658 45.1163 68.7596 43.3098C69.7936 40.6018 70.0204 37.6824 69.9512 34.8073C69.8955 32.501 69.0998 30.2236 69.1459 27.9788C69.2382 23.5508 72.7514 19.2227 76.8931 17.8831Z" fill="black"/>
<path d="M76.8931 17.3069C79.6741 16.4075 82.7606 16.6016 85.4282 15.4062C89.0356 13.7879 91.3092 9.87111 95.0531 8.60266C96.7213 8.03762 98.5317 8.05877 100.283 8.23942C105.913 8.82538 111.274 10.9439 115.785 14.3645C119.496 17.1878 122.978 21.0373 127.631 21.3391C128.755 21.4121 129.899 21.2641 131 21.5005C133.852 22.1117 135.561 25.0502 136.381 27.8427C138.303 34.54 137.203 41.7422 133.372 47.5614C132.319 49.1373 131.035 50.6806 130.775 52.5583C130.522 54.3995 131.306 56.3079 130.848 58.1107C130.464 59.604 129.311 60.7533 128.188 61.8122C124.313 65.4779 120.352 69.0494 116.305 72.5268C114.203 65.8463 117.287 58.6526 116.807 51.6665C116.615 48.9451 115.654 45.9739 113.253 44.6901C111.007 43.4908 108.135 44.1135 105.862 42.9604C103.325 41.6823 102.283 38.6553 100.365 36.5605C97.098 32.9857 91.4265 32.5245 86.8581 34.1389C82.2898 35.7533 78.5555 39.0743 74.9424 42.3127L68.3753 48.2033C67.0933 46.758 68.0658 44.5402 68.7596 42.7336C69.7936 40.0256 70.0204 37.1063 69.9512 34.2311C69.8955 31.9248 69.0998 29.6474 69.1459 27.4026C69.2382 22.9746 72.7514 18.6465 76.8931 17.3069Z" fill="#865A61"/>
<defs>
<linearGradient id="paint0_linear_1_19952" x1="180.847" y1="156.879" x2="180.847" y2="5.4298" gradientUnits="userSpaceOnUse">
<stop stop-color="#808080" stop-opacity="0.25"/>
<stop offset="0.54" stop-color="#808080" stop-opacity="0.12"/>
<stop offset="1" stop-color="#808080" stop-opacity="0.1"/>
</linearGradient>
</defs>
</svg>
