<svg width="51" height="50" viewBox="0 0 51 50" fill="none" xmlns="http://www.w3.org/2000/svg">
<g clip-path="url(#clip0_1_19304)">
<circle cx="25.334" cy="24.999" r="25" fill="#231F20"/>
<path fill-rule="evenodd" clip-rule="evenodd" d="M15.5898 33.4282C15.5898 32.2765 16.2179 31.2178 17.2446 30.696C19.5992 29.4993 23.8118 27.4814 25.4449 27.4814C27.083 27.4814 31.4891 29.512 33.9407 30.7072C34.9947 31.2211 35.6457 32.2952 35.6457 33.4678V38.0574C35.6457 39.7901 34.2411 41.1947 32.5085 41.1947H18.7271C16.9944 41.1947 15.5898 39.7901 15.5898 38.0574V33.4282Z" stroke="#FFB500" stroke-width="1.39735"/>
<path fill-rule="evenodd" clip-rule="evenodd" d="M32.9893 39.2223C33.1896 39.1097 33.2971 38.9906 33.2971 38.8673C33.2971 38.1726 29.8839 37.6094 25.6735 37.6094C21.4631 37.6094 18.0499 38.1726 18.0499 38.8673C18.0499 38.9906 18.1574 39.1098 18.3579 39.2224C18.0261 39.6827 17.8306 40.2479 17.8306 40.8587C17.8306 42.4057 19.0847 43.6598 20.6317 43.6598H30.7156C32.2626 43.6598 33.5167 42.4057 33.5167 40.8587C33.5167 40.2478 33.3212 39.6826 32.9893 39.2223Z" fill="#515257"/>
<path fill-rule="evenodd" clip-rule="evenodd" d="M16.0879 15.0299C15.4322 15.063 14.9175 15.6043 14.9175 16.2608V32.6687C14.9175 33.3494 15.4693 33.9012 16.15 33.9012H17.8431C17.6164 33.5728 17.4945 33.2241 17.4945 32.8628C17.4945 30.9052 21.0731 29.3184 25.4876 29.3184C29.9021 29.3184 33.4807 30.9052 33.4807 32.8628C33.4807 33.2241 33.3588 33.5728 33.1321 33.9012H35.1779C35.8662 33.9012 36.4211 33.3375 36.4102 32.6493L36.2155 20.2958C36.2094 19.9096 36.0227 19.5487 35.7111 19.3206L28.9613 14.3809L16.0879 15.0299Z" fill="url(#paint0_linear_1_19304)"/>
<path d="M25.9617 21.5544C28.816 20.3463 30.8194 17.5147 30.8194 14.2144C30.8194 9.81547 27.2608 6.24948 22.8708 6.24948C18.481 6.24948 14.9222 9.81547 14.9222 14.2144C14.9222 14.2144 14.4517 22.6856 22.8708 28.3223C22.8708 28.3223 21.8841 23.4981 25.9617 21.5544Z" fill="#515257"/>
<circle cx="25.4445" cy="41.0089" r="0.54798" fill="white"/>
<path d="M18.3411 13.8096H17.0485V11.57H17.4672V13.4374H18.3411V13.8096ZM20.6849 12.6831C20.6849 13.0287 20.5885 13.3067 20.3958 13.5172C20.2053 13.7276 19.9494 13.8328 19.6282 13.8328C19.307 13.8328 19.0501 13.7276 18.8574 13.5172C18.6646 13.3067 18.5683 13.0287 18.5683 12.6831C18.5683 12.3354 18.6635 12.0562 18.854 11.8458C19.0468 11.6354 19.3037 11.5301 19.6249 11.5301C19.9506 11.5301 20.2086 11.6354 20.3991 11.8458C20.5896 12.054 20.6849 12.3331 20.6849 12.6831ZM19.0168 12.6831C19.0168 12.918 19.0722 13.104 19.183 13.2414C19.2937 13.3787 19.4422 13.4474 19.6282 13.4474C19.8165 13.4474 19.9649 13.3798 20.0735 13.2447C20.182 13.1074 20.2363 12.9202 20.2363 12.6831C20.2363 12.4461 20.182 12.2589 20.0735 12.1216C19.9649 11.9843 19.8154 11.9156 19.6249 11.9156C19.4366 11.9156 19.2882 11.9843 19.1797 12.1216C19.0711 12.2589 19.0168 12.4461 19.0168 12.6831ZM22.694 13.7032C22.5567 13.7918 22.364 13.8362 22.1159 13.8362C21.7836 13.8362 21.5089 13.732 21.2918 13.5238C21.0769 13.3134 20.9695 13.0354 20.9695 12.6898C20.9695 12.3509 21.0758 12.0751 21.2885 11.8624C21.5034 11.6475 21.7792 11.5401 22.1159 11.5401C22.3617 11.5401 22.5534 11.5811 22.6907 11.6631V12.0718C22.5224 11.9743 22.3363 11.9256 22.1325 11.9256C21.9287 11.9256 21.7581 11.9953 21.6208 12.1349C21.4856 12.2722 21.4181 12.4572 21.4181 12.6898C21.4181 12.9224 21.4856 13.1074 21.6208 13.2447C21.7581 13.382 21.9364 13.4507 22.1557 13.4507C22.3662 13.4507 22.5456 13.3953 22.694 13.2846V13.7032ZM24.8684 13.8096H24.3401L23.5359 12.6998L24.3101 11.57H24.8119L24.0344 12.6931L24.8684 13.8096ZM23.5027 13.8096H23.084V11.57H23.5027V13.8096ZM26.5063 13.8096H25.1705V11.57H26.493V11.9123H25.5925V12.5203H26.3933V12.8593H25.5925V13.4673H26.5063V13.8096ZM27.9361 13.8096H27.5175V12.9922L26.7532 11.57H27.2417L27.3912 11.8956C27.4776 12.0839 27.5485 12.2423 27.6039 12.3708C27.6592 12.4971 27.6925 12.5757 27.7035 12.6067L27.7235 12.6566C27.7434 12.5746 27.8575 12.321 28.0657 11.8956L28.2186 11.57H28.707L27.9361 12.9789V13.8096Z" fill="#FFD300"/>
<path d="M19.2953 16.3048H18.8488V17.793H18.5172V16.3048H18.0708V16.0333H19.2953V16.3048ZM20.0851 16.3048H19.871V16.8792H20.0903C20.1913 16.8792 20.267 16.854 20.3174 16.8035C20.3679 16.7513 20.3932 16.679 20.3932 16.5868C20.3932 16.4963 20.3662 16.4267 20.3122 16.3779C20.26 16.3292 20.1843 16.3048 20.0851 16.3048ZM19.871 17.793H19.5421V16.0333H20.0851C20.2853 16.0333 20.4419 16.0838 20.555 16.1847C20.6699 16.2857 20.7273 16.4206 20.7273 16.5894C20.7256 16.7147 20.6951 16.8209 20.636 16.9079C20.5768 16.9932 20.4959 17.0567 20.3932 17.0985L20.8448 17.793H20.4506L20.0512 17.1507H19.871V17.793ZM21.8731 17.793H21.5442V17.1507L20.9437 16.0333H21.3275L21.445 16.2892C21.5128 16.4371 21.5685 16.5616 21.612 16.6625C21.6556 16.7617 21.6817 16.8235 21.6904 16.8479L21.706 16.887C21.7217 16.8226 21.8113 16.6233 21.9749 16.2892L22.095 16.0333H22.4788L21.8731 17.1403V17.793ZM23.636 17.793H23.307L23.448 16.0333H23.824L24.0642 16.673C24.1059 16.7809 24.1451 16.8888 24.1816 16.9967C24.2182 17.1029 24.2443 17.1821 24.26 17.2343L24.2835 17.3152C24.3374 17.1342 24.4123 16.9201 24.508 16.673L24.7534 16.0333H25.1293L25.3017 17.793H24.9727L24.91 17.1063L24.863 16.4902C24.8004 16.6695 24.7255 16.8749 24.6385 17.1063L24.3931 17.7669H24.1686L23.9284 17.1063L23.7221 16.498C23.7221 16.5833 23.7108 16.7861 23.6882 17.1063L23.636 17.793ZM26.6851 17.793H25.6355V16.0333H26.6746V16.3022H25.9671V16.78H26.5963V17.0463H25.9671V17.5241H26.6851V17.793ZM27.3412 17.2082H27.041V16.0333H27.3412V17.2082ZM27.3934 17.6076C27.3934 17.6668 27.3734 17.7164 27.3334 17.7564C27.2933 17.7947 27.2446 17.8139 27.1872 17.8139C27.128 17.8139 27.0784 17.7947 27.0383 17.7564C27 17.7164 26.9809 17.6668 26.9809 17.6076C26.9809 17.5502 27 17.5014 27.0383 17.4614C27.0784 17.4214 27.128 17.4014 27.1872 17.4014C27.2446 17.4014 27.2933 17.4214 27.3334 17.4614C27.3734 17.5014 27.3934 17.5502 27.3934 17.6076Z" fill="white"/>
<path fill-rule="evenodd" clip-rule="evenodd" d="M28.0908 23.6014C28.1442 23.6497 28.1857 23.7052 28.215 23.7675C28.2449 23.8318 28.2597 23.9012 28.2597 23.9758L28.2588 24.4733L27.9562 24.4704V24.4418C27.9358 24.4506 27.9208 24.4568 27.9113 24.4599C27.8438 24.4859 27.7732 24.499 27.6993 24.499C27.6018 24.499 27.5098 24.4764 27.4233 24.4313C27.3367 24.3854 27.268 24.323 27.2171 24.2441C27.1654 24.1638 27.1396 24.0743 27.1396 23.9758C27.1396 23.9012 27.1546 23.8318 27.1846 23.7675C27.2144 23.7038 27.2555 23.6484 27.3077 23.6014C27.3593 23.5542 27.4191 23.5183 27.4872 23.4933C27.5554 23.4674 27.626 23.4543 27.6993 23.4543C27.7718 23.4543 27.8424 23.467 27.9113 23.4925C27.98 23.518 28.0399 23.5542 28.0908 23.6014ZM27.6993 24.2227C27.7687 24.2227 27.8286 24.1986 27.8789 24.1501C27.9297 24.1012 27.9553 24.0429 27.9553 23.9755C27.9553 23.9309 27.9435 23.8898 27.9199 23.8522C27.8964 23.8147 27.8648 23.7848 27.8253 23.7625C27.7865 23.7409 27.7445 23.73 27.6993 23.73C27.6554 23.73 27.6137 23.7409 27.5742 23.7625C27.5347 23.7848 27.5032 23.8147 27.4797 23.8522C27.4561 23.8898 27.4443 23.9309 27.4443 23.9755C27.4443 24.0429 27.4698 24.1012 27.5207 24.1501C27.571 24.1986 27.6305 24.2227 27.6993 24.2227Z" fill="#333333"/>
<path d="M29.0952 23.1044C29.0711 23.0903 29.0443 23.0833 29.0149 23.0833C28.9857 23.0833 28.9592 23.0903 28.9358 23.1044C28.9121 23.1183 28.8927 23.1378 28.8775 23.1627C28.8634 23.1869 28.8564 23.2135 28.8564 23.2429C28.8564 23.2714 28.8637 23.2986 28.8785 23.324C28.8924 23.3482 28.9115 23.3677 28.9358 23.3823C28.9592 23.3963 28.9857 23.4033 29.0149 23.4033C29.0443 23.4033 29.0711 23.3959 29.0952 23.3813C29.1194 23.3666 29.1385 23.3475 29.1525 23.324C29.1665 23.3005 29.1734 23.2735 29.1734 23.2429C29.1734 23.2135 29.1665 23.1869 29.1525 23.1627C29.1378 23.1378 29.1188 23.1183 29.0952 23.1044Z" fill="#333333"/>
<path d="M28.8682 24.4727H29.1729V23.4938L28.8682 23.4948V24.4727Z" fill="#333333"/>
<path d="M28.7298 23.4933C28.4484 23.5073 28.3076 23.6534 28.3076 23.9316V24.4727H28.6133V23.9316C28.6133 23.8266 28.6521 23.7724 28.7298 23.7692H28.747C28.7724 23.7706 28.7931 23.7766 28.809 23.7874V23.499C28.7886 23.4959 28.768 23.494 28.747 23.4933H28.7298Z" fill="#333333"/>
<path d="M32.0643 23.4933C31.7829 23.5073 31.6421 23.6534 31.6421 23.9316V24.4727H31.9478V23.9316C31.9478 23.8266 31.9866 23.7724 32.0643 23.7692H32.0814C32.1069 23.7706 32.1276 23.7766 32.1434 23.7874V23.499C32.1231 23.4959 32.1025 23.494 32.0814 23.4933H32.0643Z" fill="#333333"/>
<path d="M34.0715 23.4933C33.7901 23.5073 33.6494 23.6534 33.6494 23.9316V24.4727H33.955V23.9316C33.955 23.8266 33.9938 23.7724 34.0715 23.7692H34.0887C34.1142 23.7706 34.1348 23.7766 34.1507 23.7874V23.499C34.1304 23.4959 34.1097 23.494 34.0887 23.4933H34.0715Z" fill="#333333"/>
<path d="M33.5234 23.1044C33.4993 23.0903 33.4725 23.0833 33.4432 23.0833C33.414 23.0833 33.3875 23.0903 33.364 23.1044C33.3404 23.1183 33.321 23.1378 33.3057 23.1627C33.2917 23.1869 33.2847 23.2135 33.2847 23.2429C33.2847 23.2714 33.2919 23.2986 33.3067 23.324C33.3206 23.3482 33.3397 23.3677 33.364 23.3823C33.3875 23.3963 33.414 23.4033 33.4432 23.4033C33.4725 23.4033 33.4993 23.3959 33.5234 23.3813C33.5476 23.3666 33.5667 23.3475 33.5808 23.324C33.5947 23.3005 33.6017 23.2735 33.6017 23.2429C33.6017 23.2135 33.5947 23.1869 33.5808 23.1627C33.5661 23.1378 33.547 23.1183 33.5234 23.1044Z" fill="#333333"/>
<path d="M33.175 23.4937H32.8169L32.5008 23.8643H32.497V23.1156L32.1914 23.1165V24.4707H32.497V23.9913L32.8561 24.4707H33.2371L32.8217 23.9131L33.175 23.4937Z" fill="#333333"/>
<path d="M33.2959 24.4727H33.6005V23.4938L33.2959 23.4948V24.4727Z" fill="#333333"/>
<path fill-rule="evenodd" clip-rule="evenodd" d="M31.4253 23.6014C31.4788 23.6497 31.5201 23.7052 31.5494 23.7675C31.5793 23.8318 31.5943 23.9012 31.5943 23.9758L31.5934 24.4733L31.2907 24.4704V24.4418C31.2702 24.4506 31.2553 24.4568 31.2457 24.4599C31.1783 24.4859 31.1076 24.499 31.0338 24.499C30.9363 24.499 30.8443 24.4764 30.7577 24.4313C30.6711 24.3854 30.6024 24.323 30.5515 24.2441C30.5 24.1638 30.4741 24.0743 30.4741 23.9758C30.4741 23.9012 30.489 23.8318 30.5191 23.7675C30.5489 23.7038 30.59 23.6484 30.6422 23.6014C30.6938 23.5542 30.7537 23.5183 30.8217 23.4933C30.8899 23.4674 30.9605 23.4543 31.0338 23.4543C31.1064 23.4543 31.1769 23.467 31.2457 23.4925C31.3145 23.518 31.3744 23.5542 31.4253 23.6014ZM31.0337 24.2227C31.1031 24.2227 31.163 24.1986 31.2133 24.1501C31.2642 24.1012 31.2897 24.0429 31.2897 23.9755C31.2897 23.9309 31.2779 23.8898 31.2542 23.8522C31.2307 23.8147 31.1992 23.7848 31.1598 23.7625C31.1209 23.7409 31.0789 23.73 31.0337 23.73C30.9898 23.73 30.948 23.7409 30.9087 23.7625C30.8691 23.7848 30.8376 23.8147 30.8141 23.8522C30.7905 23.8898 30.7788 23.9309 30.7788 23.9755C30.7788 24.0429 30.8041 24.1012 30.8551 24.1501C30.9054 24.1986 30.9649 24.2227 31.0337 24.2227Z" fill="#333333"/>
<path d="M27.1002 24.2441C27.0636 24.1873 27.0404 24.1257 27.0296 24.0596L27.0288 24.0588C27.0034 24.0907 26.976 24.1164 26.9467 24.1361C26.892 24.1738 26.8324 24.1925 26.7681 24.1925C26.7038 24.1925 26.6443 24.1738 26.5896 24.1361C26.5348 24.0986 26.4912 24.0489 26.4587 23.9872C26.4262 23.9248 26.41 23.8599 26.41 23.7924C26.41 23.7249 26.4259 23.6599 26.4577 23.5976C26.4902 23.5358 26.5339 23.4862 26.5885 23.4486C26.6447 23.4111 26.7044 23.3923 26.7681 23.3923C26.8318 23.3923 26.8916 23.4111 26.9476 23.4486C26.9731 23.4651 26.9996 23.4896 27.0269 23.5222L27.2457 23.2958C27.2035 23.25 27.1558 23.2105 27.1024 23.1774C27.0005 23.1144 26.8891 23.0829 26.7681 23.0829C26.6478 23.0829 26.5364 23.1144 26.4339 23.1774C26.3308 23.2417 26.2492 23.3276 26.1894 23.4352C26.1295 23.5434 26.0996 23.6625 26.0996 23.7924C26.0996 23.9216 26.1295 24.0404 26.1894 24.1487C26.2492 24.2562 26.3308 24.3418 26.4339 24.4055C26.5364 24.4685 26.6478 24.5 26.7681 24.5C26.8891 24.5 27.0005 24.4685 27.1024 24.4055C27.1313 24.3874 27.1588 24.3672 27.1848 24.3452C27.1527 24.3152 27.1244 24.2816 27.1002 24.2441Z" fill="#333333"/>
<path fill-rule="evenodd" clip-rule="evenodd" d="M30.172 23.9777C29.8673 24.1226 29.941 24.4824 29.941 24.4824C29.3118 24.062 29.347 23.4302 29.347 23.4302C29.347 23.1021 29.6129 22.8362 29.941 22.8362C30.2691 22.8362 30.535 23.1021 30.535 23.4302C30.535 23.6764 30.3853 23.8876 30.172 23.9777ZM29.9505 23.8329C29.9515 23.8328 29.9526 23.8328 29.9536 23.8328C30.1702 23.826 30.3438 23.6485 30.3438 23.4302C30.3438 23.2078 30.1635 23.0274 29.941 23.0274C29.7185 23.0274 29.5382 23.2078 29.5382 23.4302C29.5382 23.4812 29.5477 23.53 29.565 23.5749C29.6232 23.7259 29.7695 23.8331 29.941 23.8331C29.9442 23.8331 29.9473 23.833 29.9505 23.8329Z" fill="white"/>
<path d="M29.9645 22.9939C29.9158 22.9918 29.8666 23.0412 29.8289 23.1414C29.8247 23.1525 29.8246 23.1709 29.8287 23.1826C29.8328 23.1939 29.8395 23.1943 29.8437 23.1832C29.8773 23.094 29.9208 23.0503 29.9641 23.052C30.0077 23.0539 30.051 23.1009 30.0837 23.1932C30.0878 23.2049 30.0946 23.2051 30.0988 23.1939C30.103 23.1828 30.103 23.1642 30.0989 23.1527C30.0622 23.0489 30.0134 22.9961 29.9645 22.9939Z" fill="#333333"/>
<path d="M29.999 23.1289C29.9631 23.1277 29.9267 23.1544 29.8989 23.2092C29.8925 23.2217 29.8924 23.2423 29.8986 23.2552C29.9048 23.2681 29.915 23.2685 29.9214 23.2558C29.9429 23.2137 29.9707 23.1933 29.9986 23.1939C30.0263 23.195 30.0538 23.2173 30.0746 23.2608C30.0808 23.2735 30.0911 23.2737 30.0975 23.2614C30.1039 23.2487 30.104 23.2283 30.0978 23.2152C30.0708 23.1592 30.0349 23.13 29.999 23.1289Z" fill="#333333"/>
<path d="M29.9648 23.0489C29.9283 23.047 29.8914 23.0878 29.8631 23.1716C29.8589 23.1841 29.8588 23.2047 29.8629 23.2178C29.867 23.2305 29.8738 23.231 29.878 23.2183C29.9021 23.1472 29.9333 23.1126 29.9644 23.1139C29.9956 23.1155 30.0264 23.153 30.0498 23.2266C30.0539 23.2393 30.0607 23.2397 30.0649 23.227C30.0692 23.2145 30.0693 23.1939 30.0652 23.1812C30.0378 23.0949 30.0013 23.0505 29.9648 23.0489Z" fill="#333333"/>
<path fill-rule="evenodd" clip-rule="evenodd" d="M30.0623 23.3384C30.0765 23.3483 30.0874 23.3617 30.095 23.3787C30.1027 23.3958 30.1065 23.4165 30.1065 23.441C30.1065 23.4425 30.1064 23.4441 30.1064 23.4456C30.1217 23.4287 30.1292 23.4066 30.1292 23.3792C30.1292 23.346 30.1175 23.3205 30.0936 23.3027C30.0696 23.2851 30.0351 23.276 29.9906 23.276H29.9209V23.3107H29.9424C29.9695 23.3107 29.9927 23.3129 30.0118 23.3171C30.0313 23.3213 30.0482 23.3284 30.0623 23.3384ZM29.9209 23.3107H29.8208V23.7178H29.9209V23.5709H29.9559C29.9762 23.5709 29.9957 23.5679 30.0147 23.5618C30.0332 23.5559 30.0494 23.5471 30.0632 23.5357C30.0767 23.5244 30.0874 23.5108 30.095 23.495C30.1021 23.4803 30.1058 23.4638 30.1064 23.4456C30.1026 23.4497 30.0984 23.4536 30.0936 23.4571C30.0696 23.4752 30.0351 23.4844 29.9906 23.4844H29.9209V23.3107Z" fill="#333333"/>
<rect x="26.0723" y="25.7109" width="8.30696" height="1.66139" rx="0.830696" fill="#E5E9F2" stroke="white" stroke-width="1.04167"/>
<path d="M28.3068 26.2133C28.3068 26.2602 28.2903 26.2974 28.2571 26.3248C28.2246 26.3522 28.1799 26.3659 28.1229 26.3659C28.0566 26.3659 28.0029 26.3547 27.9618 26.3323V26.249C28.0101 26.2779 28.062 26.2923 28.1175 26.2923C28.1507 26.2923 28.176 26.2858 28.1933 26.2728C28.2106 26.2599 28.2192 26.2422 28.2192 26.2198C28.2192 26.1939 28.2095 26.1737 28.19 26.1593C28.1713 26.1448 28.1395 26.1286 28.0948 26.1106C28.0537 26.0947 28.0205 26.0749 27.9953 26.0511C27.9708 26.0273 27.9585 25.9952 27.9585 25.9548C27.9585 25.9094 27.9755 25.8733 28.0094 25.8466C28.044 25.8192 28.0869 25.8055 28.1381 25.8055C28.1951 25.8055 28.2409 25.8135 28.2755 25.8293V25.9105C28.2423 25.8903 28.1969 25.8802 28.1392 25.8802C28.1103 25.8802 28.0873 25.887 28.0699 25.9007C28.0534 25.9137 28.0451 25.9306 28.0451 25.9516C28.0451 25.9645 28.0476 25.9761 28.0526 25.9862C28.0577 25.9956 28.0674 26.0049 28.0818 26.0143C28.097 26.0237 28.1078 26.0302 28.1143 26.0338C28.1215 26.0367 28.1367 26.0431 28.1597 26.0532C28.2059 26.072 28.2419 26.0933 28.2679 26.1171C28.2939 26.1409 28.3068 26.173 28.3068 26.2133ZM28.6445 26.3594H28.5395L28.3708 25.8109H28.4616L28.5147 25.9927C28.5334 26.0561 28.5489 26.1117 28.5612 26.1593C28.5741 26.2061 28.5824 26.2375 28.586 26.2534L28.5915 26.2761C28.6023 26.2299 28.6286 26.1351 28.6704 25.9916L28.7223 25.8109H28.8132L28.8662 25.9916L28.9473 26.2772C28.9574 26.2346 28.9852 26.1394 29.0306 25.9916L29.0858 25.8109H29.1734L29.0004 26.3594H28.8954L28.8435 26.1798L28.7678 25.9061C28.757 25.9523 28.7324 26.0435 28.6942 26.1798L28.6445 26.3594ZM29.3692 26.3594H29.2838V25.8109H29.3692V26.3594ZM29.366 25.5989C29.3768 25.6097 29.3822 25.6231 29.3822 25.6389C29.3822 25.6548 29.3768 25.6681 29.366 25.679C29.3552 25.6891 29.3418 25.6941 29.3259 25.6941C29.3101 25.6941 29.2967 25.6891 29.2859 25.679C29.2758 25.6681 29.2708 25.6548 29.2708 25.6389C29.2708 25.6231 29.2758 25.6097 29.2859 25.5989C29.2967 25.5881 29.3101 25.5827 29.3259 25.5827C29.3418 25.5827 29.3552 25.5881 29.366 25.5989ZM29.6163 26.5725H29.5319V25.8109H29.6163V25.8942C29.6545 25.8329 29.7111 25.8023 29.7861 25.8023C29.8589 25.8023 29.9159 25.829 29.957 25.8823C29.9989 25.935 30.0198 26.001 30.0198 26.0803C30.0198 26.1647 29.9978 26.2339 29.9538 26.288C29.9105 26.3413 29.8539 26.368 29.7839 26.368C29.7118 26.368 29.6559 26.3374 29.6163 26.2761V26.5725ZM29.6163 26.0857C29.6163 26.1556 29.6325 26.2072 29.665 26.2404C29.6974 26.2736 29.7335 26.2901 29.7731 26.2901C29.8193 26.2901 29.8571 26.2721 29.8867 26.2361C29.9163 26.1993 29.9311 26.1474 29.9311 26.0803C29.9311 26.0204 29.9166 25.9721 29.8878 25.9353C29.8589 25.8986 29.8225 25.8802 29.7785 25.8802C29.7345 25.8802 29.6963 25.8964 29.6639 25.9288C29.6321 25.9606 29.6163 26.0129 29.6163 26.0857ZM30.5459 26.3313C30.5034 26.3536 30.4514 26.3648 30.3901 26.3648C30.3072 26.3648 30.2401 26.3395 30.1889 26.2891C30.1384 26.2379 30.1132 26.1704 30.1132 26.0868C30.1132 25.9995 30.1359 25.9306 30.1814 25.8802C30.2268 25.8297 30.2852 25.8044 30.3566 25.8044C30.4251 25.8044 30.4796 25.8264 30.5199 25.8704C30.5603 25.9144 30.5805 25.9768 30.5805 26.0576C30.5805 26.0806 30.5787 26.1019 30.5751 26.1214H30.2008C30.2073 26.1755 30.2279 26.2169 30.2625 26.2458C30.2971 26.2746 30.3425 26.2891 30.3988 26.2891C30.4601 26.2891 30.5091 26.2764 30.5459 26.2512V26.3313ZM30.3566 25.8791C30.3155 25.8791 30.2805 25.8939 30.2517 25.9234C30.2228 25.953 30.2059 25.9952 30.2008 26.05H30.4951V26.0284C30.4951 25.9829 30.4828 25.9469 30.4583 25.9202C30.4338 25.8928 30.3999 25.8791 30.3566 25.8791ZM31.3843 26.0316L30.9289 26.2361V26.1474L31.2934 25.9894L30.9289 25.8337V25.746L31.3843 25.9494V26.0316ZM31.9547 26.0316L31.4993 26.2361V26.1474L31.8639 25.9894L31.4993 25.8337V25.746L31.9547 25.9494V26.0316Z" fill="#333333"/>
<circle cx="26.9029" cy="26.5416" r="0.593354" fill="#FDD300"/>
</g>
<defs>
<linearGradient id="paint0_linear_1_19304" x1="20.2907" y1="24.141" x2="20.2907" y2="33.9012" gradientUnits="userSpaceOnUse">
<stop stop-color="#FFD300"/>
<stop offset="1" stop-color="#FFB500"/>
</linearGradient>
<clipPath id="clip0_1_19304">
<rect width="50" height="50" fill="white" transform="translate(0.333984 -0.000976562)"/>
</clipPath>
</defs>
</svg>
