<svg width="116" height="25" viewBox="0 0 116 25" fill="none" xmlns="http://www.w3.org/2000/svg">
<path fill-rule="evenodd" clip-rule="evenodd" d="M28.9124 11.3238C29.6694 12.0029 30.2563 12.781 30.6713 13.6553C31.094 14.5591 31.3054 15.5324 31.3054 16.5791L31.2919 23.5629L27.0064 23.5219V23.12C26.7182 23.2448 26.5059 23.3305 26.3714 23.3743C25.4156 23.7391 24.4155 23.9238 23.3693 23.9238C21.9898 23.9238 20.6881 23.6067 19.4623 22.9734C18.2356 22.3295 17.2624 21.4534 16.5419 20.3457C15.8109 19.2191 15.4458 17.9629 15.4458 16.5791C15.4458 15.5324 15.6581 14.5591 16.0818 13.6553C16.5045 12.7619 17.0866 11.9848 17.8254 11.3238C18.5564 10.6619 19.4037 10.1581 20.3682 9.80764C21.3318 9.44287 22.3328 9.25907 23.3693 9.25907C24.3963 9.25907 25.3973 9.43811 26.3714 9.79526C27.3446 10.1534 28.1919 10.6619 28.9124 11.3238ZM23.3693 20.0486C24.3521 20.0486 25.1994 19.7114 25.9113 19.0305C26.6318 18.3438 26.993 17.5257 26.993 16.5791C26.993 15.9534 26.8268 15.3772 26.4925 14.8486C26.1591 14.3229 25.7134 13.9029 25.1533 13.5895C24.6038 13.2867 24.0091 13.1334 23.3693 13.1334C22.7478 13.1334 22.157 13.2867 21.5988 13.5895C21.0388 13.9029 20.593 14.3229 20.2597 14.8486C19.9263 15.3772 19.7592 15.9534 19.7592 16.5791C19.7592 17.5257 20.1194 18.3438 20.8409 19.0305C21.5527 19.7114 22.3962 20.0486 23.3693 20.0486Z" fill="#515257"/>
<path d="M43.1374 4.35459C42.7954 4.15745 42.4159 4.05935 42.0009 4.05935C41.5869 4.05935 41.2122 4.15745 40.8798 4.35459C40.5446 4.55078 40.2708 4.82316 40.0546 5.17269C39.8558 5.51269 39.7568 5.88697 39.7568 6.2984C39.7568 6.69935 39.8596 7.08031 40.0691 7.43745C40.266 7.77745 40.5359 8.05078 40.8798 8.25554C41.2122 8.45269 41.5869 8.55078 42.0009 8.55078C42.4159 8.55078 42.7954 8.44697 43.1374 8.24126C43.4794 8.03554 43.7503 7.76792 43.9492 7.43745C44.1471 7.10697 44.246 6.72792 44.246 6.2984C44.246 5.88697 44.1471 5.51269 43.9492 5.17269C43.7407 4.82316 43.4708 4.55078 43.1374 4.35459Z" fill="#515257"/>
<path d="M39.9199 23.5488H44.2333V9.80883L39.9199 9.82312V23.5488Z" fill="#515257"/>
<path d="M37.9587 9.80802C33.9748 10.0052 31.9824 12.0547 31.9824 15.9604V23.5547H36.3092V15.9604C36.3092 14.4861 36.8587 13.7261 37.9587 13.6814H38.2018C38.562 13.7004 38.855 13.7852 39.0798 13.9366V9.88802C38.7916 9.84421 38.4996 9.81754 38.2018 9.80802H37.9587Z" fill="#515257"/>
<path d="M85.1731 9.80802C81.1892 10.0052 79.1968 12.0547 79.1968 15.9604V23.5547H83.5236V15.9604C83.5236 14.4861 84.0731 13.7261 85.1731 13.6814H85.4161C85.7764 13.7004 86.0694 13.7852 86.2942 13.9366V9.88802C86.006 9.84421 85.7139 9.81754 85.4161 9.80802H85.1731Z" fill="#515257"/>
<path d="M113.594 9.80802C109.611 10.0052 107.618 12.0547 107.618 15.9604V23.5547H111.945V15.9604C111.945 14.4861 112.494 13.7261 113.594 13.6814H113.837C114.199 13.7004 114.491 13.7852 114.716 13.9366V9.88802C114.428 9.84421 114.135 9.81754 113.837 9.80802H113.594Z" fill="#515257"/>
<path d="M105.834 4.35459C105.491 4.15745 105.112 4.05935 104.698 4.05935C104.283 4.05935 103.909 4.15745 103.576 4.35459C103.242 4.55078 102.967 4.82316 102.751 5.17269C102.552 5.51269 102.453 5.88697 102.453 6.2984C102.453 6.69935 102.556 7.08031 102.764 7.43745C102.961 7.77745 103.232 8.05078 103.576 8.25554C103.909 8.45269 104.283 8.55078 104.698 8.55078C105.112 8.55078 105.491 8.44697 105.834 8.24126C106.176 8.03554 106.447 7.76792 106.644 7.43745C106.842 7.10697 106.942 6.72792 106.942 6.2984C106.942 5.88697 106.842 5.51269 106.644 5.17269C106.437 4.82316 106.166 4.55078 105.834 4.35459Z" fill="#515257"/>
<path d="M100.898 9.80815H95.829L91.3533 15.0091H91.2985V4.50053L86.9717 4.51387V23.5215H91.2985V16.7929L96.3833 23.5215H101.778L95.8962 15.6948L100.898 9.80815Z" fill="#515257"/>
<path d="M102.615 23.5488H106.93V9.80883L102.615 9.82312V23.5488Z" fill="#515257"/>
<path fill-rule="evenodd" clip-rule="evenodd" d="M76.1277 11.3238C76.8847 12.0029 77.4707 12.781 77.8857 13.6553C78.3093 14.5591 78.5207 15.5324 78.5207 16.5791L78.5072 23.5629L74.2217 23.5219V23.12C73.9316 23.2448 73.7203 23.3305 73.5858 23.3743C72.6299 23.7391 71.6299 23.9238 70.5837 23.9238C69.2042 23.9238 67.9015 23.6067 66.6757 22.9734C65.449 22.3295 64.4768 21.4534 63.7553 20.3457C63.0262 19.2191 62.6602 17.9629 62.6602 16.5791C62.6602 15.5324 62.8715 14.5591 63.2971 13.6553C63.7188 12.7619 64.301 11.9848 65.0397 11.3238C65.7698 10.6619 66.6181 10.1581 67.5816 9.80764C68.5471 9.44287 69.5471 9.25907 70.5837 9.25907C71.6116 9.25907 72.6117 9.43811 73.5858 9.79526C74.5589 10.1534 75.4062 10.6619 76.1277 11.3238ZM70.5837 20.0486C71.5665 20.0486 72.4138 19.7114 73.1256 19.0305C73.8471 18.3438 74.2073 17.5257 74.2073 16.5791C74.2073 15.9534 74.0402 15.3772 73.7059 14.8486C73.3735 14.3229 72.9277 13.9029 72.3686 13.5895C71.8182 13.2867 71.2245 13.1334 70.5837 13.1334C69.9612 13.1334 69.3704 13.2867 68.8142 13.5895C68.2531 13.9029 67.8074 14.3229 67.474 14.8486C67.1397 15.3772 66.9745 15.9534 66.9745 16.5791C66.9745 17.5257 67.3338 18.3438 68.0562 19.0305C68.7661 19.7114 69.6096 20.0486 70.5837 20.0486Z" fill="#515257"/>
<path d="M14.89 20.3461C14.3722 19.548 14.0427 18.6842 13.8909 17.7565L13.8794 17.7442C13.5192 18.1918 13.1311 18.5537 12.7161 18.8299C11.9418 19.3585 11.0993 19.6213 10.1886 19.6213C9.27784 19.6213 8.43534 19.3585 7.66009 18.8299C6.88483 18.3032 6.26713 17.6061 5.80793 16.7394C5.34777 15.8632 5.11818 14.9527 5.11818 14.0051C5.11818 13.0585 5.34297 12.1461 5.79352 11.2708C6.25368 10.4042 6.87138 9.70702 7.64568 9.17941C8.44015 8.65274 9.28649 8.38893 10.1886 8.38893C11.0897 8.38893 11.937 8.65274 12.7295 9.17941C13.0907 9.41179 13.4654 9.7556 13.8525 10.2127L16.9497 7.03465C16.3541 6.39179 15.6778 5.8375 14.9208 5.37274C13.4788 4.48798 11.9005 4.04607 10.1886 4.04607C8.48434 4.04607 6.90693 4.48798 5.45633 5.37274C3.99612 6.2756 2.84141 7.48131 1.99506 8.99179C1.1468 10.5108 0.723145 12.1823 0.723145 14.0051C0.723145 15.8185 1.1468 17.4861 1.99506 19.0061C2.84141 20.5156 3.99612 21.7165 5.45633 22.6108C6.90693 23.4956 8.48434 23.9375 10.1886 23.9375C11.9005 23.9375 13.4788 23.4956 14.9208 22.6108C15.3319 22.3575 15.72 22.0737 16.0889 21.7642C15.6326 21.3432 15.232 20.8718 14.89 20.3461Z" fill="#515257"/>
<path d="M55.1114 23.6934C55.1114 23.6934 54.0682 18.6429 58.3825 16.6086C61.4028 15.3438 63.522 12.3791 63.522 8.92384C63.522 4.31907 59.7562 0.585743 55.1114 0.585743C50.4666 0.585743 46.7018 4.31907 46.7018 8.92384C46.7018 8.92384 46.2042 17.7924 55.1114 23.6934" fill="#FFD300"/>
<path d="M55.2903 14.5734C55.2308 14.5753 55.1712 14.5781 55.1117 14.5781C52.6841 14.5781 50.6119 13.0734 49.7886 10.9543C49.5437 10.3238 49.4082 9.63908 49.4082 8.92289C49.4082 5.80098 51.9616 3.2686 55.1117 3.2686C58.2617 3.2686 60.8151 5.80098 60.8151 8.92289C60.8151 11.9867 58.3577 14.4791 55.2903 14.5734Z" fill="white"/>
<path d="M55.4433 4.64904C54.7526 4.63856 54.058 4.8919 53.5229 5.40523C53.4634 5.46237 53.4624 5.55666 53.5201 5.61666C53.5777 5.67475 53.6728 5.67666 53.7333 5.61952C54.2089 5.16237 54.8246 4.93856 55.4385 4.94714C56.0552 4.95666 56.6672 5.19761 57.1312 5.67095C57.1888 5.73095 57.2839 5.7319 57.3435 5.67475C57.4031 5.61761 57.405 5.52237 57.3464 5.46333C56.8257 4.93095 56.1359 4.66047 55.4433 4.64904Z" fill="#515257"/>
<path d="M55.426 6.03058C55.0907 6.02487 54.7525 6.14677 54.4932 6.39725C54.4336 6.45439 54.4317 6.54867 54.4893 6.60772C54.5479 6.66677 54.643 6.66867 54.7026 6.61058C54.9034 6.4182 55.1627 6.32487 55.4212 6.32772C55.6805 6.33248 55.9361 6.43439 56.1311 6.63344C56.1887 6.69153 56.2848 6.69248 56.3444 6.63629C56.4039 6.5782 56.4049 6.48487 56.3463 6.42487C56.0956 6.16868 55.7612 6.03534 55.426 6.03058Z" fill="#515257"/>
<path d="M55.4363 5.34035C54.9233 5.33178 54.4055 5.51844 54.0088 5.9013C53.9492 5.95844 53.9473 6.05273 54.0049 6.11273C54.0626 6.17083 54.1577 6.17273 54.2173 6.11463C54.5564 5.78987 54.9944 5.63178 55.4325 5.63749C55.8696 5.64511 56.3019 5.81654 56.6314 6.15273C56.689 6.21083 56.7841 6.21273 56.8437 6.15463C56.9033 6.09749 56.9052 6.00321 56.8466 5.94511C56.4614 5.55083 55.9493 5.34797 55.4363 5.34035Z" fill="#515257"/>
<path fill-rule="evenodd" clip-rule="evenodd" d="M56.8306 7.62741C57.0304 7.76646 57.1851 7.95503 57.2936 8.19408C57.4022 8.43313 57.456 8.72455 57.456 9.06836C57.456 9.34932 57.4022 9.60265 57.2936 9.82551C57.1851 10.0484 57.0352 10.2388 56.8421 10.3969C56.6471 10.5579 56.4185 10.6807 56.1562 10.7636C55.8882 10.8493 55.6106 10.8922 55.3243 10.8922H54.8276V12.9531H53.4106V7.23979H55.1331C55.5174 7.23979 55.845 7.27027 56.1159 7.32932C56.3916 7.38836 56.6298 7.48741 56.8306 7.62741ZM55.234 9.68074C55.4943 9.68074 55.6951 9.62646 55.8354 9.51979C55.9737 9.41503 56.0429 9.2617 56.0429 9.06074C56.0429 8.86455 55.9737 8.71408 55.8354 8.60932C55.6951 8.50551 55.4943 8.45217 55.234 8.45217H54.8276V9.68074H55.234Z" fill="#515257"/>
</svg>
