<svg width="40" height="41" viewBox="0 0 40 41" fill="none" xmlns="http://www.w3.org/2000/svg">
<rect y="0.946167" width="40" height="39.1076" rx="19.5538" fill="#FFD300"/>
<path d="M20.0021 32.054C20.0021 32.054 18.9588 27.0035 23.2731 24.9692C26.2934 23.7044 28.4127 20.7397 28.4127 17.2844C28.4127 12.6797 24.6469 8.94634 20.0021 8.94634C15.3573 8.94634 11.5924 12.6797 11.5924 17.2844C11.5924 17.2844 11.0948 26.153 20.0021 32.054" fill="white"/>
<path d="M20.1807 22.9349C20.1212 22.9368 20.0616 22.9397 20.002 22.9397C17.5744 22.9397 15.5023 21.4349 14.679 19.3159C14.434 18.6854 14.2986 18.0006 14.2986 17.2845C14.2986 14.1626 16.852 11.6302 20.002 11.6302C23.152 11.6302 25.7055 14.1626 25.7055 17.2845C25.7055 20.3483 23.2481 22.8406 20.1807 22.9349Z" fill="#FFD300"/>
<path d="M20.3344 13.0101C19.6437 12.9996 18.9491 13.253 18.4141 13.7663C18.3545 13.8235 18.3535 13.9177 18.4112 13.9777C18.4688 14.0358 18.5639 14.0377 18.6244 13.9806C19.1 13.5235 19.7158 13.2996 20.3296 13.3082C20.9464 13.3177 21.5583 13.5587 22.0223 14.032C22.0799 14.092 22.175 14.093 22.2346 14.0358C22.2942 13.9787 22.2961 13.8835 22.2375 13.8244C21.7168 13.292 21.0271 13.0216 20.3344 13.0101Z" fill="#515257"/>
<path d="M20.3181 14.3914C19.9828 14.3857 19.6446 14.5076 19.3853 14.7581C19.3257 14.8152 19.3238 14.9095 19.3814 14.9686C19.44 15.0276 19.5351 15.0295 19.5947 14.9714C19.7955 14.779 20.0548 14.6857 20.3133 14.6886C20.5726 14.6933 20.8282 14.7952 21.0232 14.9943C21.0808 15.0524 21.1769 15.0533 21.2365 14.9971C21.296 14.939 21.297 14.8457 21.2384 14.7857C20.9876 14.5295 20.6533 14.3962 20.3181 14.3914Z" fill="#515257"/>
<path d="M20.3284 13.7012C19.8154 13.6926 19.2976 13.8793 18.9009 14.2621C18.8413 14.3193 18.8394 14.4136 18.897 14.4736C18.9547 14.5317 19.0498 14.5336 19.1093 14.4755C19.4485 14.1507 19.8865 13.9926 20.3246 13.9983C20.7617 14.006 21.194 14.1774 21.5235 14.5136C21.5811 14.5717 21.6762 14.5736 21.7358 14.5155C21.7954 14.4583 21.7973 14.364 21.7387 14.306C21.3534 13.9117 20.8414 13.7088 20.3284 13.7012Z" fill="#515257"/>
<path fill-rule="evenodd" clip-rule="evenodd" d="M21.7222 15.9875C21.922 16.1266 22.0767 16.3151 22.1852 16.5542C22.2938 16.7932 22.3476 17.0847 22.3476 17.4285C22.3476 17.7094 22.2938 17.9628 22.1852 18.1856C22.0767 18.4085 21.9268 18.5989 21.7337 18.757C21.5387 18.918 21.3101 19.0409 21.0478 19.1237C20.7798 19.2094 20.5022 19.2523 20.2159 19.2523H19.7192V21.3132H18.3022V15.5999H20.0247C20.409 15.5999 20.7366 15.6304 21.0075 15.6894C21.2832 15.7485 21.5214 15.8475 21.7222 15.9875ZM20.1256 18.0409C20.3859 18.0409 20.5867 17.9866 20.727 17.8799C20.8653 17.7751 20.9345 17.6218 20.9345 17.4209C20.9345 17.2247 20.8653 17.0742 20.727 16.9694C20.5867 16.8656 20.3859 16.8123 20.1256 16.8123H19.7192V18.0409H20.1256Z" fill="#515257"/>
</svg>
