<svg width="19" height="19" viewBox="0 0 19 19" fill="none" xmlns="http://www.w3.org/2000/svg">
<path fill-rule="evenodd" clip-rule="evenodd" d="M0.75293 9.49969C0.75293 4.48579 4.8177 0.420898 9.83173 0.420898C14.8457 0.420898 18.9108 4.48579 18.9108 9.49969C18.9108 14.5136 14.8457 18.5788 9.83173 18.5788C4.8177 18.5788 0.75293 14.5136 0.75293 9.49969ZM9.90769 11.2265H13.7567C14.1035 11.2265 14.3844 10.9453 14.3844 10.5986C14.3844 10.2518 14.1033 9.97066 13.7565 9.97066H10.4596V4.18866C10.4596 3.8419 10.1784 3.56075 9.83167 3.56075C9.4849 3.56075 9.20375 3.8419 9.20375 4.18866V10.5986C9.20375 10.9453 9.4849 11.2265 9.83167 11.2265C9.83892 11.2265 9.84587 11.2255 9.85281 11.2246C9.85838 11.2239 9.86394 11.2231 9.86968 11.2228C9.87559 11.2231 9.88133 11.2239 9.88708 11.2246C9.89386 11.2256 9.90064 11.2265 9.90769 11.2265Z" fill="#E5E9F2"/>
</svg>
