<svg width="36" height="43" viewBox="0 0 36 43" fill="none" xmlns="http://www.w3.org/2000/svg">
<mask id="path-1-outside-1_1_25194" maskUnits="userSpaceOnUse" x="0.0415039" y="1.93359" width="36" height="38" fill="black">
<rect fill="white" x="0.0415039" y="1.93359" width="36" height="38"/>
<path fill-rule="evenodd" clip-rule="evenodd" d="M5.12484 31.5769L5.13786 10.5255C5.13786 8.59578 6.29671 7.01693 7.729 7.01693H28.5623C29.9946 7.01693 31.1665 8.59578 31.1665 10.5255V31.5769C31.1665 33.5066 29.9946 35.0855 28.5623 35.0855H7.729C6.29671 35.0855 5.12484 33.5066 5.12484 31.5769ZM3.05452 10.5255L3.0415 31.5756V31.5769C3.0415 32.9478 3.45483 34.2697 4.21693 35.2965C4.97711 36.3207 6.19541 37.1688 7.729 37.1688H28.5623C30.0959 37.1688 31.3142 36.3207 32.0744 35.2965C32.8365 34.2697 33.2498 32.9478 33.2498 31.5769V10.5255C33.2498 9.15463 32.8365 7.83267 32.0744 6.8059C31.3142 5.78171 30.0959 4.93359 28.5623 4.93359H7.729C6.1927 4.93359 4.97628 5.78455 4.21934 6.81145C3.46179 7.83917 3.05478 9.15918 3.05453 10.5242C3.05453 10.5245 3.05452 10.5247 3.05452 10.5249C3.05452 10.5251 3.05452 10.5253 3.05452 10.5255ZM18.6665 26.6142L17.3026 25.4328L6.88589 16.4108L6.1665 15.7877V14.836V11.2272V6.66669L9.61378 9.65243L18.6665 17.4931L27.7192 9.65243L31.1665 6.66669V11.2272V14.836H29.0832V13.9833V11.2272L26.9998 13.0316L18.6665 20.2492L10.3332 13.0316L8.24984 11.2272V13.9833V14.836L18.6665 23.8581L29.0832 14.836L30.4471 16.4108L20.0304 25.4328L18.6665 26.6142Z"/>
</mask>
<path d="M5.13786 10.5255L7.22119 10.5268V10.5255H5.13786ZM5.12484 31.5769L3.0415 31.5756V31.5769H5.12484ZM3.05452 10.5255L5.13786 10.5268V10.5255H3.05452ZM3.0415 31.5756L0.958171 31.5743V31.5756H3.0415ZM4.21693 35.2965L2.54404 36.5382H2.54404L4.21693 35.2965ZM32.0744 35.2965L30.4015 34.0548V34.0548L32.0744 35.2965ZM32.0744 6.8059L30.4015 8.04757V8.04757L32.0744 6.8059ZM4.21934 6.81145L2.54235 5.57532H2.54235L4.21934 6.81145ZM3.05453 10.5242L0.971192 10.5238V10.5242H3.05453ZM17.3026 25.4328L15.9386 27.0076H15.9386L17.3026 25.4328ZM18.6665 26.6142L17.3026 28.189L18.6665 29.3703L20.0304 28.189L18.6665 26.6142ZM6.88589 16.4108L5.52195 17.9856H5.52195L6.88589 16.4108ZM6.1665 15.7877H4.08317V16.7394L4.80256 17.3625L6.1665 15.7877ZM6.1665 6.66669L7.53045 5.09191L4.08317 2.10617V6.66669H6.1665ZM9.61378 9.65243L8.24984 11.2272L9.61378 9.65243ZM18.6665 17.4931L17.3026 19.0679L18.6665 20.2492L20.0304 19.0679L18.6665 17.4931ZM27.7192 9.65243L26.3553 8.07765V8.07765L27.7192 9.65243ZM31.1665 6.66669H33.2498V2.10617L29.8026 5.09191L31.1665 6.66669ZM31.1665 14.836V16.9194H33.2498V14.836H31.1665ZM29.0832 11.2272H31.1665V6.66669L27.7192 9.65243L29.0832 11.2272ZM26.9998 13.0316L25.6359 11.4568L26.9998 13.0316ZM18.6665 20.2492L17.3026 21.824L18.6665 23.0054L20.0304 21.824L18.6665 20.2492ZM10.3332 13.0316L8.96923 14.6064L10.3332 13.0316ZM8.24984 11.2272L9.61378 9.65243L6.1665 6.66669V11.2272H8.24984ZM8.24984 14.836H6.1665V15.7877L6.88589 16.4108L8.24984 14.836ZM18.6665 23.8581L17.3026 25.4328L18.6665 26.6142L20.0304 25.4328L18.6665 23.8581ZM30.4471 16.4108L31.8111 17.9856L33.3858 16.6216L32.0219 15.0469L30.4471 16.4108ZM20.0304 25.4328L21.3944 27.0076L20.0304 25.4328ZM3.05453 10.5242L3.0415 31.5756L7.20817 31.5782L7.22119 10.5268L3.05453 10.5242ZM7.729 4.93359C6.1927 4.93359 4.97628 5.78455 4.21934 6.81145C3.46155 7.83949 3.05452 9.16001 3.05452 10.5255H7.22119C7.22119 9.96127 7.39359 9.5275 7.57331 9.28369C7.75387 9.03873 7.83302 9.10026 7.729 9.10026V4.93359ZM28.5623 4.93359H7.729V9.10026H28.5623V4.93359ZM33.2498 10.5255C33.2498 9.15463 32.8365 7.83267 32.0744 6.8059C31.3142 5.78171 30.0959 4.93359 28.5623 4.93359V9.10026C28.461 9.10026 28.5448 9.04157 28.7286 9.28924C28.9106 9.53432 29.0832 9.96665 29.0832 10.5255H33.2498ZM33.2498 31.5769V10.5255H29.0832V31.5769H33.2498ZM28.5623 37.1688C30.0959 37.1688 31.3142 36.3207 32.0744 35.2965C32.8365 34.2697 33.2498 32.9478 33.2498 31.5769H29.0832C29.0832 32.1358 28.9106 32.5681 28.7286 32.8132C28.5448 33.0608 28.461 33.0021 28.5623 33.0021V37.1688ZM7.729 37.1688H28.5623V33.0021H7.729V37.1688ZM3.0415 31.5769C3.0415 32.9478 3.45483 34.2697 4.21693 35.2965C4.97711 36.3207 6.19541 37.1688 7.729 37.1688V33.0021C7.83031 33.0021 7.74652 33.0608 7.5627 32.8132C7.38078 32.5681 7.20817 32.1358 7.20817 31.5769H3.0415ZM0.971192 10.5242L0.958171 31.5743L5.12484 31.5769L5.13786 10.5268L0.971192 10.5242ZM0.958171 31.5756V31.5769H5.12484V31.5756H0.958171ZM0.958171 31.5769C0.958171 33.3532 1.49155 35.1202 2.54404 36.5382L5.88981 34.0548C5.4181 33.4193 5.12484 32.5423 5.12484 31.5769H0.958171ZM2.54404 36.5382C3.58821 37.945 5.3723 39.2522 7.729 39.2522V35.0855C7.01852 35.0855 6.36602 34.6964 5.88981 34.0548L2.54404 36.5382ZM7.729 39.2522H28.5623V35.0855H7.729V39.2522ZM28.5623 39.2522C30.919 39.2522 32.7031 37.945 33.7473 36.5382L30.4015 34.0548C29.9253 34.6964 29.2728 35.0855 28.5623 35.0855V39.2522ZM33.7473 36.5382C34.7998 35.1202 35.3332 33.3532 35.3332 31.5769H31.1665C31.1665 32.5423 30.8732 33.4193 30.4015 34.0548L33.7473 36.5382ZM35.3332 31.5769V10.5255H31.1665V31.5769H35.3332ZM35.3332 10.5255C35.3332 8.74917 34.7998 6.98225 33.7473 5.56424L30.4015 8.04757C30.8732 8.6831 31.1665 9.5601 31.1665 10.5255H35.3332ZM33.7473 5.56424C32.7031 4.15743 30.919 2.85026 28.5623 2.85026V7.01693C29.2728 7.01693 29.9253 7.40598 30.4015 8.04757L33.7473 5.56424ZM28.5623 2.85026H7.729V7.01693H28.5623V2.85026ZM7.729 2.85026C5.3668 2.85026 3.58324 4.1632 2.54235 5.57532L5.89632 8.04757C6.36931 7.40589 7.0186 7.01693 7.729 7.01693V2.85026ZM2.54235 5.57532C1.49554 6.99547 0.971523 8.75885 0.971192 10.5238L5.13786 10.5246C5.13804 9.55951 5.42803 8.68287 5.89632 8.04757L2.54235 5.57532ZM0.971192 10.5242L0.971191 10.5249H5.13786L5.13786 10.5242H0.971192ZM0.971191 10.5249C0.971191 10.5249 0.971191 10.5249 0.971191 10.5249C0.971191 10.5249 0.971191 10.5249 0.971191 10.5249C0.971191 10.5249 0.971191 10.5249 0.971191 10.5249C0.971191 10.5249 0.971191 10.5249 0.971191 10.5249C0.971191 10.5249 0.971191 10.5249 0.971191 10.5249C0.971191 10.5249 0.971191 10.5249 0.971191 10.5249C0.971191 10.5249 0.971191 10.525 0.971191 10.525C0.971191 10.525 0.971191 10.525 0.971191 10.525C0.971191 10.525 0.971191 10.525 0.971191 10.525C0.971191 10.525 0.971191 10.525 0.971191 10.525C0.971191 10.525 0.971191 10.525 0.971191 10.525C0.971191 10.525 0.971191 10.525 0.971191 10.525C0.971191 10.525 0.971191 10.525 0.971191 10.525C0.971191 10.525 0.971191 10.525 0.971191 10.525C0.971191 10.525 0.971191 10.525 0.971191 10.525C0.971191 10.525 0.971191 10.525 0.971191 10.525C0.971191 10.525 0.971191 10.525 0.971191 10.525C0.971191 10.525 0.971191 10.525 0.971191 10.525C0.971191 10.525 0.971191 10.525 0.971191 10.525C0.971191 10.525 0.971191 10.525 0.971191 10.525C0.971191 10.525 0.971191 10.525 0.971191 10.525C0.971191 10.525 0.971191 10.525 0.971191 10.525C0.971191 10.525 0.971191 10.525 0.971191 10.525C0.971191 10.525 0.971191 10.525 0.971191 10.525C0.971191 10.525 0.971191 10.525 0.971191 10.525C0.971191 10.525 0.971191 10.525 0.971191 10.525C0.971191 10.525 0.971191 10.525 0.971191 10.525C0.971191 10.525 0.971191 10.525 0.971191 10.525C0.971191 10.525 0.971191 10.525 0.971191 10.525C0.971191 10.525 0.971191 10.525 0.971191 10.525C0.971191 10.525 0.971191 10.525 0.971191 10.525C0.971191 10.525 0.971191 10.525 0.971191 10.525C0.971191 10.525 0.971191 10.525 0.971191 10.525C0.971191 10.525 0.971191 10.525 0.971191 10.525C0.971191 10.525 0.971191 10.525 0.971191 10.525C0.971191 10.525 0.971191 10.525 0.971191 10.525C0.971191 10.525 0.971191 10.525 0.971191 10.525C0.971191 10.525 0.971191 10.525 0.971191 10.525C0.971191 10.525 0.971191 10.525 0.971191 10.525C0.971191 10.525 0.971191 10.525 0.971191 10.525C0.971191 10.525 0.971191 10.525 0.971191 10.525C0.971191 10.525 0.971191 10.525 0.971191 10.525C0.971191 10.525 0.971191 10.525 0.971191 10.525C0.971191 10.525 0.971191 10.525 0.971191 10.525C0.971191 10.525 0.971191 10.525 0.971191 10.525C0.971191 10.525 0.971191 10.525 0.971191 10.525C0.971191 10.525 0.971191 10.525 0.971191 10.525C0.971191 10.525 0.971191 10.525 0.971191 10.525C0.971191 10.525 0.971191 10.525 0.971191 10.525C0.971191 10.525 0.971191 10.525 0.971191 10.525C0.971191 10.525 0.971191 10.525 0.971191 10.525C0.971191 10.525 0.971191 10.525 0.971191 10.525C0.971191 10.525 0.971191 10.525 0.971191 10.525C0.971191 10.525 0.971191 10.525 0.971191 10.525C0.971191 10.525 0.971191 10.525 0.971191 10.525C0.971191 10.525 0.971191 10.525 0.971191 10.525C0.971191 10.525 0.971191 10.525 0.971191 10.525C0.971191 10.525 0.971191 10.525 0.971191 10.525C0.971191 10.525 0.971191 10.525 0.971191 10.525C0.971191 10.525 0.971191 10.525 0.971191 10.525C0.971191 10.525 0.971191 10.525 0.971191 10.525C0.971191 10.525 0.971191 10.525 0.971191 10.525C0.971191 10.525 0.971191 10.525 0.971191 10.525C0.971191 10.525 0.971191 10.525 0.971191 10.525C0.971191 10.525 0.971191 10.525 0.971191 10.525C0.971191 10.525 0.971191 10.525 0.971191 10.525C0.971191 10.525 0.971191 10.525 0.971191 10.525C0.971191 10.525 0.971191 10.525 0.971191 10.525C0.971191 10.525 0.971191 10.525 0.971191 10.525C0.971191 10.525 0.971191 10.525 0.971191 10.525C0.971191 10.525 0.971191 10.525 0.971191 10.525C0.971191 10.525 0.971191 10.525 0.971191 10.525C0.971191 10.525 0.971191 10.525 0.971191 10.525C0.971191 10.525 0.971191 10.525 0.971191 10.525C0.971191 10.525 0.971191 10.525 0.971191 10.525C0.971191 10.525 0.971191 10.525 0.971191 10.525C0.971191 10.525 0.971191 10.525 0.971191 10.525C0.971191 10.525 0.971191 10.525 0.971191 10.525C0.971191 10.525 0.971191 10.525 0.971191 10.525C0.971191 10.525 0.971191 10.525 0.971191 10.525C0.971191 10.525 0.971191 10.525 0.971191 10.525C0.971191 10.525 0.971191 10.525 0.971191 10.525C0.971191 10.525 0.971191 10.525 0.971191 10.525C0.971191 10.525 0.971191 10.525 0.971191 10.525C0.971191 10.525 0.971191 10.525 0.971191 10.525C0.971191 10.525 0.971191 10.525 0.971191 10.525C0.971191 10.525 0.971191 10.525 0.971191 10.525C0.971191 10.525 0.971191 10.525 0.971191 10.525C0.971191 10.525 0.971191 10.525 0.971191 10.525C0.971191 10.525 0.971191 10.525 0.971191 10.525C0.971191 10.525 0.971191 10.525 0.971191 10.525C0.971191 10.525 0.971191 10.525 0.971191 10.525C0.971191 10.525 0.971191 10.525 0.971191 10.525C0.971191 10.525 0.971191 10.525 0.971191 10.525C0.971191 10.525 0.971191 10.525 0.971191 10.525C0.971191 10.525 0.971191 10.525 0.971191 10.525C0.971191 10.525 0.971191 10.525 0.971191 10.525C0.971191 10.525 0.971191 10.525 0.971191 10.525C0.971191 10.525 0.971191 10.525 0.971191 10.525C0.971191 10.5251 0.971191 10.5251 0.971191 10.5251C0.971191 10.5251 0.971191 10.5251 0.971191 10.5251C0.971191 10.5251 0.971191 10.5251 0.971191 10.5251C0.971191 10.5251 0.971191 10.5251 0.971191 10.5251C0.971191 10.5251 0.971191 10.5251 0.971191 10.5251C0.971191 10.5251 0.971191 10.5251 0.971191 10.5251C0.971191 10.5251 0.971191 10.5251 0.971191 10.5251C0.971191 10.5251 0.971191 10.5251 0.971191 10.5251C0.971191 10.5251 0.971191 10.5251 0.971191 10.5251C0.971191 10.5251 0.971191 10.5251 0.971191 10.5251C0.971191 10.5251 0.971191 10.5251 0.971191 10.5251C0.971191 10.5251 0.971191 10.5251 0.971191 10.5251C0.971191 10.5251 0.971191 10.5251 0.971191 10.5251C0.971191 10.5251 0.971191 10.5251 0.971191 10.5251C0.971191 10.5251 0.971191 10.5251 0.971191 10.5251C0.971191 10.5251 0.971191 10.5251 0.971191 10.5251C0.971191 10.5251 0.971191 10.5251 0.971191 10.5251C0.971191 10.5251 0.971191 10.5251 0.971191 10.5251C0.971191 10.5251 0.971191 10.5251 0.971191 10.5251C0.971191 10.5251 0.971191 10.5251 0.971191 10.5251C0.971191 10.5251 0.971191 10.5251 0.971191 10.5251C0.971191 10.5251 0.971191 10.5251 0.971191 10.5251C0.971191 10.5251 0.971191 10.5251 0.971191 10.5251C0.971191 10.5251 0.971191 10.5251 0.971191 10.5251C0.971191 10.5251 0.971191 10.5251 0.971191 10.5251C0.971191 10.5251 0.971191 10.5251 0.971191 10.5251C0.971191 10.5251 0.971191 10.5251 0.971191 10.5251C0.971191 10.5251 0.971191 10.5251 0.971191 10.5251C0.971191 10.5251 0.971191 10.5251 0.971191 10.5251C0.971191 10.5251 0.971191 10.5251 0.971191 10.5251C0.971191 10.5251 0.971191 10.5251 0.971191 10.5251C0.971191 10.5251 0.971191 10.5251 0.971191 10.5251C0.971191 10.5251 0.971191 10.5251 0.971191 10.5251C0.971191 10.5251 0.971191 10.5251 0.971191 10.5251C0.971191 10.5251 0.971191 10.5251 0.971191 10.5251C0.971191 10.5251 0.971191 10.5251 0.971191 10.5251C0.971191 10.5251 0.971191 10.5251 0.971191 10.5251C0.971191 10.5251 0.971191 10.5251 0.971191 10.5251C0.971191 10.5251 0.971191 10.5251 0.971191 10.5251C0.971191 10.5251 0.971191 10.5251 0.971191 10.5251C0.971191 10.5251 0.971191 10.5251 0.971191 10.5251C0.971191 10.5251 0.971191 10.5251 0.971191 10.5251C0.971191 10.5251 0.971191 10.5251 0.971191 10.5251C0.971191 10.5251 0.971191 10.5251 0.971191 10.5251C0.971191 10.5251 0.971191 10.5251 0.971191 10.5251C0.971191 10.5251 0.971191 10.5251 0.971191 10.5251C0.971191 10.5251 0.971191 10.5251 0.971191 10.5251C0.971191 10.5251 0.971191 10.5251 0.971191 10.5251C0.971191 10.5251 0.971191 10.5251 0.971191 10.5251C0.971191 10.5251 0.971191 10.5251 0.971191 10.5251C0.971191 10.5251 0.971191 10.5251 0.971191 10.5251C0.971191 10.5251 0.971191 10.5251 0.971191 10.5251C0.971191 10.5251 0.971191 10.5251 0.971191 10.5251C0.971191 10.5251 0.971191 10.5251 0.971191 10.5251C0.971191 10.5251 0.971191 10.5251 0.971191 10.5251C0.971191 10.5251 0.971191 10.5251 0.971191 10.5251C0.971191 10.5251 0.971191 10.5251 0.971191 10.5251C0.971191 10.5251 0.971191 10.5251 0.971191 10.5251C0.971191 10.5251 0.971191 10.5251 0.971191 10.5251C0.971191 10.5251 0.971191 10.5251 0.971191 10.5251C0.971191 10.5251 0.971191 10.5251 0.971191 10.5251C0.971191 10.5251 0.971191 10.5251 0.971191 10.5251C0.971191 10.5251 0.971191 10.5251 0.971191 10.5251C0.971191 10.5251 0.971191 10.5251 0.971191 10.5251C0.971191 10.5251 0.971191 10.5251 0.971191 10.5251C0.971191 10.5251 0.971191 10.5251 0.971191 10.5251C0.971191 10.5251 0.971191 10.5251 0.971191 10.5251C0.971191 10.5251 0.971191 10.5251 0.971191 10.5251C0.971191 10.5251 0.971191 10.5251 0.971191 10.5251C0.971191 10.5251 0.971191 10.5251 0.971191 10.5251C0.971191 10.5251 0.971191 10.5251 0.971191 10.5251C0.971191 10.5251 0.971191 10.5251 0.971191 10.5251C0.971191 10.5251 0.971191 10.5251 0.971191 10.5251C0.971191 10.5251 0.971191 10.5251 0.971191 10.5251C0.971191 10.5251 0.971191 10.5251 0.971191 10.5251C0.971191 10.5251 0.971191 10.5251 0.971191 10.5251C0.971191 10.5251 0.971191 10.5251 0.971191 10.5251C0.971191 10.5251 0.971191 10.5251 0.971191 10.5251C0.971191 10.5251 0.971191 10.5251 0.971191 10.5251C0.971191 10.5251 0.971191 10.5251 0.971191 10.5251C0.971191 10.5251 0.971191 10.5251 0.971191 10.5251C0.971191 10.5251 0.971191 10.5251 0.971191 10.5251C0.971191 10.5251 0.971191 10.5251 0.971191 10.5251C0.971191 10.5251 0.971191 10.5251 0.971191 10.5251C0.971191 10.5251 0.971191 10.5251 0.971191 10.5251C0.971191 10.5251 0.971191 10.5251 0.971191 10.5251C0.971191 10.5251 0.971191 10.5251 0.971191 10.5251C0.971191 10.5251 0.971191 10.5251 0.971191 10.5251C0.971191 10.5251 0.971191 10.5251 0.971191 10.5251C0.971191 10.5251 0.971191 10.5251 0.971191 10.5251C0.971191 10.5251 0.971191 10.5251 0.971191 10.5251C0.971191 10.5251 0.971191 10.5251 0.971191 10.5251C0.971191 10.5251 0.971191 10.5251 0.971191 10.5252C0.971191 10.5252 0.971191 10.5252 0.971191 10.5252C0.971191 10.5252 0.971191 10.5252 0.971191 10.5252C0.971191 10.5252 0.971191 10.5252 0.971191 10.5252C0.971191 10.5252 0.971191 10.5252 0.971191 10.5252C0.971191 10.5252 0.971191 10.5252 0.971191 10.5252C0.971191 10.5252 0.971191 10.5252 0.971191 10.5252C0.971191 10.5252 0.971191 10.5252 0.971191 10.5252C0.971191 10.5252 0.971191 10.5252 0.971191 10.5252C0.971191 10.5252 0.971191 10.5252 0.971191 10.5252C0.971191 10.5252 0.971191 10.5252 0.971191 10.5252C0.971191 10.5252 0.971191 10.5252 0.971191 10.5252C0.971191 10.5252 0.971191 10.5252 0.971191 10.5252C0.971191 10.5252 0.971191 10.5252 0.971191 10.5252C0.971191 10.5252 0.971191 10.5252 0.971191 10.5252C0.971191 10.5252 0.971191 10.5252 0.971191 10.5252C0.971191 10.5252 0.971191 10.5252 0.971191 10.5252C0.971191 10.5252 0.971191 10.5252 0.971191 10.5252C0.971191 10.5252 0.971191 10.5252 0.971191 10.5252C0.971191 10.5252 0.971191 10.5252 0.971191 10.5252C0.971191 10.5252 0.971191 10.5252 0.971191 10.5252C0.971191 10.5252 0.971191 10.5252 0.971191 10.5252C0.971191 10.5252 0.971191 10.5252 0.971191 10.5252C0.971191 10.5252 0.971191 10.5252 0.971191 10.5252C0.971191 10.5252 0.971191 10.5252 0.971191 10.5252C0.971191 10.5252 0.971191 10.5252 0.971191 10.5252C0.971191 10.5252 0.971191 10.5252 0.971191 10.5252C0.971191 10.5252 0.971191 10.5252 0.971191 10.5252C0.971191 10.5252 0.971191 10.5252 0.971191 10.5252C0.971191 10.5252 0.971191 10.5252 0.971191 10.5252C0.971191 10.5252 0.971191 10.5252 0.971191 10.5252C0.971191 10.5252 0.971191 10.5252 0.971191 10.5252C0.971191 10.5252 0.971191 10.5252 0.971191 10.5252C0.971191 10.5252 0.971191 10.5252 0.971191 10.5252C0.971191 10.5252 0.971191 10.5252 0.971191 10.5252C0.971191 10.5252 0.971191 10.5252 0.971191 10.5252C0.971191 10.5252 0.971191 10.5252 0.971191 10.5252C0.971191 10.5252 0.971191 10.5252 0.971191 10.5252C0.971191 10.5252 0.971191 10.5252 0.971191 10.5252C0.971191 10.5252 0.971191 10.5252 0.971191 10.5252C0.971191 10.5252 0.971191 10.5252 0.971191 10.5252C0.971191 10.5252 0.971191 10.5252 0.971191 10.5252C0.971191 10.5252 0.971191 10.5252 0.971191 10.5252C0.971191 10.5252 0.971191 10.5252 0.971191 10.5252C0.971191 10.5252 0.971191 10.5252 0.971191 10.5252C0.971191 10.5252 0.971191 10.5252 0.971191 10.5252C0.971191 10.5252 0.971191 10.5252 0.971191 10.5252C0.971191 10.5252 0.971191 10.5252 0.971191 10.5252C0.971191 10.5252 0.971191 10.5252 0.971191 10.5252C0.971191 10.5252 0.971191 10.5252 0.971191 10.5252C0.971191 10.5252 0.971191 10.5252 0.971191 10.5252C0.971191 10.5252 0.971191 10.5252 0.971191 10.5252C0.971191 10.5252 0.971191 10.5252 0.971191 10.5252C0.971191 10.5252 0.971191 10.5252 0.971191 10.5252C0.971191 10.5252 0.971191 10.5252 0.971191 10.5252C0.971191 10.5252 0.971191 10.5252 0.971191 10.5252C0.971191 10.5252 0.971191 10.5252 0.971191 10.5252C0.971191 10.5252 0.971191 10.5252 0.971191 10.5252C0.971191 10.5252 0.971191 10.5252 0.971191 10.5252C0.971191 10.5252 0.971191 10.5252 0.971191 10.5252C0.971191 10.5252 0.971191 10.5252 0.971191 10.5252C0.971191 10.5252 0.971191 10.5252 0.971191 10.5252C0.971191 10.5252 0.971191 10.5252 0.971191 10.5252C0.971191 10.5252 0.971191 10.5252 0.971191 10.5252C0.971191 10.5252 0.971191 10.5252 0.971191 10.5252C0.971191 10.5252 0.971191 10.5252 0.971191 10.5252C0.971191 10.5252 0.971191 10.5252 0.971191 10.5252C0.971191 10.5252 0.971191 10.5252 0.971191 10.5252C0.971191 10.5252 0.971191 10.5252 0.971191 10.5252C0.971191 10.5252 0.971191 10.5252 0.971191 10.5252C0.971191 10.5252 0.971191 10.5252 0.971191 10.5252C0.971191 10.5252 0.971191 10.5252 0.971191 10.5252C0.971191 10.5252 0.971191 10.5252 0.971191 10.5252C0.971191 10.5252 0.971191 10.5252 0.971191 10.5252C0.971191 10.5252 0.971191 10.5252 0.971191 10.5252C0.971191 10.5252 0.971191 10.5252 0.971191 10.5252C0.971191 10.5252 0.971191 10.5252 0.971191 10.5252C0.971191 10.5252 0.971191 10.5252 0.971191 10.5252C0.971191 10.5252 0.971191 10.5252 0.971191 10.5252C0.971191 10.5252 0.971191 10.5252 0.971191 10.5252C0.971191 10.5252 0.971191 10.5252 0.971191 10.5252C0.971191 10.5252 0.971191 10.5252 0.971191 10.5252C0.971191 10.5252 0.971191 10.5252 0.971191 10.5252C0.971191 10.5252 0.971191 10.5252 0.971191 10.5252C0.971191 10.5252 0.971191 10.5252 0.971191 10.5252C0.971191 10.5252 0.971191 10.5252 0.971191 10.5252C0.971191 10.5252 0.971191 10.5252 0.971191 10.5252C0.971191 10.5252 0.971191 10.5252 0.971191 10.5252C0.971191 10.5252 0.971191 10.5252 0.971191 10.5252C0.971191 10.5252 0.971191 10.5252 0.971191 10.5252C0.971191 10.5252 0.971191 10.5252 0.971191 10.5252C0.971191 10.5252 0.971191 10.5252 0.971191 10.5252C0.971191 10.5252 0.971191 10.5252 0.971191 10.5252C0.971191 10.5253 0.971191 10.5253 0.971191 10.5253C0.971191 10.5253 0.971191 10.5253 0.971191 10.5253C0.971191 10.5253 0.971191 10.5253 0.971191 10.5253C0.971191 10.5253 0.971191 10.5253 0.971191 10.5253C0.971191 10.5253 0.971191 10.5253 0.971191 10.5253C0.971191 10.5253 0.971191 10.5253 0.971191 10.5253C0.971191 10.5253 0.971191 10.5253 0.971191 10.5253C0.971191 10.5253 0.971191 10.5253 0.971191 10.5253C0.971191 10.5253 0.971191 10.5253 0.971191 10.5253C0.971191 10.5253 0.971191 10.5253 0.971191 10.5253C0.971191 10.5253 0.971191 10.5253 0.971191 10.5253C0.971191 10.5253 0.971191 10.5253 0.971191 10.5253C0.971191 10.5253 0.971191 10.5253 0.971191 10.5253C0.971191 10.5253 0.971191 10.5253 0.971191 10.5253C0.971191 10.5253 0.971191 10.5253 0.971191 10.5253C0.971191 10.5253 0.971191 10.5253 0.971191 10.5253C0.971191 10.5253 0.971191 10.5253 0.971191 10.5253C0.971191 10.5253 0.971191 10.5253 0.971191 10.5253C0.971191 10.5253 0.971191 10.5253 0.971191 10.5253C0.971191 10.5253 0.971191 10.5253 0.971191 10.5253C0.971191 10.5253 0.971191 10.5253 0.971191 10.5253C0.971191 10.5253 0.971191 10.5253 0.971191 10.5253C0.971191 10.5253 0.971191 10.5253 0.971191 10.5253C0.971191 10.5253 0.971191 10.5253 0.971191 10.5253C0.971191 10.5253 0.971191 10.5253 0.971191 10.5253C0.971191 10.5253 0.971191 10.5253 0.971191 10.5253C0.971191 10.5253 0.971191 10.5253 0.971191 10.5253C0.971191 10.5253 0.971191 10.5253 0.971191 10.5253C0.971191 10.5253 0.971191 10.5253 0.971191 10.5253C0.971191 10.5253 0.971191 10.5253 0.971191 10.5253C0.971191 10.5253 0.971191 10.5253 0.971191 10.5253C0.971191 10.5253 0.971191 10.5253 0.971191 10.5253C0.971191 10.5253 0.971191 10.5253 0.971191 10.5253C0.971191 10.5253 0.971191 10.5253 0.971191 10.5253C0.971191 10.5253 0.971191 10.5253 0.971191 10.5253C0.971191 10.5253 0.971191 10.5253 0.971191 10.5253C0.971191 10.5253 0.971191 10.5253 0.971191 10.5253C0.971191 10.5253 0.971191 10.5253 0.971191 10.5253C0.971191 10.5253 0.971191 10.5253 0.971191 10.5253C0.971191 10.5253 0.971191 10.5253 0.971191 10.5253C0.971191 10.5253 0.971191 10.5253 0.971191 10.5253C0.971191 10.5253 0.971191 10.5253 0.971191 10.5253C0.971191 10.5253 0.971191 10.5253 0.971191 10.5253C0.971191 10.5253 0.971191 10.5253 0.971191 10.5253C0.971191 10.5253 0.971191 10.5253 0.971191 10.5253C0.971191 10.5253 0.971191 10.5253 0.971191 10.5253C0.971191 10.5253 0.971191 10.5253 0.971191 10.5253C0.971191 10.5253 0.971191 10.5253 0.971191 10.5253C0.971191 10.5253 0.971191 10.5253 0.971191 10.5253C0.971191 10.5253 0.971191 10.5253 0.971191 10.5253C0.971191 10.5253 0.971191 10.5253 0.971191 10.5253C0.971191 10.5253 0.971191 10.5253 0.971191 10.5253C0.971191 10.5253 0.971191 10.5253 0.971191 10.5253C0.971191 10.5253 0.971191 10.5253 0.971191 10.5253C0.971191 10.5253 0.971191 10.5253 0.971191 10.5253C0.971191 10.5253 0.971191 10.5253 0.971191 10.5253C0.971191 10.5253 0.971191 10.5253 0.971191 10.5253C0.971191 10.5253 0.971191 10.5253 0.971191 10.5253C0.971191 10.5253 0.971191 10.5253 0.971191 10.5253C0.971191 10.5253 0.971191 10.5253 0.971191 10.5253C0.971191 10.5253 0.971191 10.5253 0.971191 10.5253C0.971191 10.5253 0.971191 10.5253 0.971191 10.5253C0.971191 10.5253 0.971191 10.5253 0.971191 10.5253C0.971191 10.5253 0.971191 10.5253 0.971191 10.5253C0.971191 10.5253 0.971191 10.5253 0.971191 10.5253C0.971191 10.5253 0.971191 10.5253 0.971191 10.5253C0.971191 10.5253 0.971191 10.5253 0.971191 10.5253C0.971191 10.5253 0.971191 10.5253 0.971191 10.5253C0.971191 10.5253 0.971191 10.5253 0.971191 10.5253C0.971191 10.5253 0.971191 10.5253 0.971191 10.5253C0.971191 10.5253 0.971191 10.5253 0.971191 10.5253C0.971191 10.5253 0.971191 10.5253 0.971191 10.5253C0.971191 10.5253 0.971191 10.5253 0.971191 10.5253C0.971191 10.5253 0.971191 10.5253 0.971191 10.5253C0.971191 10.5253 0.971191 10.5253 0.971191 10.5253C0.971191 10.5253 0.971191 10.5253 0.971191 10.5253C0.971191 10.5253 0.971191 10.5253 0.971191 10.5253C0.971191 10.5253 0.971191 10.5253 0.971191 10.5253C0.971191 10.5253 0.971191 10.5253 0.971191 10.5253C0.971191 10.5253 0.971191 10.5253 0.971191 10.5253C0.971191 10.5253 0.971191 10.5253 0.971191 10.5253C0.971191 10.5253 0.971191 10.5253 0.971191 10.5253C0.971191 10.5253 0.971191 10.5253 0.971191 10.5253C0.971191 10.5253 0.971191 10.5253 0.971191 10.5253C0.971191 10.5253 0.971191 10.5253 0.971191 10.5253C0.971191 10.5253 0.971191 10.5253 0.971191 10.5253C0.971191 10.5253 0.971191 10.5253 0.971191 10.5253C0.971191 10.5253 0.971191 10.5253 0.971191 10.5253C0.971191 10.5253 0.971191 10.5253 0.971191 10.5253C0.971191 10.5253 0.971191 10.5253 0.971191 10.5253C0.971191 10.5253 0.971191 10.5253 0.971191 10.5253C0.971191 10.5253 0.971191 10.5253 0.971191 10.5253C0.971191 10.5253 0.971191 10.5254 0.971191 10.5254C0.971191 10.5254 0.971191 10.5254 0.971191 10.5254C0.971191 10.5254 0.971191 10.5254 0.971191 10.5254C0.971191 10.5254 0.971191 10.5254 0.971191 10.5254C0.971191 10.5254 0.971191 10.5254 0.971191 10.5254C0.971191 10.5254 0.971191 10.5254 0.971191 10.5254C0.971191 10.5254 0.971191 10.5254 0.971191 10.5254C0.971191 10.5254 0.971191 10.5254 0.971191 10.5254C0.971191 10.5254 0.971191 10.5254 0.971191 10.5254C0.971191 10.5254 0.971191 10.5254 0.971191 10.5254C0.971191 10.5254 0.971191 10.5254 0.971191 10.5254C0.971191 10.5254 0.971191 10.5254 0.971191 10.5254C0.971191 10.5254 0.971191 10.5254 0.971191 10.5254C0.971191 10.5254 0.971191 10.5254 0.971191 10.5254C0.971191 10.5254 0.971191 10.5254 0.971191 10.5254C0.971191 10.5254 0.971191 10.5254 0.971191 10.5254C0.971191 10.5254 0.971191 10.5254 0.971191 10.5254C0.971191 10.5254 0.971191 10.5254 0.971191 10.5254C0.971191 10.5254 0.971191 10.5254 0.971191 10.5254C0.971191 10.5254 0.971191 10.5254 0.971191 10.5254C0.971191 10.5254 0.971191 10.5254 0.971191 10.5254C0.971191 10.5254 0.971191 10.5254 0.971191 10.5254C0.971191 10.5254 0.971191 10.5254 0.971191 10.5254C0.971191 10.5254 0.971191 10.5254 0.971191 10.5254C0.971191 10.5254 0.971191 10.5254 0.971191 10.5254C0.971191 10.5254 0.971191 10.5254 0.971191 10.5254C0.971191 10.5254 0.971191 10.5254 0.971191 10.5254C0.971191 10.5254 0.971191 10.5254 0.971191 10.5254C0.971191 10.5254 0.971191 10.5254 0.971191 10.5254C0.971191 10.5254 0.971191 10.5254 0.971191 10.5254C0.971191 10.5254 0.971191 10.5254 0.971191 10.5254C0.971191 10.5254 0.971191 10.5254 0.971191 10.5254C0.971191 10.5254 0.971191 10.5254 0.971191 10.5254C0.971191 10.5254 0.971191 10.5254 0.971191 10.5254C0.971191 10.5254 0.971191 10.5254 0.971191 10.5254C0.971191 10.5254 0.971191 10.5254 0.971191 10.5254C0.971191 10.5254 0.971191 10.5254 0.971191 10.5254C0.971191 10.5254 0.971191 10.5254 0.971191 10.5254C0.971191 10.5254 0.971191 10.5254 0.971191 10.5254C0.971191 10.5254 0.971191 10.5254 0.971191 10.5254C0.971191 10.5254 0.971191 10.5254 0.971191 10.5254C0.971191 10.5254 0.971191 10.5254 0.971191 10.5254C0.971191 10.5254 0.971191 10.5254 0.971191 10.5254C0.971191 10.5254 0.971191 10.5254 0.971191 10.5254C0.971191 10.5254 0.971191 10.5254 0.971191 10.5254C0.971191 10.5254 0.971191 10.5254 0.971191 10.5254C0.971191 10.5254 0.971191 10.5254 0.971191 10.5254C0.971191 10.5254 0.971191 10.5254 0.971191 10.5254C0.971191 10.5254 0.971191 10.5254 0.971191 10.5254C0.971191 10.5254 0.971191 10.5254 0.971191 10.5254C0.971191 10.5254 0.971191 10.5254 0.971191 10.5254C0.971191 10.5254 0.971191 10.5254 0.971191 10.5254C0.971191 10.5254 0.971191 10.5254 0.971191 10.5254C0.971191 10.5254 0.971191 10.5254 0.971191 10.5254C0.971191 10.5254 0.971191 10.5254 0.971191 10.5254C0.971191 10.5254 0.971191 10.5254 0.971191 10.5254C0.971191 10.5254 0.971191 10.5254 0.971191 10.5254C0.971191 10.5254 0.971191 10.5254 0.971191 10.5254C0.971191 10.5254 0.971191 10.5254 0.971191 10.5254C0.971191 10.5254 0.971191 10.5254 0.971191 10.5254C0.971191 10.5254 0.971191 10.5254 0.971191 10.5254C0.971191 10.5254 0.971191 10.5254 0.971191 10.5254C0.971191 10.5254 0.971191 10.5254 0.971191 10.5254C0.971191 10.5254 0.971191 10.5254 0.971191 10.5254C0.971191 10.5254 0.971191 10.5254 0.971191 10.5254C0.971191 10.5254 0.971191 10.5254 0.971191 10.5254C0.971191 10.5254 0.971191 10.5254 0.971191 10.5254C0.971191 10.5254 0.971191 10.5254 0.971191 10.5254C0.971191 10.5254 0.971191 10.5254 0.971191 10.5254C0.971191 10.5254 0.971191 10.5254 0.971191 10.5254C0.971191 10.5254 0.971191 10.5254 0.971191 10.5254C0.971191 10.5254 0.971191 10.5254 0.971191 10.5254C0.971191 10.5254 0.971191 10.5254 0.971191 10.5254C0.971191 10.5254 0.971191 10.5254 0.971191 10.5254C0.971191 10.5254 0.971191 10.5254 0.971191 10.5254C0.971191 10.5254 0.971191 10.5254 0.971191 10.5254C0.971191 10.5254 0.971191 10.5254 0.971191 10.5254C0.971191 10.5254 0.971191 10.5254 0.971191 10.5254C0.971191 10.5254 0.971191 10.5254 0.971191 10.5254C0.971191 10.5254 0.971191 10.5254 0.971191 10.5254C0.971191 10.5254 0.971191 10.5254 0.971191 10.5254C0.971191 10.5254 0.971191 10.5254 0.971191 10.5254C0.971191 10.5254 0.971191 10.5254 0.971191 10.5254C0.971191 10.5254 0.971191 10.5254 0.971191 10.5254C0.971191 10.5254 0.971191 10.5254 0.971191 10.5254C0.971191 10.5254 0.971191 10.5254 0.971191 10.5254C0.971191 10.5254 0.971191 10.5254 0.971191 10.5254C0.971191 10.5254 0.971191 10.5254 0.971191 10.5254C0.971191 10.5254 0.971191 10.5254 0.971191 10.5254C0.971191 10.5254 0.971191 10.5254 0.971191 10.5254C0.971191 10.5254 0.971191 10.5254 0.971191 10.5254C0.971191 10.5254 0.971191 10.5254 0.971191 10.5254C0.971191 10.5254 0.971191 10.5254 0.971191 10.5254C0.971191 10.5255 0.971191 10.5255 0.971191 10.5255C0.971191 10.5255 0.971191 10.5255 0.971191 10.5255C0.971191 10.5255 0.971191 10.5255 0.971191 10.5255C0.971191 10.5255 0.971191 10.5255 0.971191 10.5255C0.971191 10.5255 0.971191 10.5255 0.971191 10.5255C0.971191 10.5255 0.971191 10.5255 0.971191 10.5255C0.971191 10.5255 0.971191 10.5255 0.971191 10.5255C0.971191 10.5255 0.971191 10.5255 0.971191 10.5255C0.971191 10.5255 0.971191 10.5255 0.971191 10.5255C0.971191 10.5255 0.971191 10.5255 0.971191 10.5255C0.971191 10.5255 0.971191 10.5255 0.971191 10.5255C0.971191 10.5255 0.971191 10.5255 0.971191 10.5255C0.971191 10.5255 0.971191 10.5255 0.971191 10.5255C0.971191 10.5255 0.971191 10.5255 0.971191 10.5255C0.971191 10.5255 0.971191 10.5255 0.971191 10.5255C0.971191 10.5255 0.971191 10.5255 0.971191 10.5255C0.971191 10.5255 0.971191 10.5255 0.971191 10.5255C0.971191 10.5255 0.971191 10.5255 0.971191 10.5255C0.971191 10.5255 0.971191 10.5255 0.971191 10.5255C0.971191 10.5255 0.971191 10.5255 0.971191 10.5255C0.971191 10.5255 0.971191 10.5255 0.971191 10.5255C0.971191 10.5255 0.971191 10.5255 0.971191 10.5255C0.971191 10.5255 0.971191 10.5255 0.971191 10.5255C0.971191 10.5255 0.971191 10.5255 0.971191 10.5255C0.971191 10.5255 0.971191 10.5255 0.971191 10.5255C0.971191 10.5255 0.971191 10.5255 0.971191 10.5255C0.971191 10.5255 0.971191 10.5255 0.971191 10.5255C0.971191 10.5255 0.971191 10.5255 0.971191 10.5255C0.971191 10.5255 0.971191 10.5255 0.971191 10.5255C0.971191 10.5255 0.971191 10.5255 0.971191 10.5255C0.971191 10.5255 0.971191 10.5255 0.971191 10.5255C0.971191 10.5255 0.971191 10.5255 0.971191 10.5255C0.971191 10.5255 0.971191 10.5255 0.971191 10.5255C0.971191 10.5255 0.971191 10.5255 0.971191 10.5255C0.971191 10.5255 0.971191 10.5255 0.971191 10.5255C0.971191 10.5255 0.971191 10.5255 0.971191 10.5255C0.971191 10.5255 0.971191 10.5255 0.971191 10.5255C0.971191 10.5255 0.971191 10.5255 0.971191 10.5255C0.971191 10.5255 0.971191 10.5255 0.971191 10.5255C0.971191 10.5255 0.971191 10.5255 0.971191 10.5255C0.971191 10.5255 0.971191 10.5255 0.971191 10.5255C0.971191 10.5255 0.971191 10.5255 0.971191 10.5255C0.971191 10.5255 0.971191 10.5255 0.971191 10.5255H5.13786C5.13786 10.5255 5.13786 10.5255 5.13786 10.5255C5.13786 10.5255 5.13786 10.5255 5.13786 10.5255C5.13786 10.5255 5.13786 10.5255 5.13786 10.5255C5.13786 10.5255 5.13786 10.5255 5.13786 10.5255C5.13786 10.5255 5.13786 10.5255 5.13786 10.5255C5.13786 10.5255 5.13786 10.5255 5.13786 10.5255C5.13786 10.5255 5.13786 10.5255 5.13786 10.5255C5.13786 10.5255 5.13786 10.5255 5.13786 10.5255C5.13786 10.5255 5.13786 10.5255 5.13786 10.5255C5.13786 10.5255 5.13786 10.5255 5.13786 10.5255C5.13786 10.5255 5.13786 10.5255 5.13786 10.5255C5.13786 10.5255 5.13786 10.5255 5.13786 10.5255C5.13786 10.5255 5.13786 10.5255 5.13786 10.5255C5.13786 10.5255 5.13786 10.5255 5.13786 10.5255C5.13786 10.5255 5.13786 10.5255 5.13786 10.5255C5.13786 10.5255 5.13786 10.5255 5.13786 10.5255C5.13786 10.5255 5.13786 10.5255 5.13786 10.5255C5.13786 10.5255 5.13786 10.5255 5.13786 10.5255C5.13786 10.5255 5.13786 10.5255 5.13786 10.5255C5.13786 10.5255 5.13786 10.5255 5.13786 10.5255C5.13786 10.5255 5.13786 10.5255 5.13786 10.5255C5.13786 10.5255 5.13786 10.5255 5.13786 10.5255C5.13786 10.5255 5.13786 10.5255 5.13786 10.5255C5.13786 10.5255 5.13786 10.5255 5.13786 10.5255C5.13786 10.5255 5.13786 10.5255 5.13786 10.5255C5.13786 10.5255 5.13786 10.5255 5.13786 10.5255C5.13786 10.5255 5.13786 10.5255 5.13786 10.5255C5.13786 10.5255 5.13786 10.5255 5.13786 10.5255C5.13786 10.5255 5.13786 10.5255 5.13786 10.5255C5.13786 10.5255 5.13786 10.5255 5.13786 10.5255C5.13786 10.5255 5.13786 10.5255 5.13786 10.5255C5.13786 10.5255 5.13786 10.5255 5.13786 10.5255C5.13786 10.5255 5.13786 10.5255 5.13786 10.5255C5.13786 10.5255 5.13786 10.5255 5.13786 10.5255C5.13786 10.5255 5.13786 10.5255 5.13786 10.5255C5.13786 10.5255 5.13786 10.5255 5.13786 10.5255C5.13786 10.5255 5.13786 10.5255 5.13786 10.5255C5.13786 10.5255 5.13786 10.5255 5.13786 10.5255C5.13786 10.5255 5.13786 10.5255 5.13786 10.5255C5.13786 10.5255 5.13786 10.5255 5.13786 10.5255C5.13786 10.5255 5.13786 10.5255 5.13786 10.5255C5.13786 10.5255 5.13786 10.5255 5.13786 10.5255C5.13786 10.5255 5.13786 10.5255 5.13786 10.5254C5.13786 10.5254 5.13786 10.5254 5.13786 10.5254C5.13786 10.5254 5.13786 10.5254 5.13786 10.5254C5.13786 10.5254 5.13786 10.5254 5.13786 10.5254C5.13786 10.5254 5.13786 10.5254 5.13786 10.5254C5.13786 10.5254 5.13786 10.5254 5.13786 10.5254C5.13786 10.5254 5.13786 10.5254 5.13786 10.5254C5.13786 10.5254 5.13786 10.5254 5.13786 10.5254C5.13786 10.5254 5.13786 10.5254 5.13786 10.5254C5.13786 10.5254 5.13786 10.5254 5.13786 10.5254C5.13786 10.5254 5.13786 10.5254 5.13786 10.5254C5.13786 10.5254 5.13786 10.5254 5.13786 10.5254C5.13786 10.5254 5.13786 10.5254 5.13786 10.5254C5.13786 10.5254 5.13786 10.5254 5.13786 10.5254C5.13786 10.5254 5.13786 10.5254 5.13786 10.5254C5.13786 10.5254 5.13786 10.5254 5.13786 10.5254C5.13786 10.5254 5.13786 10.5254 5.13786 10.5254C5.13786 10.5254 5.13786 10.5254 5.13786 10.5254C5.13786 10.5254 5.13786 10.5254 5.13786 10.5254C5.13786 10.5254 5.13786 10.5254 5.13786 10.5254C5.13786 10.5254 5.13786 10.5254 5.13786 10.5254C5.13786 10.5254 5.13786 10.5254 5.13786 10.5254C5.13786 10.5254 5.13786 10.5254 5.13786 10.5254C5.13786 10.5254 5.13786 10.5254 5.13786 10.5254C5.13786 10.5254 5.13786 10.5254 5.13786 10.5254C5.13786 10.5254 5.13786 10.5254 5.13786 10.5254C5.13786 10.5254 5.13786 10.5254 5.13786 10.5254C5.13786 10.5254 5.13786 10.5254 5.13786 10.5254C5.13786 10.5254 5.13786 10.5254 5.13786 10.5254C5.13786 10.5254 5.13786 10.5254 5.13786 10.5254C5.13786 10.5254 5.13786 10.5254 5.13786 10.5254C5.13786 10.5254 5.13786 10.5254 5.13786 10.5254C5.13786 10.5254 5.13786 10.5254 5.13786 10.5254C5.13786 10.5254 5.13786 10.5254 5.13786 10.5254C5.13786 10.5254 5.13786 10.5254 5.13786 10.5254C5.13786 10.5254 5.13786 10.5254 5.13786 10.5254C5.13786 10.5254 5.13786 10.5254 5.13786 10.5254C5.13786 10.5254 5.13786 10.5254 5.13786 10.5254C5.13786 10.5254 5.13786 10.5254 5.13786 10.5254C5.13786 10.5254 5.13786 10.5254 5.13786 10.5254C5.13786 10.5254 5.13786 10.5254 5.13786 10.5254C5.13786 10.5254 5.13786 10.5254 5.13786 10.5254C5.13786 10.5254 5.13786 10.5254 5.13786 10.5254C5.13786 10.5254 5.13786 10.5254 5.13786 10.5254C5.13786 10.5254 5.13786 10.5254 5.13786 10.5254C5.13786 10.5254 5.13786 10.5254 5.13786 10.5254C5.13786 10.5254 5.13786 10.5254 5.13786 10.5254C5.13786 10.5254 5.13786 10.5254 5.13786 10.5254C5.13786 10.5254 5.13786 10.5254 5.13786 10.5254C5.13786 10.5254 5.13786 10.5254 5.13786 10.5254C5.13786 10.5254 5.13786 10.5254 5.13786 10.5254C5.13786 10.5254 5.13786 10.5254 5.13786 10.5254C5.13786 10.5254 5.13786 10.5254 5.13786 10.5254C5.13786 10.5254 5.13786 10.5254 5.13786 10.5254C5.13786 10.5254 5.13786 10.5254 5.13786 10.5254C5.13786 10.5254 5.13786 10.5254 5.13786 10.5254C5.13786 10.5254 5.13786 10.5254 5.13786 10.5254C5.13786 10.5254 5.13786 10.5254 5.13786 10.5254C5.13786 10.5254 5.13786 10.5254 5.13786 10.5254C5.13786 10.5254 5.13786 10.5254 5.13786 10.5254C5.13786 10.5254 5.13786 10.5254 5.13786 10.5254C5.13786 10.5254 5.13786 10.5254 5.13786 10.5254C5.13786 10.5254 5.13786 10.5254 5.13786 10.5254C5.13786 10.5254 5.13786 10.5254 5.13786 10.5254C5.13786 10.5254 5.13786 10.5254 5.13786 10.5254C5.13786 10.5254 5.13786 10.5254 5.13786 10.5254C5.13786 10.5254 5.13786 10.5254 5.13786 10.5254C5.13786 10.5254 5.13786 10.5254 5.13786 10.5254C5.13786 10.5254 5.13786 10.5254 5.13786 10.5254C5.13786 10.5254 5.13786 10.5254 5.13786 10.5254C5.13786 10.5254 5.13786 10.5254 5.13786 10.5254C5.13786 10.5254 5.13786 10.5254 5.13786 10.5254C5.13786 10.5254 5.13786 10.5254 5.13786 10.5254C5.13786 10.5254 5.13786 10.5254 5.13786 10.5254C5.13786 10.5254 5.13786 10.5254 5.13786 10.5254C5.13786 10.5254 5.13786 10.5254 5.13786 10.5254C5.13786 10.5254 5.13786 10.5254 5.13786 10.5254C5.13786 10.5254 5.13786 10.5254 5.13786 10.5254C5.13786 10.5254 5.13786 10.5254 5.13786 10.5254C5.13786 10.5254 5.13786 10.5254 5.13786 10.5254C5.13786 10.5254 5.13786 10.5254 5.13786 10.5254C5.13786 10.5254 5.13786 10.5254 5.13786 10.5254C5.13786 10.5254 5.13786 10.5254 5.13786 10.5254C5.13786 10.5254 5.13786 10.5254 5.13786 10.5254C5.13786 10.5254 5.13786 10.5254 5.13786 10.5254C5.13786 10.5254 5.13786 10.5254 5.13786 10.5254C5.13786 10.5254 5.13786 10.5254 5.13786 10.5254C5.13786 10.5254 5.13786 10.5254 5.13786 10.5254C5.13786 10.5254 5.13786 10.5254 5.13786 10.5254C5.13786 10.5254 5.13786 10.5254 5.13786 10.5254C5.13786 10.5254 5.13786 10.5254 5.13786 10.5254C5.13786 10.5254 5.13786 10.5254 5.13786 10.5254C5.13786 10.5254 5.13786 10.5254 5.13786 10.5254C5.13786 10.5254 5.13786 10.5253 5.13786 10.5253C5.13786 10.5253 5.13786 10.5253 5.13786 10.5253C5.13786 10.5253 5.13786 10.5253 5.13786 10.5253C5.13786 10.5253 5.13786 10.5253 5.13786 10.5253C5.13786 10.5253 5.13786 10.5253 5.13786 10.5253C5.13786 10.5253 5.13786 10.5253 5.13786 10.5253C5.13786 10.5253 5.13786 10.5253 5.13786 10.5253C5.13786 10.5253 5.13786 10.5253 5.13786 10.5253C5.13786 10.5253 5.13786 10.5253 5.13786 10.5253C5.13786 10.5253 5.13786 10.5253 5.13786 10.5253C5.13786 10.5253 5.13786 10.5253 5.13786 10.5253C5.13786 10.5253 5.13786 10.5253 5.13786 10.5253C5.13786 10.5253 5.13786 10.5253 5.13786 10.5253C5.13786 10.5253 5.13786 10.5253 5.13786 10.5253C5.13786 10.5253 5.13786 10.5253 5.13786 10.5253C5.13786 10.5253 5.13786 10.5253 5.13786 10.5253C5.13786 10.5253 5.13786 10.5253 5.13786 10.5253C5.13786 10.5253 5.13786 10.5253 5.13786 10.5253C5.13786 10.5253 5.13786 10.5253 5.13786 10.5253C5.13786 10.5253 5.13786 10.5253 5.13786 10.5253C5.13786 10.5253 5.13786 10.5253 5.13786 10.5253C5.13786 10.5253 5.13786 10.5253 5.13786 10.5253C5.13786 10.5253 5.13786 10.5253 5.13786 10.5253C5.13786 10.5253 5.13786 10.5253 5.13786 10.5253C5.13786 10.5253 5.13786 10.5253 5.13786 10.5253C5.13786 10.5253 5.13786 10.5253 5.13786 10.5253C5.13786 10.5253 5.13786 10.5253 5.13786 10.5253C5.13786 10.5253 5.13786 10.5253 5.13786 10.5253C5.13786 10.5253 5.13786 10.5253 5.13786 10.5253C5.13786 10.5253 5.13786 10.5253 5.13786 10.5253C5.13786 10.5253 5.13786 10.5253 5.13786 10.5253C5.13786 10.5253 5.13786 10.5253 5.13786 10.5253C5.13786 10.5253 5.13786 10.5253 5.13786 10.5253C5.13786 10.5253 5.13786 10.5253 5.13786 10.5253C5.13786 10.5253 5.13786 10.5253 5.13786 10.5253C5.13786 10.5253 5.13786 10.5253 5.13786 10.5253C5.13786 10.5253 5.13786 10.5253 5.13786 10.5253C5.13786 10.5253 5.13786 10.5253 5.13786 10.5253C5.13786 10.5253 5.13786 10.5253 5.13786 10.5253C5.13786 10.5253 5.13786 10.5253 5.13786 10.5253C5.13786 10.5253 5.13786 10.5253 5.13786 10.5253C5.13786 10.5253 5.13786 10.5253 5.13786 10.5253C5.13786 10.5253 5.13786 10.5253 5.13786 10.5253C5.13786 10.5253 5.13786 10.5253 5.13786 10.5253C5.13786 10.5253 5.13786 10.5253 5.13786 10.5253C5.13786 10.5253 5.13786 10.5253 5.13786 10.5253C5.13786 10.5253 5.13786 10.5253 5.13786 10.5253C5.13786 10.5253 5.13786 10.5253 5.13786 10.5253C5.13786 10.5253 5.13786 10.5253 5.13786 10.5253C5.13786 10.5253 5.13786 10.5253 5.13786 10.5253C5.13786 10.5253 5.13786 10.5253 5.13786 10.5253C5.13786 10.5253 5.13786 10.5253 5.13786 10.5253C5.13786 10.5253 5.13786 10.5253 5.13786 10.5253C5.13786 10.5253 5.13786 10.5253 5.13786 10.5253C5.13786 10.5253 5.13786 10.5253 5.13786 10.5253C5.13786 10.5253 5.13786 10.5253 5.13786 10.5253C5.13786 10.5253 5.13786 10.5253 5.13786 10.5253C5.13786 10.5253 5.13786 10.5253 5.13786 10.5253C5.13786 10.5253 5.13786 10.5253 5.13786 10.5253C5.13786 10.5253 5.13786 10.5253 5.13786 10.5253C5.13786 10.5253 5.13786 10.5253 5.13786 10.5253C5.13786 10.5253 5.13786 10.5253 5.13786 10.5253C5.13786 10.5253 5.13786 10.5253 5.13786 10.5253C5.13786 10.5253 5.13786 10.5253 5.13786 10.5253C5.13786 10.5253 5.13786 10.5253 5.13786 10.5253C5.13786 10.5253 5.13786 10.5253 5.13786 10.5253C5.13786 10.5253 5.13786 10.5253 5.13786 10.5253C5.13786 10.5253 5.13786 10.5253 5.13786 10.5253C5.13786 10.5253 5.13786 10.5253 5.13786 10.5253C5.13786 10.5253 5.13786 10.5253 5.13786 10.5253C5.13786 10.5253 5.13786 10.5253 5.13786 10.5253C5.13786 10.5253 5.13786 10.5253 5.13786 10.5253C5.13786 10.5253 5.13786 10.5253 5.13786 10.5253C5.13786 10.5253 5.13786 10.5253 5.13786 10.5253C5.13786 10.5253 5.13786 10.5253 5.13786 10.5253C5.13786 10.5253 5.13786 10.5253 5.13786 10.5253C5.13786 10.5253 5.13786 10.5253 5.13786 10.5253C5.13786 10.5253 5.13786 10.5253 5.13786 10.5253C5.13786 10.5253 5.13786 10.5253 5.13786 10.5253C5.13786 10.5253 5.13786 10.5253 5.13786 10.5253C5.13786 10.5253 5.13786 10.5253 5.13786 10.5253C5.13786 10.5253 5.13786 10.5253 5.13786 10.5253C5.13786 10.5253 5.13786 10.5253 5.13786 10.5253C5.13786 10.5253 5.13786 10.5253 5.13786 10.5253C5.13786 10.5253 5.13786 10.5253 5.13786 10.5253C5.13786 10.5253 5.13786 10.5253 5.13786 10.5253C5.13786 10.5253 5.13786 10.5253 5.13786 10.5253C5.13786 10.5253 5.13786 10.5253 5.13786 10.5253C5.13786 10.5253 5.13786 10.5253 5.13786 10.5253C5.13786 10.5253 5.13786 10.5253 5.13786 10.5253C5.13786 10.5253 5.13786 10.5253 5.13786 10.5253C5.13786 10.5253 5.13786 10.5253 5.13786 10.5253C5.13786 10.5253 5.13786 10.5253 5.13786 10.5252C5.13786 10.5252 5.13786 10.5252 5.13786 10.5252C5.13786 10.5252 5.13786 10.5252 5.13786 10.5252C5.13786 10.5252 5.13786 10.5252 5.13786 10.5252C5.13786 10.5252 5.13786 10.5252 5.13786 10.5252C5.13786 10.5252 5.13786 10.5252 5.13786 10.5252C5.13786 10.5252 5.13786 10.5252 5.13786 10.5252C5.13786 10.5252 5.13786 10.5252 5.13786 10.5252C5.13786 10.5252 5.13786 10.5252 5.13786 10.5252C5.13786 10.5252 5.13786 10.5252 5.13786 10.5252C5.13786 10.5252 5.13786 10.5252 5.13786 10.5252C5.13786 10.5252 5.13786 10.5252 5.13786 10.5252C5.13786 10.5252 5.13786 10.5252 5.13786 10.5252C5.13786 10.5252 5.13786 10.5252 5.13786 10.5252C5.13786 10.5252 5.13786 10.5252 5.13786 10.5252C5.13786 10.5252 5.13786 10.5252 5.13786 10.5252C5.13786 10.5252 5.13786 10.5252 5.13786 10.5252C5.13786 10.5252 5.13786 10.5252 5.13786 10.5252C5.13786 10.5252 5.13786 10.5252 5.13786 10.5252C5.13786 10.5252 5.13786 10.5252 5.13786 10.5252C5.13786 10.5252 5.13786 10.5252 5.13786 10.5252C5.13786 10.5252 5.13786 10.5252 5.13786 10.5252C5.13786 10.5252 5.13786 10.5252 5.13786 10.5252C5.13786 10.5252 5.13786 10.5252 5.13786 10.5252C5.13786 10.5252 5.13786 10.5252 5.13786 10.5252C5.13786 10.5252 5.13786 10.5252 5.13786 10.5252C5.13786 10.5252 5.13786 10.5252 5.13786 10.5252C5.13786 10.5252 5.13786 10.5252 5.13786 10.5252C5.13786 10.5252 5.13786 10.5252 5.13786 10.5252C5.13786 10.5252 5.13786 10.5252 5.13786 10.5252C5.13786 10.5252 5.13786 10.5252 5.13786 10.5252C5.13786 10.5252 5.13786 10.5252 5.13786 10.5252C5.13786 10.5252 5.13786 10.5252 5.13786 10.5252C5.13786 10.5252 5.13786 10.5252 5.13786 10.5252C5.13786 10.5252 5.13786 10.5252 5.13786 10.5252C5.13786 10.5252 5.13786 10.5252 5.13786 10.5252C5.13786 10.5252 5.13786 10.5252 5.13786 10.5252C5.13786 10.5252 5.13786 10.5252 5.13786 10.5252C5.13786 10.5252 5.13786 10.5252 5.13786 10.5252C5.13786 10.5252 5.13786 10.5252 5.13786 10.5252C5.13786 10.5252 5.13786 10.5252 5.13786 10.5252C5.13786 10.5252 5.13786 10.5252 5.13786 10.5252C5.13786 10.5252 5.13786 10.5252 5.13786 10.5252C5.13786 10.5252 5.13786 10.5252 5.13786 10.5252C5.13786 10.5252 5.13786 10.5252 5.13786 10.5252C5.13786 10.5252 5.13786 10.5252 5.13786 10.5252C5.13786 10.5252 5.13786 10.5252 5.13786 10.5252C5.13786 10.5252 5.13786 10.5252 5.13786 10.5252C5.13786 10.5252 5.13786 10.5252 5.13786 10.5252C5.13786 10.5252 5.13786 10.5252 5.13786 10.5252C5.13786 10.5252 5.13786 10.5252 5.13786 10.5252C5.13786 10.5252 5.13786 10.5252 5.13786 10.5252C5.13786 10.5252 5.13786 10.5252 5.13786 10.5252C5.13786 10.5252 5.13786 10.5252 5.13786 10.5252C5.13786 10.5252 5.13786 10.5252 5.13786 10.5252C5.13786 10.5252 5.13786 10.5252 5.13786 10.5252C5.13786 10.5252 5.13786 10.5252 5.13786 10.5252C5.13786 10.5252 5.13786 10.5252 5.13786 10.5252C5.13786 10.5252 5.13786 10.5252 5.13786 10.5252C5.13786 10.5252 5.13786 10.5252 5.13786 10.5252C5.13786 10.5252 5.13786 10.5252 5.13786 10.5252C5.13786 10.5252 5.13786 10.5252 5.13786 10.5252C5.13786 10.5252 5.13786 10.5252 5.13786 10.5252C5.13786 10.5252 5.13786 10.5252 5.13786 10.5252C5.13786 10.5252 5.13786 10.5252 5.13786 10.5252C5.13786 10.5252 5.13786 10.5252 5.13786 10.5252C5.13786 10.5252 5.13786 10.5252 5.13786 10.5252C5.13786 10.5252 5.13786 10.5252 5.13786 10.5252C5.13786 10.5252 5.13786 10.5252 5.13786 10.5252C5.13786 10.5252 5.13786 10.5252 5.13786 10.5252C5.13786 10.5252 5.13786 10.5252 5.13786 10.5252C5.13786 10.5252 5.13786 10.5252 5.13786 10.5252C5.13786 10.5252 5.13786 10.5252 5.13786 10.5252C5.13786 10.5252 5.13786 10.5252 5.13786 10.5252C5.13786 10.5252 5.13786 10.5252 5.13786 10.5252C5.13786 10.5252 5.13786 10.5252 5.13786 10.5252C5.13786 10.5252 5.13786 10.5252 5.13786 10.5252C5.13786 10.5252 5.13786 10.5252 5.13786 10.5252C5.13786 10.5252 5.13786 10.5252 5.13786 10.5252C5.13786 10.5252 5.13786 10.5252 5.13786 10.5252C5.13786 10.5252 5.13786 10.5252 5.13786 10.5252C5.13786 10.5252 5.13786 10.5252 5.13786 10.5252C5.13786 10.5252 5.13786 10.5252 5.13786 10.5252C5.13786 10.5252 5.13786 10.5252 5.13786 10.5252C5.13786 10.5252 5.13786 10.5252 5.13786 10.5252C5.13786 10.5252 5.13786 10.5252 5.13786 10.5252C5.13786 10.5252 5.13786 10.5252 5.13786 10.5252C5.13786 10.5252 5.13786 10.5252 5.13786 10.5252C5.13786 10.5252 5.13786 10.5252 5.13786 10.5252C5.13786 10.5252 5.13786 10.5252 5.13786 10.5252C5.13786 10.5252 5.13786 10.5252 5.13786 10.5252C5.13786 10.5252 5.13786 10.5252 5.13786 10.5252C5.13786 10.5252 5.13786 10.5252 5.13786 10.5252C5.13786 10.5251 5.13786 10.5251 5.13786 10.5251C5.13786 10.5251 5.13786 10.5251 5.13786 10.5251C5.13786 10.5251 5.13786 10.5251 5.13786 10.5251C5.13786 10.5251 5.13786 10.5251 5.13786 10.5251C5.13786 10.5251 5.13786 10.5251 5.13786 10.5251C5.13786 10.5251 5.13786 10.5251 5.13786 10.5251C5.13786 10.5251 5.13786 10.5251 5.13786 10.5251C5.13786 10.5251 5.13786 10.5251 5.13786 10.5251C5.13786 10.5251 5.13786 10.5251 5.13786 10.5251C5.13786 10.5251 5.13786 10.5251 5.13786 10.5251C5.13786 10.5251 5.13786 10.5251 5.13786 10.5251C5.13786 10.5251 5.13786 10.5251 5.13786 10.5251C5.13786 10.5251 5.13786 10.5251 5.13786 10.5251C5.13786 10.5251 5.13786 10.5251 5.13786 10.5251C5.13786 10.5251 5.13786 10.5251 5.13786 10.5251C5.13786 10.5251 5.13786 10.5251 5.13786 10.5251C5.13786 10.5251 5.13786 10.5251 5.13786 10.5251C5.13786 10.5251 5.13786 10.5251 5.13786 10.5251C5.13786 10.5251 5.13786 10.5251 5.13786 10.5251C5.13786 10.5251 5.13786 10.5251 5.13786 10.5251C5.13786 10.5251 5.13786 10.5251 5.13786 10.5251C5.13786 10.5251 5.13786 10.5251 5.13786 10.5251C5.13786 10.5251 5.13786 10.5251 5.13786 10.5251C5.13786 10.5251 5.13786 10.5251 5.13786 10.5251C5.13786 10.5251 5.13786 10.5251 5.13786 10.5251C5.13786 10.5251 5.13786 10.5251 5.13786 10.5251C5.13786 10.5251 5.13786 10.5251 5.13786 10.5251C5.13786 10.5251 5.13786 10.5251 5.13786 10.5251C5.13786 10.5251 5.13786 10.5251 5.13786 10.5251C5.13786 10.5251 5.13786 10.5251 5.13786 10.5251C5.13786 10.5251 5.13786 10.5251 5.13786 10.5251C5.13786 10.5251 5.13786 10.5251 5.13786 10.5251C5.13786 10.5251 5.13786 10.5251 5.13786 10.5251C5.13786 10.5251 5.13786 10.5251 5.13786 10.5251C5.13786 10.5251 5.13786 10.5251 5.13786 10.5251C5.13786 10.5251 5.13786 10.5251 5.13786 10.5251C5.13786 10.5251 5.13786 10.5251 5.13786 10.5251C5.13786 10.5251 5.13786 10.5251 5.13786 10.5251C5.13786 10.5251 5.13786 10.5251 5.13786 10.5251C5.13786 10.5251 5.13786 10.5251 5.13786 10.5251C5.13786 10.5251 5.13786 10.5251 5.13786 10.5251C5.13786 10.5251 5.13786 10.5251 5.13786 10.5251C5.13786 10.5251 5.13786 10.5251 5.13786 10.5251C5.13786 10.5251 5.13786 10.5251 5.13786 10.5251C5.13786 10.5251 5.13786 10.5251 5.13786 10.5251C5.13786 10.5251 5.13786 10.5251 5.13786 10.5251C5.13786 10.5251 5.13786 10.5251 5.13786 10.5251C5.13786 10.5251 5.13786 10.5251 5.13786 10.5251C5.13786 10.5251 5.13786 10.5251 5.13786 10.5251C5.13786 10.5251 5.13786 10.5251 5.13786 10.5251C5.13786 10.5251 5.13786 10.5251 5.13786 10.5251C5.13786 10.5251 5.13786 10.5251 5.13786 10.5251C5.13786 10.5251 5.13786 10.5251 5.13786 10.5251C5.13786 10.5251 5.13786 10.5251 5.13786 10.5251C5.13786 10.5251 5.13786 10.5251 5.13786 10.5251C5.13786 10.5251 5.13786 10.5251 5.13786 10.5251C5.13786 10.5251 5.13786 10.5251 5.13786 10.5251C5.13786 10.5251 5.13786 10.5251 5.13786 10.5251C5.13786 10.5251 5.13786 10.5251 5.13786 10.5251C5.13786 10.5251 5.13786 10.5251 5.13786 10.5251C5.13786 10.5251 5.13786 10.5251 5.13786 10.5251C5.13786 10.5251 5.13786 10.5251 5.13786 10.5251C5.13786 10.5251 5.13786 10.5251 5.13786 10.5251C5.13786 10.5251 5.13786 10.5251 5.13786 10.5251C5.13786 10.5251 5.13786 10.5251 5.13786 10.5251C5.13786 10.5251 5.13786 10.5251 5.13786 10.5251C5.13786 10.5251 5.13786 10.5251 5.13786 10.5251C5.13786 10.5251 5.13786 10.5251 5.13786 10.5251C5.13786 10.5251 5.13786 10.5251 5.13786 10.5251C5.13786 10.5251 5.13786 10.5251 5.13786 10.5251C5.13786 10.5251 5.13786 10.5251 5.13786 10.5251C5.13786 10.5251 5.13786 10.5251 5.13786 10.5251C5.13786 10.5251 5.13786 10.5251 5.13786 10.5251C5.13786 10.5251 5.13786 10.5251 5.13786 10.5251C5.13786 10.5251 5.13786 10.5251 5.13786 10.5251C5.13786 10.5251 5.13786 10.5251 5.13786 10.5251C5.13786 10.5251 5.13786 10.5251 5.13786 10.5251C5.13786 10.5251 5.13786 10.5251 5.13786 10.5251C5.13786 10.5251 5.13786 10.5251 5.13786 10.5251C5.13786 10.5251 5.13786 10.5251 5.13786 10.5251C5.13786 10.5251 5.13786 10.5251 5.13786 10.5251C5.13786 10.5251 5.13786 10.5251 5.13786 10.5251C5.13786 10.5251 5.13786 10.5251 5.13786 10.5251C5.13786 10.5251 5.13786 10.5251 5.13786 10.5251C5.13786 10.5251 5.13786 10.5251 5.13786 10.5251C5.13786 10.5251 5.13786 10.5251 5.13786 10.5251C5.13786 10.5251 5.13786 10.5251 5.13786 10.5251C5.13786 10.5251 5.13786 10.5251 5.13786 10.5251C5.13786 10.5251 5.13786 10.5251 5.13786 10.5251C5.13786 10.5251 5.13786 10.5251 5.13786 10.5251C5.13786 10.5251 5.13786 10.5251 5.13786 10.5251C5.13786 10.5251 5.13786 10.5251 5.13786 10.5251C5.13786 10.5251 5.13786 10.5251 5.13786 10.525C5.13786 10.525 5.13786 10.525 5.13786 10.525C5.13786 10.525 5.13786 10.525 5.13786 10.525C5.13786 10.525 5.13786 10.525 5.13786 10.525C5.13786 10.525 5.13786 10.525 5.13786 10.525C5.13786 10.525 5.13786 10.525 5.13786 10.525C5.13786 10.525 5.13786 10.525 5.13786 10.525C5.13786 10.525 5.13786 10.525 5.13786 10.525C5.13786 10.525 5.13786 10.525 5.13786 10.525C5.13786 10.525 5.13786 10.525 5.13786 10.525C5.13786 10.525 5.13786 10.525 5.13786 10.525C5.13786 10.525 5.13786 10.525 5.13786 10.525C5.13786 10.525 5.13786 10.525 5.13786 10.525C5.13786 10.525 5.13786 10.525 5.13786 10.525C5.13786 10.525 5.13786 10.525 5.13786 10.525C5.13786 10.525 5.13786 10.525 5.13786 10.525C5.13786 10.525 5.13786 10.525 5.13786 10.525C5.13786 10.525 5.13786 10.525 5.13786 10.525C5.13786 10.525 5.13786 10.525 5.13786 10.525C5.13786 10.525 5.13786 10.525 5.13786 10.525C5.13786 10.525 5.13786 10.525 5.13786 10.525C5.13786 10.525 5.13786 10.525 5.13786 10.525C5.13786 10.525 5.13786 10.525 5.13786 10.525C5.13786 10.525 5.13786 10.525 5.13786 10.525C5.13786 10.525 5.13786 10.525 5.13786 10.525C5.13786 10.525 5.13786 10.525 5.13786 10.525C5.13786 10.525 5.13786 10.525 5.13786 10.525C5.13786 10.525 5.13786 10.525 5.13786 10.525C5.13786 10.525 5.13786 10.525 5.13786 10.525C5.13786 10.525 5.13786 10.525 5.13786 10.525C5.13786 10.525 5.13786 10.525 5.13786 10.525C5.13786 10.525 5.13786 10.525 5.13786 10.525C5.13786 10.525 5.13786 10.525 5.13786 10.525C5.13786 10.525 5.13786 10.525 5.13786 10.525C5.13786 10.525 5.13786 10.525 5.13786 10.525C5.13786 10.525 5.13786 10.525 5.13786 10.525C5.13786 10.525 5.13786 10.525 5.13786 10.525C5.13786 10.525 5.13786 10.525 5.13786 10.525C5.13786 10.525 5.13786 10.525 5.13786 10.525C5.13786 10.525 5.13786 10.525 5.13786 10.525C5.13786 10.525 5.13786 10.525 5.13786 10.525C5.13786 10.525 5.13786 10.525 5.13786 10.525C5.13786 10.525 5.13786 10.525 5.13786 10.525C5.13786 10.525 5.13786 10.525 5.13786 10.525C5.13786 10.525 5.13786 10.525 5.13786 10.525C5.13786 10.525 5.13786 10.525 5.13786 10.525C5.13786 10.525 5.13786 10.525 5.13786 10.525C5.13786 10.525 5.13786 10.525 5.13786 10.525C5.13786 10.525 5.13786 10.525 5.13786 10.525C5.13786 10.525 5.13786 10.525 5.13786 10.525C5.13786 10.525 5.13786 10.525 5.13786 10.525C5.13786 10.525 5.13786 10.525 5.13786 10.525C5.13786 10.525 5.13786 10.525 5.13786 10.525C5.13786 10.525 5.13786 10.525 5.13786 10.525C5.13786 10.525 5.13786 10.525 5.13786 10.525C5.13786 10.525 5.13786 10.525 5.13786 10.525C5.13786 10.525 5.13786 10.525 5.13786 10.525C5.13786 10.525 5.13786 10.525 5.13786 10.525C5.13786 10.525 5.13786 10.525 5.13786 10.525C5.13786 10.525 5.13786 10.525 5.13786 10.525C5.13786 10.525 5.13786 10.525 5.13786 10.525C5.13786 10.525 5.13786 10.525 5.13786 10.525C5.13786 10.525 5.13786 10.525 5.13786 10.525C5.13786 10.525 5.13786 10.525 5.13786 10.525C5.13786 10.525 5.13786 10.525 5.13786 10.525C5.13786 10.525 5.13786 10.525 5.13786 10.525C5.13786 10.525 5.13786 10.525 5.13786 10.525C5.13786 10.525 5.13786 10.525 5.13786 10.525C5.13786 10.525 5.13786 10.525 5.13786 10.525C5.13786 10.525 5.13786 10.525 5.13786 10.525C5.13786 10.525 5.13786 10.525 5.13786 10.525C5.13786 10.525 5.13786 10.525 5.13786 10.525C5.13786 10.525 5.13786 10.525 5.13786 10.525C5.13786 10.525 5.13786 10.525 5.13786 10.525C5.13786 10.525 5.13786 10.525 5.13786 10.525C5.13786 10.525 5.13786 10.525 5.13786 10.525C5.13786 10.525 5.13786 10.525 5.13786 10.525C5.13786 10.525 5.13786 10.525 5.13786 10.525C5.13786 10.525 5.13786 10.525 5.13786 10.525C5.13786 10.525 5.13786 10.525 5.13786 10.525C5.13786 10.525 5.13786 10.525 5.13786 10.525C5.13786 10.525 5.13786 10.525 5.13786 10.525C5.13786 10.525 5.13786 10.525 5.13786 10.525C5.13786 10.525 5.13786 10.525 5.13786 10.525C5.13786 10.525 5.13786 10.525 5.13786 10.525C5.13786 10.525 5.13786 10.525 5.13786 10.525C5.13786 10.525 5.13786 10.525 5.13786 10.525C5.13786 10.525 5.13786 10.525 5.13786 10.525C5.13786 10.525 5.13786 10.525 5.13786 10.525C5.13786 10.525 5.13786 10.525 5.13786 10.525C5.13786 10.525 5.13786 10.525 5.13786 10.525C5.13786 10.525 5.13786 10.525 5.13786 10.525C5.13786 10.525 5.13786 10.525 5.13786 10.525C5.13786 10.525 5.13786 10.5249 5.13786 10.5249C5.13786 10.5249 5.13786 10.5249 5.13786 10.5249C5.13786 10.5249 5.13786 10.5249 5.13786 10.5249C5.13786 10.5249 5.13786 10.5249 5.13786 10.5249C5.13786 10.5249 5.13786 10.5249 5.13786 10.5249C5.13786 10.5249 5.13786 10.5249 5.13786 10.5249C5.13786 10.5249 5.13786 10.5249 5.13786 10.5249H0.971191ZM15.9386 27.0076L17.3026 28.189L20.0304 25.0394L18.6665 23.8581L15.9386 27.0076ZM5.52195 17.9856L15.9386 27.0076L18.6665 23.8581L8.24984 14.836L5.52195 17.9856ZM4.80256 17.3625L5.52195 17.9856L8.24984 14.836L7.53045 14.2129L4.80256 17.3625ZM4.08317 14.836V15.7877H8.24984V14.836H4.08317ZM4.08317 11.2272V14.836H8.24984V11.2272H4.08317ZM4.08317 6.66669V11.2272H8.24984V6.66669H4.08317ZM10.9777 8.07765L7.53045 5.09191L4.80256 8.24147L8.24984 11.2272L10.9777 8.07765ZM20.0304 15.9184L10.9777 8.07765L8.24984 11.2272L17.3026 19.0679L20.0304 15.9184ZM26.3553 8.07765L17.3026 15.9184L20.0304 19.0679L29.0832 11.2272L26.3553 8.07765ZM29.8026 5.09191L26.3553 8.07765L29.0832 11.2272L32.5304 8.24147L29.8026 5.09191ZM33.2498 11.2272V6.66669H29.0832V11.2272H33.2498ZM33.2498 14.836V11.2272H29.0832V14.836H33.2498ZM29.0832 16.9194H31.1665V12.7527H29.0832V16.9194ZM26.9998 13.9833V14.836H31.1665V13.9833H26.9998ZM26.9998 11.2272V13.9833H31.1665V11.2272H26.9998ZM28.3638 14.6064L30.4471 12.802L27.7192 9.65243L25.6359 11.4568L28.3638 14.6064ZM20.0304 21.824L28.3638 14.6064L25.6359 11.4568L17.3026 18.6745L20.0304 21.824ZM8.96923 14.6064L17.3026 21.824L20.0304 18.6745L11.6971 11.4568L8.96923 14.6064ZM6.88589 12.802L8.96923 14.6064L11.6971 11.4568L9.61378 9.65243L6.88589 12.802ZM10.3332 13.9833V11.2272H6.1665V13.9833H10.3332ZM10.3332 14.836V13.9833H6.1665V14.836H10.3332ZM20.0304 22.2833L9.61378 13.2612L6.88589 16.4108L17.3026 25.4328L20.0304 22.2833ZM27.7192 13.2612L17.3026 22.2833L20.0304 25.4328L30.4471 16.4108L27.7192 13.2612ZM32.0219 15.0469L30.658 13.4721L27.5084 16.2L28.8723 17.7747L32.0219 15.0469ZM21.3944 27.0076L31.8111 17.9856L29.0832 14.836L18.6665 23.8581L21.3944 27.0076ZM20.0304 28.189L21.3944 27.0076L18.6665 23.8581L17.3026 25.0394L20.0304 28.189Z" fill="#FFD300" mask="url(#path-1-outside-1_1_25194)"/>
</svg>
