<svg width="82" height="18" viewBox="0 0 82 18" fill="none" xmlns="http://www.w3.org/2000/svg">
<path d="M8.83768 0.5C13.7177 0.5 17.6742 4.30502 17.6742 8.99811C17.6742 13.6912 13.7177 17.4962 8.83768 17.4962C3.95654 17.4962 0 13.6912 0 8.99811C0 4.30502 3.95654 0.5 8.83768 0.5Z" fill="#00AED6"/>
<path fill-rule="evenodd" clip-rule="evenodd" d="M13.9936 8.73543C13.9257 7.65335 12.9688 6.82405 11.8428 6.87283H6.26073C6.05712 6.87283 5.89245 6.71429 5.89245 6.51805C5.89245 6.32292 6.05712 6.16438 6.26073 6.16438H11.9163C11.884 5.43153 11.3633 4.8018 10.6278 4.60667C8.97891 4.32284 7.29104 4.32284 5.64211 4.60667C4.70527 4.82841 4.00431 5.57788 3.87524 6.49698C3.61711 8.16445 3.61711 9.85853 3.87524 11.5249C4.07218 12.4983 4.8755 13.2511 5.89245 13.4163C7.93637 13.6636 10.0048 13.6636 12.0487 13.4163C12.9599 13.2389 13.6486 12.5194 13.7577 11.6313C13.9446 10.6767 14.0236 9.70553 13.9936 8.73543ZM12.1526 9.92605V10.2376C12.1526 10.4327 11.988 10.5913 11.7843 10.5913C11.5807 10.5913 11.4161 10.4327 11.4161 10.2376V9.92605C11.297 9.82627 11.2303 9.68103 11.2325 9.52914C11.2325 9.23534 11.4795 8.99808 11.7843 8.99808C12.0892 8.99808 12.3362 9.23534 12.3362 9.52914C12.3351 9.67993 12.2683 9.82406 12.1526 9.92605Z" fill="white"/>
<path fill-rule="evenodd" clip-rule="evenodd" d="M40.0618 3.05066C36.8363 3.05066 34.5098 5.21039 34.5098 8.04309C34.5098 10.868 36.814 13.0422 40.0618 13.0422C43.3096 13.0422 45.615 10.8614 45.615 8.04309C45.615 5.22369 43.2874 3.05066 40.0618 3.05066ZM40.0617 5.32314C41.6116 5.33533 42.8577 6.55268 42.8455 8.04276H42.8677C42.8711 8.12702 42.8711 8.21238 42.8666 8.29664C42.7876 9.71022 41.5315 10.7956 40.0617 10.7191H40.0183C38.4684 10.708 37.2222 9.48959 37.2345 7.99952C37.2467 6.50944 38.5118 5.31205 40.0617 5.32314Z" fill="black"/>
<path fill-rule="evenodd" clip-rule="evenodd" d="M30.1986 4.1607V3.04203H32.8277V12.773C32.8277 15.4704 30.6781 17.496 27.5405 17.496C25.6612 17.5592 23.8376 16.8785 22.4958 15.6124L24.286 13.9549C25.145 14.7232 26.2977 15.1123 27.467 15.0314C28.9991 15.0314 30.1618 14.0824 30.1618 12.7863V11.8306C29.324 12.6267 28.1791 13.0502 27.0031 12.9992C24.1458 13.0247 21.8082 10.8173 21.7815 8.06994C21.7559 5.32261 24.0501 3.07418 26.9074 3.04979C28.1157 2.97773 29.3029 3.37796 30.1986 4.1607ZM27.2841 10.6826C28.8518 10.6826 30.089 9.72687 30.089 8.55831V7.46736C30.089 6.36976 28.8674 5.39966 27.3942 5.39966C25.5829 5.39966 24.4046 6.46178 24.4046 8.00619C24.3946 8.14699 24.3968 8.28779 24.4113 8.42749C24.557 9.81335 25.8432 10.8234 27.2841 10.6826Z" fill="black"/>
<path fill-rule="evenodd" clip-rule="evenodd" d="M49.8702 3.33269H47.2344L47.2566 16.7877H50.0026V12.057C50.876 12.7277 51.9653 13.0803 53.0813 13.0559C55.7995 12.9572 57.9791 10.8618 58.0815 8.24751C58.1894 5.48909 55.9508 3.16749 53.0813 3.06328C51.913 3.01338 50.7714 3.4103 49.9069 4.16864H49.8702V3.33269ZM49.9805 7.45584C49.9805 6.38596 51.1799 5.40144 52.653 5.40144H52.6675C52.7632 5.39701 52.8589 5.39701 52.9534 5.40144C54.4855 5.47794 55.6627 6.73298 55.5837 8.20532C55.5047 9.67766 54.1996 10.8096 52.6675 10.7342C51.1654 10.7342 49.9805 9.79185 49.9805 8.65212V7.45584Z" fill="black"/>
<path fill-rule="evenodd" clip-rule="evenodd" d="M65.6975 6.16504C65.6975 6.64621 65.1601 6.89456 63.3554 7.12849C60.2623 7.53871 59.025 8.50881 59.025 10.2018C59.025 11.8936 60.5349 13.0345 62.7079 13.0345C63.9651 13.1187 65.1924 12.6376 66.0291 11.7318H66.0658V12.7795H68.5325V6.76706C68.5325 4.47207 66.7512 3.05627 63.8784 3.05627C61.3382 3.05627 59.2765 4.42994 58.9082 6.35574L61.4995 6.87349C61.7688 5.80139 62.8091 5.07631 63.9518 5.16611C65.0132 5.16611 65.6975 5.54196 65.6975 6.16504ZM65.8824 8.12747H65.9191L65.8968 9.2539C65.8968 10.1531 64.674 10.8615 63.0907 10.8615C62.0527 10.8615 61.5742 10.5921 61.5742 10.04C61.5742 9.48784 62.1706 9.18295 63.7828 8.89247C65.1458 8.6663 65.6387 8.46784 65.8824 8.12747Z" fill="black"/>
<path d="M73.5049 12.2482L68.9609 3.33215H71.9884L74.9703 9.50756H75.0148L77.9599 3.33215H81.0019L74.197 16.7872H71.1706L73.5049 12.2482Z" fill="black"/>
</svg>
