<svg width="19" height="11" viewBox="0 0 19 11" fill="none" xmlns="http://www.w3.org/2000/svg">
<path d="M18.2174 0.0527344H1.06407C0.898116 0.0527344 0.75293 0.199147 0.75293 0.366413V10.6338C0.75293 10.8011 0.898116 10.9475 1.06407 10.9475H18.2174C18.3834 10.9475 18.5286 10.8011 18.5286 10.6338V0.366413C18.5286 0.199147 18.3834 0.0527344 18.2174 0.0527344Z" fill="#E5E9F2"/>
<path d="M16.3909 3.89981C15.7013 3.88016 15.1371 3.369 15.1162 2.72023C15.1162 2.50397 14.9281 2.34668 14.6983 2.34668H4.60511C4.37524 2.34668 4.20805 2.50397 4.18717 2.72023C4.14538 3.369 3.58117 3.88016 2.89157 3.89981C2.6617 3.89981 2.47363 4.07674 2.47363 4.293V7.28125C2.47363 7.4975 2.6617 7.67444 2.89157 7.67444C3.60205 7.69408 4.16626 8.20524 4.18717 8.85402C4.18717 9.07027 4.37524 9.22757 4.60511 9.22757H14.6773C14.9072 9.22757 15.0744 9.07027 15.0953 8.85402C15.1371 8.20524 15.7013 7.69412 16.3909 7.67444C16.6207 7.67444 16.8088 7.4975 16.8088 7.28125V4.293C16.8088 4.07674 16.6207 3.89981 16.3909 3.89981Z" fill="#F9FAFC"/>
<path d="M14.2634 4.64941C13.8041 4.64941 13.4492 5.02207 13.4492 5.50432C13.4492 5.98657 13.825 6.35923 14.2634 6.35923C14.7018 6.35923 15.0776 5.96467 15.0776 5.50432C15.0776 5.04397 14.7227 4.64941 14.2634 4.64941Z" fill="#E5E9F2"/>
<path d="M5.49363 5.57659C5.49363 5.11628 5.13872 4.72168 4.67943 4.72168C4.22015 4.72168 3.86523 5.09434 3.86523 5.57659C3.86523 6.05884 4.22015 6.4315 4.67943 6.4315C5.13872 6.4315 5.49363 6.03694 5.49363 5.57659Z" fill="#E5E9F2"/>
<path d="M9.83969 4.12711C9.67777 4.08663 9.51589 4.06641 9.33375 4.06641C9.15161 4.06641 8.98969 4.08663 8.82781 4.14737C8.28139 4.32951 7.83615 4.77475 7.69449 5.30095C7.65401 5.46287 7.63379 5.62475 7.63379 5.80689C7.63379 5.98903 7.65401 6.15095 7.71475 6.31283C7.89689 6.85925 8.34213 7.30449 8.86833 7.44615C9.03025 7.48663 9.19213 7.50685 9.37427 7.50685C9.55641 7.50685 9.71833 7.48663 9.88021 7.42589C10.4266 7.24375 10.8719 6.79851 11.0135 6.27231C11.054 6.11039 11.0742 5.94851 11.0742 5.76637C11.0742 5.58423 11.054 5.42231 10.9933 5.26043C10.8111 4.71401 10.3659 4.26877 9.83969 4.12711Z" fill="#E5E9F2"/>
</svg>
