<svg width="29" height="37" viewBox="0 0 29 37" fill="none" xmlns="http://www.w3.org/2000/svg">
<path d="M11.2602 10.5719L11.2603 10.5719L11.2575 10.5605C10.7852 8.63451 10.5288 6.56592 10.5288 4.40655C10.5288 3.7104 10.3189 3.03967 9.93256 2.51922C9.54722 2.00006 8.93084 1.57161 8.15609 1.57161H3.49752C2.72277 1.57161 2.10639 2.00006 1.72105 2.51922C1.33475 3.03967 1.12484 3.7104 1.12484 4.40655C1.12484 13.027 3.71619 20.8713 7.95687 26.5847C12.1975 32.2981 18.1387 35.9338 24.7938 35.9338C25.5686 35.9338 26.185 35.5053 26.5703 34.9862C26.9566 34.4657 27.1665 33.795 27.1665 33.0989V26.8403C27.1665 26.1442 26.9566 25.4735 26.5703 24.953C26.185 24.4338 25.5686 24.0054 24.7938 24.0054C23.2974 24.0054 21.8326 23.6808 20.471 23.0756C19.4755 22.6205 18.4407 23.0359 17.848 23.8345L15.5362 26.9491C12.4587 24.5654 9.88021 21.0372 8.16404 16.7418L10.7495 13.2585C11.3333 12.4718 11.4644 11.4472 11.2602 10.5719Z" stroke="#FFD300" stroke-width="2.08333"/>
</svg>
