<svg width="32" height="32" viewBox="0 0 32 32" fill="none" xmlns="http://www.w3.org/2000/svg">
<path fill-rule="evenodd" clip-rule="evenodd" d="M16.1846 0C20.3451 0.00179303 24.2502 1.62113 27.1869 4.55994C30.1233 7.49895 31.7398 11.4056 31.7384 15.5605C31.7348 24.1332 24.7566 31.1093 16.1846 31.1093H16.1845H16.1779C13.5749 31.1082 11.0171 30.4554 8.74534 29.2164L0.5 31.3785L2.70661 23.3214C1.34562 20.9634 0.629585 18.2883 0.630584 15.5479C0.634016 6.97485 7.61109 0 16.1846 0ZM16.1795 28.4832H16.1846C23.3098 28.4832 29.1091 22.6853 29.1121 15.5594C29.1132 12.106 27.77 8.85891 25.3291 6.41629C22.8882 3.97364 19.6426 2.62764 16.1894 2.6262C9.05853 2.6262 3.25945 8.42326 3.25661 15.5489C3.25564 17.9908 3.93886 20.3688 5.23304 22.4266L5.54075 22.9155L4.2344 27.6843L9.12736 26.4015L9.59964 26.6815C11.5842 27.859 13.8594 28.4819 16.1795 28.4832Z" fill="#E0E0E0"/>
<path d="M1.21387 30.4845L3.31968 22.7955C2.02053 20.5452 1.33733 17.9921 1.33815 15.3774C1.34156 7.19608 7.99998 0.540039 16.1811 0.540039C20.1518 0.541832 23.8785 2.08712 26.6805 4.89176C29.4832 7.69637 31.0257 11.4243 31.024 15.389C31.0206 23.5705 24.3618 30.2271 16.1817 30.2271C16.1811 30.2271 16.1821 30.2271 16.1817 30.2271H16.1751C13.691 30.2263 11.2502 29.6028 9.08241 28.4213L1.21387 30.4845H1.21387Z" fill="url(#paint0_linear_1_25177)"/>
<path fill-rule="evenodd" clip-rule="evenodd" d="M12.341 8.94722C12.0532 8.30744 11.7502 8.29463 11.4765 8.28344C11.2525 8.27383 10.9962 8.27442 10.7403 8.27442C10.4841 8.27442 10.0679 8.37068 9.71587 8.75511C9.36367 9.13953 8.37109 10.0689 8.37109 11.9589C8.37109 13.8492 9.74789 15.6757 9.93979 15.9322C10.1319 16.1884 12.5975 20.1911 16.5024 21.731C19.7476 23.0107 20.408 22.7562 21.1124 22.6921C21.8168 22.6281 23.3853 21.763 23.7055 20.8659C24.0257 19.9689 24.0257 19.2001 23.9296 19.0394C23.8336 18.8793 23.5774 18.7833 23.1932 18.5911C22.809 18.399 20.9203 17.4695 20.5681 17.3414C20.2159 17.2134 19.9598 17.1493 19.7036 17.5339C19.4475 17.9182 18.7116 18.7833 18.4875 19.0394C18.2634 19.2961 18.0393 19.3282 17.655 19.1361C17.2708 18.9434 16.0335 18.5381 14.5657 17.2293C13.4236 16.2112 12.6525 14.9536 12.4284 14.569C12.2043 14.1848 12.4044 13.9767 12.5971 13.7852C12.7696 13.613 12.9813 13.3367 13.1735 13.1124C13.3652 12.888 13.4292 12.7279 13.5573 12.4718C13.6853 12.2152 13.6213 11.9909 13.5252 11.7988C13.4292 11.6067 12.6826 9.70685 12.341 8.94722Z" fill="white"/>
<path fill-rule="evenodd" clip-rule="evenodd" d="M16.1837 0.00292969C20.2965 0.00474833 24.1567 1.60547 27.0598 4.51054C29.9625 7.41581 31.5604 11.2776 31.559 15.3848C31.5554 23.8591 24.6574 30.755 16.1837 30.755H16.1837H16.1771C13.604 30.754 11.0756 30.1086 8.82989 28.8839L0.679199 31.0212L2.86045 23.0566C1.51509 20.7257 0.807273 18.0814 0.808272 15.3724C0.811679 6.89771 7.70866 0.00292969 16.1837 0.00292969ZM16.1787 28.1592H16.1837C23.2272 28.1592 28.9599 22.4279 28.9629 15.3838C28.9639 11.97 27.6361 8.7602 25.2234 6.3456C22.8104 3.931 19.6021 2.60045 16.1885 2.59904C9.13947 2.59904 3.40697 8.32954 3.40417 15.3734C3.40317 17.7872 4.07856 20.1379 5.35789 22.1721L5.66206 22.6554L4.37072 27.3695L9.2075 26.1014L9.67438 26.3781C11.6361 27.5422 13.8852 28.1579 16.1787 28.1592Z" fill="white"/>
<defs>
<linearGradient id="paint0_linear_1_25177" x1="31.024" y1="30.4845" x2="31.024" y2="0.540089" gradientUnits="userSpaceOnUse">
<stop stop-color="#20B038"/>
<stop offset="1" stop-color="#60D66A"/>
</linearGradient>
</defs>
</svg>
